<mxfile host="app.diagrams.net" modified="2022-04-15T14:09:56.867Z" agent="5.0 (X11)" etag="9Uc_snAEVNfN_OJSS_vM" version="17.4.3" type="github">
  <diagram id="CtGkfUOr_WS5Vb05qTAQ" name="Page-1">
    <mxGraphModel dx="1385" dy="629" grid="1" gridSize="10" guides="1" tooltips="1" connect="1" arrows="1" fold="1" page="1" pageScale="1" pageWidth="850" pageHeight="1100" math="0" shadow="0">
      <root>
        <mxCell id="0" />
        <mxCell id="1" parent="0" />
        <mxCell id="c4ubHolTfmmN0Y3g5EFC-14" value="employee" style="swimlane;fontStyle=0;childLayout=stackLayout;horizontal=1;startSize=26;horizontalStack=0;resizeParent=1;resizeParentMax=0;resizeLast=0;collapsible=1;marginBottom=0;align=center;fontSize=14;" parent="1" vertex="1">
          <mxGeometry x="160" y="20" width="160" height="116" as="geometry" />
        </mxCell>
        <mxCell id="c4ubHolTfmmN0Y3g5EFC-15" value="employee_id" style="text;strokeColor=none;fillColor=none;spacingLeft=4;spacingRight=4;overflow=hidden;rotatable=0;points=[[0,0.5],[1,0.5]];portConstraint=eastwest;fontSize=12;" parent="c4ubHolTfmmN0Y3g5EFC-14" vertex="1">
          <mxGeometry y="26" width="160" height="30" as="geometry" />
        </mxCell>
        <mxCell id="c4ubHolTfmmN0Y3g5EFC-16" value="Payroll Address " style="text;strokeColor=none;fillColor=none;spacingLeft=4;spacingRight=4;overflow=hidden;rotatable=0;points=[[0,0.5],[1,0.5]];portConstraint=eastwest;fontSize=12;" parent="c4ubHolTfmmN0Y3g5EFC-14" vertex="1">
          <mxGeometry y="56" width="160" height="30" as="geometry" />
        </mxCell>
        <mxCell id="vzAV2QZ2YjK8haRTbbHY-15" value="Date Employed" style="text;strokeColor=none;fillColor=none;spacingLeft=4;spacingRight=4;overflow=hidden;rotatable=0;points=[[0,0.5],[1,0.5]];portConstraint=eastwest;fontSize=12;" parent="c4ubHolTfmmN0Y3g5EFC-14" vertex="1">
          <mxGeometry y="86" width="160" height="30" as="geometry" />
        </mxCell>
        <mxCell id="vzAV2QZ2YjK8haRTbbHY-7" value="employee_skill" style="swimlane;fontStyle=0;childLayout=stackLayout;horizontal=1;startSize=26;horizontalStack=0;resizeParent=1;resizeParentMax=0;resizeLast=0;collapsible=1;marginBottom=0;align=center;fontSize=14;" parent="1" vertex="1">
          <mxGeometry x="460" y="20" width="160" height="86" as="geometry" />
        </mxCell>
        <mxCell id="vzAV2QZ2YjK8haRTbbHY-8" value="skill_owner_id" style="text;strokeColor=none;fillColor=none;spacingLeft=4;spacingRight=4;overflow=hidden;rotatable=0;points=[[0,0.5],[1,0.5]];portConstraint=eastwest;fontSize=12;" parent="vzAV2QZ2YjK8haRTbbHY-7" vertex="1">
          <mxGeometry y="26" width="160" height="30" as="geometry" />
        </mxCell>
        <mxCell id="vzAV2QZ2YjK8haRTbbHY-9" value="skill" style="text;strokeColor=none;fillColor=none;spacingLeft=4;spacingRight=4;overflow=hidden;rotatable=0;points=[[0,0.5],[1,0.5]];portConstraint=eastwest;fontSize=12;" parent="vzAV2QZ2YjK8haRTbbHY-7" vertex="1">
          <mxGeometry y="56" width="160" height="30" as="geometry" />
        </mxCell>
        <mxCell id="vzAV2QZ2YjK8haRTbbHY-11" value="" style="edgeStyle=orthogonalEdgeStyle;rounded=0;orthogonalLoop=1;jettySize=auto;html=1;" parent="1" source="c4ubHolTfmmN0Y3g5EFC-15" target="vzAV2QZ2YjK8haRTbbHY-8" edge="1">
          <mxGeometry relative="1" as="geometry" />
        </mxCell>
        <mxCell id="vzAV2QZ2YjK8haRTbbHY-16" value="Figure 2-8" style="text;html=1;resizable=0;autosize=1;align=center;verticalAlign=middle;points=[];fillColor=none;strokeColor=none;rounded=0;" parent="1" vertex="1">
          <mxGeometry x="340" y="10" width="80" height="20" as="geometry" />
        </mxCell>
        <mxCell id="s1oTNmXMthimfNLyiVDR-2" value="&lt;div&gt;Figure 2-9 b&lt;/div&gt;&lt;div&gt;&lt;br&gt;&lt;/div&gt;" style="text;html=1;resizable=0;autosize=1;align=center;verticalAlign=middle;points=[];fillColor=none;strokeColor=none;rounded=0;" vertex="1" parent="1">
          <mxGeometry x="335" y="220" width="90" height="30" as="geometry" />
        </mxCell>
        <mxCell id="s1oTNmXMthimfNLyiVDR-3" value="flight" style="swimlane;fontStyle=0;childLayout=stackLayout;horizontal=1;startSize=26;horizontalStack=0;resizeParent=1;resizeParentMax=0;resizeLast=0;collapsible=1;marginBottom=0;align=center;fontSize=14;" vertex="1" parent="1">
          <mxGeometry x="160" y="270" width="160" height="116" as="geometry" />
        </mxCell>
        <mxCell id="s1oTNmXMthimfNLyiVDR-4" value="flight_id" style="text;strokeColor=none;fillColor=none;spacingLeft=4;spacingRight=4;overflow=hidden;rotatable=0;points=[[0,0.5],[1,0.5]];portConstraint=eastwest;fontSize=12;" vertex="1" parent="s1oTNmXMthimfNLyiVDR-3">
          <mxGeometry y="26" width="160" height="30" as="geometry" />
        </mxCell>
        <mxCell id="s1oTNmXMthimfNLyiVDR-5" value="number_of_passengers" style="text;strokeColor=none;fillColor=none;spacingLeft=4;spacingRight=4;overflow=hidden;rotatable=0;points=[[0,0.5],[1,0.5]];portConstraint=eastwest;fontSize=12;" vertex="1" parent="s1oTNmXMthimfNLyiVDR-3">
          <mxGeometry y="56" width="160" height="30" as="geometry" />
        </mxCell>
        <mxCell id="s1oTNmXMthimfNLyiVDR-6" value="Item 3" style="text;strokeColor=none;fillColor=none;spacingLeft=4;spacingRight=4;overflow=hidden;rotatable=0;points=[[0,0.5],[1,0.5]];portConstraint=eastwest;fontSize=12;" vertex="1" parent="s1oTNmXMthimfNLyiVDR-3">
          <mxGeometry y="86" width="160" height="30" as="geometry" />
        </mxCell>
        <mxCell id="s1oTNmXMthimfNLyiVDR-7" value="flight_details" style="swimlane;fontStyle=0;childLayout=stackLayout;horizontal=1;startSize=26;horizontalStack=0;resizeParent=1;resizeParentMax=0;resizeLast=0;collapsible=1;marginBottom=0;align=center;fontSize=14;" vertex="1" parent="1">
          <mxGeometry x="440" y="270" width="160" height="116" as="geometry" />
        </mxCell>
        <mxCell id="s1oTNmXMthimfNLyiVDR-8" value="cabin_id" style="text;strokeColor=none;fillColor=none;spacingLeft=4;spacingRight=4;overflow=hidden;rotatable=0;points=[[0,0.5],[1,0.5]];portConstraint=eastwest;fontSize=12;" vertex="1" parent="s1oTNmXMthimfNLyiVDR-7">
          <mxGeometry y="26" width="160" height="30" as="geometry" />
        </mxCell>
        <mxCell id="s1oTNmXMthimfNLyiVDR-9" value="flight_number" style="text;strokeColor=none;fillColor=none;spacingLeft=4;spacingRight=4;overflow=hidden;rotatable=0;points=[[0,0.5],[1,0.5]];portConstraint=eastwest;fontSize=12;" vertex="1" parent="s1oTNmXMthimfNLyiVDR-7">
          <mxGeometry y="56" width="160" height="30" as="geometry" />
        </mxCell>
        <mxCell id="s1oTNmXMthimfNLyiVDR-10" value="date" style="text;strokeColor=none;fillColor=none;spacingLeft=4;spacingRight=4;overflow=hidden;rotatable=0;points=[[0,0.5],[1,0.5]];portConstraint=eastwest;fontSize=12;" vertex="1" parent="s1oTNmXMthimfNLyiVDR-7">
          <mxGeometry y="86" width="160" height="30" as="geometry" />
        </mxCell>
        <mxCell id="s1oTNmXMthimfNLyiVDR-11" style="edgeStyle=orthogonalEdgeStyle;rounded=0;orthogonalLoop=1;jettySize=auto;html=1;entryX=0;entryY=0.5;entryDx=0;entryDy=0;" edge="1" parent="1" source="s1oTNmXMthimfNLyiVDR-4" target="s1oTNmXMthimfNLyiVDR-8">
          <mxGeometry relative="1" as="geometry" />
        </mxCell>
        <mxCell id="s1oTNmXMthimfNLyiVDR-15" value="&lt;div&gt;Figure 2-11 a&lt;/div&gt;" style="text;html=1;resizable=0;autosize=1;align=center;verticalAlign=middle;points=[];fillColor=none;strokeColor=none;rounded=0;" vertex="1" parent="1">
          <mxGeometry x="330" y="500" width="100" height="20" as="geometry" />
        </mxCell>
        <mxCell id="s1oTNmXMthimfNLyiVDR-16" value="employee" style="swimlane;fontStyle=0;childLayout=stackLayout;horizontal=1;startSize=26;horizontalStack=0;resizeParent=1;resizeParentMax=0;resizeLast=0;collapsible=1;marginBottom=0;align=center;fontSize=14;" vertex="1" parent="1">
          <mxGeometry x="190" y="540" width="160" height="116" as="geometry" />
        </mxCell>
        <mxCell id="s1oTNmXMthimfNLyiVDR-17" value="employee_id" style="text;strokeColor=none;fillColor=none;spacingLeft=4;spacingRight=4;overflow=hidden;rotatable=0;points=[[0,0.5],[1,0.5]];portConstraint=eastwest;fontSize=12;" vertex="1" parent="s1oTNmXMthimfNLyiVDR-16">
          <mxGeometry y="26" width="160" height="30" as="geometry" />
        </mxCell>
        <mxCell id="s1oTNmXMthimfNLyiVDR-18" value="employee_name" style="text;strokeColor=none;fillColor=none;spacingLeft=4;spacingRight=4;overflow=hidden;rotatable=0;points=[[0,0.5],[1,0.5]];portConstraint=eastwest;fontSize=12;" vertex="1" parent="s1oTNmXMthimfNLyiVDR-16">
          <mxGeometry y="56" width="160" height="30" as="geometry" />
        </mxCell>
        <mxCell id="s1oTNmXMthimfNLyiVDR-19" value="birth_date" style="text;strokeColor=none;fillColor=none;spacingLeft=4;spacingRight=4;overflow=hidden;rotatable=0;points=[[0,0.5],[1,0.5]];portConstraint=eastwest;fontSize=12;" vertex="1" parent="s1oTNmXMthimfNLyiVDR-16">
          <mxGeometry y="86" width="160" height="30" as="geometry" />
        </mxCell>
        <mxCell id="s1oTNmXMthimfNLyiVDR-20" value="course" style="swimlane;fontStyle=0;childLayout=stackLayout;horizontal=1;startSize=26;horizontalStack=0;resizeParent=1;resizeParentMax=0;resizeLast=0;collapsible=1;marginBottom=0;align=center;fontSize=14;" vertex="1" parent="1">
          <mxGeometry x="610" y="540" width="160" height="86" as="geometry" />
        </mxCell>
        <mxCell id="s1oTNmXMthimfNLyiVDR-21" value="course_id" style="text;strokeColor=none;fillColor=none;spacingLeft=4;spacingRight=4;overflow=hidden;rotatable=0;points=[[0,0.5],[1,0.5]];portConstraint=eastwest;fontSize=12;" vertex="1" parent="s1oTNmXMthimfNLyiVDR-20">
          <mxGeometry y="26" width="160" height="30" as="geometry" />
        </mxCell>
        <mxCell id="s1oTNmXMthimfNLyiVDR-22" value="course_title" style="text;strokeColor=none;fillColor=none;spacingLeft=4;spacingRight=4;overflow=hidden;rotatable=0;points=[[0,0.5],[1,0.5]];portConstraint=eastwest;fontSize=12;" vertex="1" parent="s1oTNmXMthimfNLyiVDR-20">
          <mxGeometry y="56" width="160" height="30" as="geometry" />
        </mxCell>
        <mxCell id="s1oTNmXMthimfNLyiVDR-24" value="employee_to_course" style="swimlane;fontStyle=0;childLayout=stackLayout;horizontal=1;startSize=26;horizontalStack=0;resizeParent=1;resizeParentMax=0;resizeLast=0;collapsible=1;marginBottom=0;align=center;fontSize=14;" vertex="1" parent="1">
          <mxGeometry x="390" y="540" width="160" height="116" as="geometry" />
        </mxCell>
        <mxCell id="s1oTNmXMthimfNLyiVDR-25" value="employee_id" style="text;strokeColor=none;fillColor=none;spacingLeft=4;spacingRight=4;overflow=hidden;rotatable=0;points=[[0,0.5],[1,0.5]];portConstraint=eastwest;fontSize=12;" vertex="1" parent="s1oTNmXMthimfNLyiVDR-24">
          <mxGeometry y="26" width="160" height="30" as="geometry" />
        </mxCell>
        <mxCell id="s1oTNmXMthimfNLyiVDR-26" value="course_id" style="text;strokeColor=none;fillColor=none;spacingLeft=4;spacingRight=4;overflow=hidden;rotatable=0;points=[[0,0.5],[1,0.5]];portConstraint=eastwest;fontSize=12;" vertex="1" parent="s1oTNmXMthimfNLyiVDR-24">
          <mxGeometry y="56" width="160" height="30" as="geometry" />
        </mxCell>
        <mxCell id="s1oTNmXMthimfNLyiVDR-27" value="date_completed" style="text;strokeColor=none;fillColor=none;spacingLeft=4;spacingRight=4;overflow=hidden;rotatable=0;points=[[0,0.5],[1,0.5]];portConstraint=eastwest;fontSize=12;" vertex="1" parent="s1oTNmXMthimfNLyiVDR-24">
          <mxGeometry y="86" width="160" height="30" as="geometry" />
        </mxCell>
        <mxCell id="s1oTNmXMthimfNLyiVDR-30" style="edgeStyle=orthogonalEdgeStyle;rounded=0;orthogonalLoop=1;jettySize=auto;html=1;" edge="1" parent="1" source="s1oTNmXMthimfNLyiVDR-17" target="s1oTNmXMthimfNLyiVDR-25">
          <mxGeometry relative="1" as="geometry" />
        </mxCell>
        <mxCell id="s1oTNmXMthimfNLyiVDR-31" style="edgeStyle=orthogonalEdgeStyle;rounded=0;orthogonalLoop=1;jettySize=auto;html=1;" edge="1" parent="1" source="s1oTNmXMthimfNLyiVDR-21" target="s1oTNmXMthimfNLyiVDR-26">
          <mxGeometry relative="1" as="geometry" />
        </mxCell>
        <mxCell id="s1oTNmXMthimfNLyiVDR-32" value="Figure 2-11b" style="text;html=1;resizable=0;autosize=1;align=center;verticalAlign=middle;points=[];fillColor=none;strokeColor=none;rounded=0;" vertex="1" parent="1">
          <mxGeometry x="335" y="740" width="90" height="20" as="geometry" />
        </mxCell>
        <mxCell id="s1oTNmXMthimfNLyiVDR-33" value="employee" style="swimlane;fontStyle=0;childLayout=stackLayout;horizontal=1;startSize=26;horizontalStack=0;resizeParent=1;resizeParentMax=0;resizeLast=0;collapsible=1;marginBottom=0;align=center;fontSize=14;" vertex="1" parent="1">
          <mxGeometry x="190" y="780" width="160" height="116" as="geometry" />
        </mxCell>
        <mxCell id="s1oTNmXMthimfNLyiVDR-34" value="employee_id" style="text;strokeColor=none;fillColor=none;spacingLeft=4;spacingRight=4;overflow=hidden;rotatable=0;points=[[0,0.5],[1,0.5]];portConstraint=eastwest;fontSize=12;" vertex="1" parent="s1oTNmXMthimfNLyiVDR-33">
          <mxGeometry y="26" width="160" height="30" as="geometry" />
        </mxCell>
        <mxCell id="s1oTNmXMthimfNLyiVDR-35" value="employee_name" style="text;strokeColor=none;fillColor=none;spacingLeft=4;spacingRight=4;overflow=hidden;rotatable=0;points=[[0,0.5],[1,0.5]];portConstraint=eastwest;fontSize=12;" vertex="1" parent="s1oTNmXMthimfNLyiVDR-33">
          <mxGeometry y="56" width="160" height="30" as="geometry" />
        </mxCell>
        <mxCell id="s1oTNmXMthimfNLyiVDR-36" value="birth_date" style="text;strokeColor=none;fillColor=none;spacingLeft=4;spacingRight=4;overflow=hidden;rotatable=0;points=[[0,0.5],[1,0.5]];portConstraint=eastwest;fontSize=12;" vertex="1" parent="s1oTNmXMthimfNLyiVDR-33">
          <mxGeometry y="86" width="160" height="30" as="geometry" />
        </mxCell>
        <mxCell id="s1oTNmXMthimfNLyiVDR-37" value="certificate_mapping" style="swimlane;fontStyle=0;childLayout=stackLayout;horizontal=1;startSize=26;horizontalStack=0;resizeParent=1;resizeParentMax=0;resizeLast=0;collapsible=1;marginBottom=0;align=center;fontSize=14;" vertex="1" parent="1">
          <mxGeometry x="380" y="780" width="160" height="116" as="geometry" />
        </mxCell>
        <mxCell id="s1oTNmXMthimfNLyiVDR-38" value="employee_id" style="text;strokeColor=none;fillColor=none;spacingLeft=4;spacingRight=4;overflow=hidden;rotatable=0;points=[[0,0.5],[1,0.5]];portConstraint=eastwest;fontSize=12;" vertex="1" parent="s1oTNmXMthimfNLyiVDR-37">
          <mxGeometry y="26" width="160" height="30" as="geometry" />
        </mxCell>
        <mxCell id="s1oTNmXMthimfNLyiVDR-39" value="course_id" style="text;strokeColor=none;fillColor=none;spacingLeft=4;spacingRight=4;overflow=hidden;rotatable=0;points=[[0,0.5],[1,0.5]];portConstraint=eastwest;fontSize=12;" vertex="1" parent="s1oTNmXMthimfNLyiVDR-37">
          <mxGeometry y="56" width="160" height="30" as="geometry" />
        </mxCell>
        <mxCell id="s1oTNmXMthimfNLyiVDR-40" value="certificate_number" style="text;strokeColor=none;fillColor=none;spacingLeft=4;spacingRight=4;overflow=hidden;rotatable=0;points=[[0,0.5],[1,0.5]];portConstraint=eastwest;fontSize=12;" vertex="1" parent="s1oTNmXMthimfNLyiVDR-37">
          <mxGeometry y="86" width="160" height="30" as="geometry" />
        </mxCell>
        <mxCell id="s1oTNmXMthimfNLyiVDR-41" value="course" style="swimlane;fontStyle=0;childLayout=stackLayout;horizontal=1;startSize=26;horizontalStack=0;resizeParent=1;resizeParentMax=0;resizeLast=0;collapsible=1;marginBottom=0;align=center;fontSize=14;" vertex="1" parent="1">
          <mxGeometry x="580" y="780" width="160" height="86" as="geometry" />
        </mxCell>
        <mxCell id="s1oTNmXMthimfNLyiVDR-42" value="course_id" style="text;strokeColor=none;fillColor=none;spacingLeft=4;spacingRight=4;overflow=hidden;rotatable=0;points=[[0,0.5],[1,0.5]];portConstraint=eastwest;fontSize=12;" vertex="1" parent="s1oTNmXMthimfNLyiVDR-41">
          <mxGeometry y="26" width="160" height="30" as="geometry" />
        </mxCell>
        <mxCell id="s1oTNmXMthimfNLyiVDR-43" value="course_title" style="text;strokeColor=none;fillColor=none;spacingLeft=4;spacingRight=4;overflow=hidden;rotatable=0;points=[[0,0.5],[1,0.5]];portConstraint=eastwest;fontSize=12;" vertex="1" parent="s1oTNmXMthimfNLyiVDR-41">
          <mxGeometry y="56" width="160" height="30" as="geometry" />
        </mxCell>
        <mxCell id="s1oTNmXMthimfNLyiVDR-46" style="edgeStyle=orthogonalEdgeStyle;rounded=0;orthogonalLoop=1;jettySize=auto;html=1;" edge="1" parent="1" source="s1oTNmXMthimfNLyiVDR-34" target="s1oTNmXMthimfNLyiVDR-38">
          <mxGeometry relative="1" as="geometry" />
        </mxCell>
        <mxCell id="s1oTNmXMthimfNLyiVDR-47" style="edgeStyle=orthogonalEdgeStyle;rounded=0;orthogonalLoop=1;jettySize=auto;html=1;" edge="1" parent="1" source="s1oTNmXMthimfNLyiVDR-42" target="s1oTNmXMthimfNLyiVDR-39">
          <mxGeometry relative="1" as="geometry" />
        </mxCell>
        <mxCell id="s1oTNmXMthimfNLyiVDR-48" value="certificate" style="swimlane;fontStyle=0;childLayout=stackLayout;horizontal=1;startSize=26;horizontalStack=0;resizeParent=1;resizeParentMax=0;resizeLast=0;collapsible=1;marginBottom=0;align=center;fontSize=14;" vertex="1" parent="1">
          <mxGeometry x="380" y="940" width="160" height="86" as="geometry" />
        </mxCell>
        <mxCell id="s1oTNmXMthimfNLyiVDR-49" value="certificate_number" style="text;strokeColor=none;fillColor=none;spacingLeft=4;spacingRight=4;overflow=hidden;rotatable=0;points=[[0,0.5],[1,0.5]];portConstraint=eastwest;fontSize=12;" vertex="1" parent="s1oTNmXMthimfNLyiVDR-48">
          <mxGeometry y="26" width="160" height="30" as="geometry" />
        </mxCell>
        <mxCell id="s1oTNmXMthimfNLyiVDR-50" value="date_completed" style="text;strokeColor=none;fillColor=none;spacingLeft=4;spacingRight=4;overflow=hidden;rotatable=0;points=[[0,0.5],[1,0.5]];portConstraint=eastwest;fontSize=12;" vertex="1" parent="s1oTNmXMthimfNLyiVDR-48">
          <mxGeometry y="56" width="160" height="30" as="geometry" />
        </mxCell>
        <mxCell id="s1oTNmXMthimfNLyiVDR-52" style="edgeStyle=orthogonalEdgeStyle;rounded=0;orthogonalLoop=1;jettySize=auto;html=1;entryX=1.015;entryY=0.276;entryDx=0;entryDy=0;entryPerimeter=0;" edge="1" parent="1" source="s1oTNmXMthimfNLyiVDR-40" target="s1oTNmXMthimfNLyiVDR-49">
          <mxGeometry relative="1" as="geometry" />
        </mxCell>
        <mxCell id="s1oTNmXMthimfNLyiVDR-53" value="Figure 2-15" style="text;html=1;resizable=0;autosize=1;align=center;verticalAlign=middle;points=[];fillColor=none;strokeColor=none;rounded=0;" vertex="1" parent="1">
          <mxGeometry x="400" y="1110" width="90" height="20" as="geometry" />
        </mxCell>
        <mxCell id="s1oTNmXMthimfNLyiVDR-54" value="course" style="swimlane;fontStyle=0;childLayout=stackLayout;horizontal=1;startSize=26;horizontalStack=0;resizeParent=1;resizeParentMax=0;resizeLast=0;collapsible=1;marginBottom=0;align=center;fontSize=14;" vertex="1" parent="1">
          <mxGeometry x="170" y="1150" width="160" height="86" as="geometry" />
        </mxCell>
        <mxCell id="s1oTNmXMthimfNLyiVDR-55" value="course_id" style="text;strokeColor=none;fillColor=none;spacingLeft=4;spacingRight=4;overflow=hidden;rotatable=0;points=[[0,0.5],[1,0.5]];portConstraint=eastwest;fontSize=12;" vertex="1" parent="s1oTNmXMthimfNLyiVDR-54">
          <mxGeometry y="26" width="160" height="30" as="geometry" />
        </mxCell>
        <mxCell id="s1oTNmXMthimfNLyiVDR-56" value="course_title" style="text;strokeColor=none;fillColor=none;spacingLeft=4;spacingRight=4;overflow=hidden;rotatable=0;points=[[0,0.5],[1,0.5]];portConstraint=eastwest;fontSize=12;" vertex="1" parent="s1oTNmXMthimfNLyiVDR-54">
          <mxGeometry y="56" width="160" height="30" as="geometry" />
        </mxCell>
        <mxCell id="s1oTNmXMthimfNLyiVDR-58" value="prequesite" style="swimlane;fontStyle=0;childLayout=stackLayout;horizontal=1;startSize=26;horizontalStack=0;resizeParent=1;resizeParentMax=0;resizeLast=0;collapsible=1;marginBottom=0;align=center;fontSize=14;" vertex="1" parent="1">
          <mxGeometry x="390" y="1150" width="160" height="86" as="geometry" />
        </mxCell>
        <mxCell id="s1oTNmXMthimfNLyiVDR-59" value="course_id" style="text;strokeColor=none;fillColor=none;spacingLeft=4;spacingRight=4;overflow=hidden;rotatable=0;points=[[0,0.5],[1,0.5]];portConstraint=eastwest;fontSize=12;" vertex="1" parent="s1oTNmXMthimfNLyiVDR-58">
          <mxGeometry y="26" width="160" height="30" as="geometry" />
        </mxCell>
        <mxCell id="s1oTNmXMthimfNLyiVDR-60" value="prerequisites" style="text;strokeColor=none;fillColor=none;spacingLeft=4;spacingRight=4;overflow=hidden;rotatable=0;points=[[0,0.5],[1,0.5]];portConstraint=eastwest;fontSize=12;" vertex="1" parent="s1oTNmXMthimfNLyiVDR-58">
          <mxGeometry y="56" width="160" height="30" as="geometry" />
        </mxCell>
        <mxCell id="s1oTNmXMthimfNLyiVDR-62" style="edgeStyle=orthogonalEdgeStyle;rounded=0;orthogonalLoop=1;jettySize=auto;html=1;" edge="1" parent="1" source="s1oTNmXMthimfNLyiVDR-55" target="s1oTNmXMthimfNLyiVDR-59">
          <mxGeometry relative="1" as="geometry" />
        </mxCell>
        <mxCell id="s1oTNmXMthimfNLyiVDR-63" value="topic" style="swimlane;fontStyle=0;childLayout=stackLayout;horizontal=1;startSize=26;horizontalStack=0;resizeParent=1;resizeParentMax=0;resizeLast=0;collapsible=1;marginBottom=0;align=center;fontSize=14;" vertex="1" parent="1">
          <mxGeometry x="610" y="660" width="160" height="86" as="geometry" />
        </mxCell>
        <mxCell id="s1oTNmXMthimfNLyiVDR-64" value="course_id" style="text;strokeColor=none;fillColor=none;spacingLeft=4;spacingRight=4;overflow=hidden;rotatable=0;points=[[0,0.5],[1,0.5]];portConstraint=eastwest;fontSize=12;" vertex="1" parent="s1oTNmXMthimfNLyiVDR-63">
          <mxGeometry y="26" width="160" height="30" as="geometry" />
        </mxCell>
        <mxCell id="s1oTNmXMthimfNLyiVDR-65" value="topic" style="text;strokeColor=none;fillColor=none;spacingLeft=4;spacingRight=4;overflow=hidden;rotatable=0;points=[[0,0.5],[1,0.5]];portConstraint=eastwest;fontSize=12;" vertex="1" parent="s1oTNmXMthimfNLyiVDR-63">
          <mxGeometry y="56" width="160" height="30" as="geometry" />
        </mxCell>
        <mxCell id="s1oTNmXMthimfNLyiVDR-67" style="edgeStyle=orthogonalEdgeStyle;rounded=0;orthogonalLoop=1;jettySize=auto;html=1;" edge="1" parent="1" source="s1oTNmXMthimfNLyiVDR-65" target="s1oTNmXMthimfNLyiVDR-21">
          <mxGeometry relative="1" as="geometry" />
        </mxCell>
        <mxCell id="s1oTNmXMthimfNLyiVDR-68" value="topic" style="swimlane;fontStyle=0;childLayout=stackLayout;horizontal=1;startSize=26;horizontalStack=0;resizeParent=1;resizeParentMax=0;resizeLast=0;collapsible=1;marginBottom=0;align=center;fontSize=14;" vertex="1" parent="1">
          <mxGeometry x="600" y="896" width="160" height="86" as="geometry" />
        </mxCell>
        <mxCell id="s1oTNmXMthimfNLyiVDR-69" value="course_id" style="text;strokeColor=none;fillColor=none;spacingLeft=4;spacingRight=4;overflow=hidden;rotatable=0;points=[[0,0.5],[1,0.5]];portConstraint=eastwest;fontSize=12;" vertex="1" parent="s1oTNmXMthimfNLyiVDR-68">
          <mxGeometry y="26" width="160" height="30" as="geometry" />
        </mxCell>
        <mxCell id="s1oTNmXMthimfNLyiVDR-70" value="topic" style="text;strokeColor=none;fillColor=none;spacingLeft=4;spacingRight=4;overflow=hidden;rotatable=0;points=[[0,0.5],[1,0.5]];portConstraint=eastwest;fontSize=12;" vertex="1" parent="s1oTNmXMthimfNLyiVDR-68">
          <mxGeometry y="56" width="160" height="30" as="geometry" />
        </mxCell>
        <mxCell id="s1oTNmXMthimfNLyiVDR-72" style="edgeStyle=orthogonalEdgeStyle;rounded=0;orthogonalLoop=1;jettySize=auto;html=1;" edge="1" parent="1" source="s1oTNmXMthimfNLyiVDR-70" target="s1oTNmXMthimfNLyiVDR-42">
          <mxGeometry relative="1" as="geometry" />
        </mxCell>
        <mxCell id="s1oTNmXMthimfNLyiVDR-73" value="employee" style="swimlane;fontStyle=0;childLayout=stackLayout;horizontal=1;startSize=26;horizontalStack=0;resizeParent=1;resizeParentMax=0;resizeLast=0;collapsible=1;marginBottom=0;align=center;fontSize=14;" vertex="1" parent="1">
          <mxGeometry x="170" y="1330" width="160" height="86" as="geometry" />
        </mxCell>
        <mxCell id="s1oTNmXMthimfNLyiVDR-74" value="employee_id" style="text;strokeColor=none;fillColor=none;spacingLeft=4;spacingRight=4;overflow=hidden;rotatable=0;points=[[0,0.5],[1,0.5]];portConstraint=eastwest;fontSize=12;" vertex="1" parent="s1oTNmXMthimfNLyiVDR-73">
          <mxGeometry y="26" width="160" height="30" as="geometry" />
        </mxCell>
        <mxCell id="s1oTNmXMthimfNLyiVDR-75" value="employee_name" style="text;strokeColor=none;fillColor=none;spacingLeft=4;spacingRight=4;overflow=hidden;rotatable=0;points=[[0,0.5],[1,0.5]];portConstraint=eastwest;fontSize=12;" vertex="1" parent="s1oTNmXMthimfNLyiVDR-73">
          <mxGeometry y="56" width="160" height="30" as="geometry" />
        </mxCell>
        <mxCell id="s1oTNmXMthimfNLyiVDR-77" value="Figure 2-15b" style="text;html=1;resizable=0;autosize=1;align=center;verticalAlign=middle;points=[];fillColor=none;strokeColor=none;rounded=0;" vertex="1" parent="1">
          <mxGeometry x="290" y="1300" width="90" height="20" as="geometry" />
        </mxCell>
        <mxCell id="s1oTNmXMthimfNLyiVDR-78" value="skill" style="swimlane;fontStyle=0;childLayout=stackLayout;horizontal=1;startSize=26;horizontalStack=0;resizeParent=1;resizeParentMax=0;resizeLast=0;collapsible=1;marginBottom=0;align=center;fontSize=14;" vertex="1" parent="1">
          <mxGeometry x="390" y="1330" width="160" height="176" as="geometry" />
        </mxCell>
        <mxCell id="s1oTNmXMthimfNLyiVDR-79" value="employee_id" style="text;strokeColor=none;fillColor=none;spacingLeft=4;spacingRight=4;overflow=hidden;rotatable=0;points=[[0,0.5],[1,0.5]];portConstraint=eastwest;fontSize=12;" vertex="1" parent="s1oTNmXMthimfNLyiVDR-78">
          <mxGeometry y="26" width="160" height="30" as="geometry" />
        </mxCell>
        <mxCell id="s1oTNmXMthimfNLyiVDR-80" value="skill" style="text;strokeColor=none;fillColor=none;spacingLeft=4;spacingRight=4;overflow=hidden;rotatable=0;points=[[0,0.5],[1,0.5]];portConstraint=eastwest;fontSize=12;" vertex="1" parent="s1oTNmXMthimfNLyiVDR-78">
          <mxGeometry y="56" width="160" height="30" as="geometry" />
        </mxCell>
        <mxCell id="s1oTNmXMthimfNLyiVDR-81" value="skill_code&#xa;" style="text;strokeColor=none;fillColor=none;spacingLeft=4;spacingRight=4;overflow=hidden;rotatable=0;points=[[0,0.5],[1,0.5]];portConstraint=eastwest;fontSize=12;" vertex="1" parent="s1oTNmXMthimfNLyiVDR-78">
          <mxGeometry y="86" width="160" height="30" as="geometry" />
        </mxCell>
        <mxCell id="s1oTNmXMthimfNLyiVDR-83" value="skill_title" style="text;strokeColor=none;fillColor=none;spacingLeft=4;spacingRight=4;overflow=hidden;rotatable=0;points=[[0,0.5],[1,0.5]];portConstraint=eastwest;fontSize=12;" vertex="1" parent="s1oTNmXMthimfNLyiVDR-78">
          <mxGeometry y="116" width="160" height="30" as="geometry" />
        </mxCell>
        <mxCell id="s1oTNmXMthimfNLyiVDR-84" value="skill_type" style="text;strokeColor=none;fillColor=none;spacingLeft=4;spacingRight=4;overflow=hidden;rotatable=0;points=[[0,0.5],[1,0.5]];portConstraint=eastwest;fontSize=12;" vertex="1" parent="s1oTNmXMthimfNLyiVDR-78">
          <mxGeometry y="146" width="160" height="30" as="geometry" />
        </mxCell>
        <mxCell id="s1oTNmXMthimfNLyiVDR-82" style="edgeStyle=orthogonalEdgeStyle;rounded=0;orthogonalLoop=1;jettySize=auto;html=1;" edge="1" parent="1" source="s1oTNmXMthimfNLyiVDR-74" target="s1oTNmXMthimfNLyiVDR-79">
          <mxGeometry relative="1" as="geometry" />
        </mxCell>
        <mxCell id="s1oTNmXMthimfNLyiVDR-85" value="Figure 2-16b" style="text;html=1;resizable=0;autosize=1;align=center;verticalAlign=middle;points=[];fillColor=none;strokeColor=none;rounded=0;" vertex="1" parent="1">
          <mxGeometry x="245" y="1580" width="90" height="20" as="geometry" />
        </mxCell>
        <mxCell id="s1oTNmXMthimfNLyiVDR-86" value="movie" style="swimlane;fontStyle=0;childLayout=stackLayout;horizontal=1;startSize=26;horizontalStack=0;resizeParent=1;resizeParentMax=0;resizeLast=0;collapsible=1;marginBottom=0;align=center;fontSize=14;" vertex="1" parent="1">
          <mxGeometry x="160" y="1630" width="160" height="56" as="geometry" />
        </mxCell>
        <mxCell id="s1oTNmXMthimfNLyiVDR-87" value="movie_name: char(50)" style="text;strokeColor=none;fillColor=none;spacingLeft=4;spacingRight=4;overflow=hidden;rotatable=0;points=[[0,0.5],[1,0.5]];portConstraint=eastwest;fontSize=12;" vertex="1" parent="s1oTNmXMthimfNLyiVDR-86">
          <mxGeometry y="26" width="160" height="30" as="geometry" />
        </mxCell>
        <mxCell id="s1oTNmXMthimfNLyiVDR-90" value="DVD" style="swimlane;fontStyle=0;childLayout=stackLayout;horizontal=1;startSize=26;horizontalStack=0;resizeParent=1;resizeParentMax=0;resizeLast=0;collapsible=1;marginBottom=0;align=center;fontSize=14;" vertex="1" parent="1">
          <mxGeometry x="430" y="1630" width="160" height="86" as="geometry" />
        </mxCell>
        <mxCell id="s1oTNmXMthimfNLyiVDR-91" value="movie_name:char(50)" style="text;strokeColor=none;fillColor=none;spacingLeft=4;spacingRight=4;overflow=hidden;rotatable=0;points=[[0,0.5],[1,0.5]];portConstraint=eastwest;fontSize=12;" vertex="1" parent="s1oTNmXMthimfNLyiVDR-90">
          <mxGeometry y="26" width="160" height="30" as="geometry" />
        </mxCell>
        <mxCell id="s1oTNmXMthimfNLyiVDR-92" value="copy_number: NULL" style="text;strokeColor=none;fillColor=none;spacingLeft=4;spacingRight=4;overflow=hidden;rotatable=0;points=[[0,0.5],[1,0.5]];portConstraint=eastwest;fontSize=12;" vertex="1" parent="s1oTNmXMthimfNLyiVDR-90">
          <mxGeometry y="56" width="160" height="30" as="geometry" />
        </mxCell>
        <mxCell id="s1oTNmXMthimfNLyiVDR-95" style="edgeStyle=orthogonalEdgeStyle;rounded=0;orthogonalLoop=1;jettySize=auto;html=1;" edge="1" parent="1" source="s1oTNmXMthimfNLyiVDR-87" target="s1oTNmXMthimfNLyiVDR-91">
          <mxGeometry relative="1" as="geometry" />
        </mxCell>
        <mxCell id="s1oTNmXMthimfNLyiVDR-96" value="" style="shape=image;imageAspect=0;aspect=fixed;verticalLabelPosition=bottom;verticalAlign=top;image=data:image/png,iVBORw0KGgoAAAANSUhEUgAABioAAAFaCAYAAACAIwVtAAAACXBIWXMAAA7EAAAOxAGVKw4bAAAgAElEQVR4nOzdd5wcdf3H8ffMluvJpfdGAklISCW0UFVUWoygAhJApfkTQRBRBEXBQhUQFBCkiFJVivQWAqEESEIqSUhPLr1d3ds2M78/Zrbd7dVcspfL6/l4LHe7OzM7ezdDbr/v+Xy+huM4jgAAAAAAAAAAAHLAzPUOAAAAAAAAAACA/RdBBQAAAAAAAAAAyBmCCgAAAAAAAAAAkDMEFQAAAAAAAAAAIGcIKgAAAAAAAAAAQM4QVAAAAAAAAAAAgJwhqAAAAAAAAAAAADlDUAEAAAAAAAAAAHKGoAIAAAAAAAAAAOQMQQUAAAAAAAAAAMgZggoAAAAAAAAAAJAzBBUAAAAAAAAAACBnCCoAAAAAAAAAAEDOEFQAAAAAAAAAAICcIagAAAAAAAAAAAA5Q1ABAAAAAAAAAAByhqACAAAAAAAAAADkDEEFAAAAAAAAAADIGYIKAAAAAAAAAACQMwQVAAAAAAAAAAAgZwgqAAAAAAAAAABAzhBUAAAAAAAAAACAnCGoAAAAAAAAAAAAOUNQAQAAAAAAAAAAcoagAgAAAAAAAAAA5AxBBQAAAAAAAAAAyBmCCgAAAAAAAAAAkDMEFQAAAAAAAAAAIGcIKgAAAAAAAAAAQM4QVAAAAAAAAAAAgJwhqAAAAAAAAAAAADlDUAEAAAAAAAAAAHLGn+sdAID9xbDBQ3K9CwAAAAAAAGiGFWtW53oX9itUVAAAAAAAAAAAgJyhogIA9rJXFq3M9S4AAAAAAAAgi5NHD831LuyXqKgAAAAAAAAAAAA5Q1ABAAAAAAAAAAByhqACAAAAAAAAAADkDEEFAAAAAAAAAADIGYIKAAAAAAAAAACQMwQVAAAAAAAAAAAgZwgqAAAAAAAAAABAzhBUAAAAAAAAAACAnCGoAAAAAAAAAAAAOUNQAQAAAAAAAAAAcoagAgAAAAAAAAAA5AxBBQAAAAAAAAAAyBmCCgAAAAAAAAAAkDMEFQAAAAAAAAAAIGcIKgAAAAAAAAAAQM4QVAAAAAAAAAAAgJwhqAAAAAAAAAAAADlDUAEAAAAAAAAAAHKGoAIAAAAAAAAAAOQMQQUAAAAA7MMcx8n1LgAAAAC7haACAAAAAPZhhmHkehcAAACA3UJQAQAAAAAAAAAAcsaf6x0AAAAA2ita6mBfQVUFAAAA9mUEFQAAANjvEUgAAAAAQO4QVAAAAGC/1JxwoiUBBmEH2lJjFRLZnst2/LVllQXHNzoyKpIAAMg9ggoAAADsV5oacE08z8Ascqmx489xHBmGkfwqNR1etHYglvMA+4PEcU5gAQBA7hBUAAAAAB7HcTIGZusN0hJiIEeSA6iGkQwppMzQImO5OtJDjYa0RZUR5wbam5ZUJzV0/BJgAACw5xFUAAAAoENr6sr0ehUUde6nP+4YkuFITpYxKwZo0ZaSlRKJw899UHIcGaaZsZzjhReSGq2yyBZWNPdK8kYDPKCdak6wln7s1z0Psp1XAABgzyCoAAAAwH4pEVI4juOGEOnBhBdKJL53GXLs9IoLR5LhfQXaWuLYMuoHD1Zchml6oZlXYZF4voGB1qZkG9BtqA1a3VCvofWB9iD9yMw4H+pUJ0n1g75sAR2BBQAAewZBBQAAADqsbIOntm2nnksLKxwlQgsvxLBtOUoPLxofjE1sF2itBq/sTgycev8xDEOGbUsyZJqmJEcyDJnuk+7zhiGZZsbgat2B14aqK7INzjppx3fGeZB4voGxWwIM5Fp6dVKyMqnOc8nv0+43VJ1EYAEAwJ5BUAEAAID9Rr2qCe9mO3YqoHBsL6jIrLJIr65IhhrAHpI+WbahtMFU00wFEYbcY9KQTNMn23DcJZNFP069Ada6YUXi8fTvM9qdpQV5yWWd+utmVhqlb1wS47nImUYqk7yAzzAMt8WaabrHvOqHFntqsnoAAJBCUAEAAIAOJ9tAbPqV4RlVFLajzWXrVLZqlVYsWaSyNasztpHt6vHk3T34HrD/GnfEUeo/5AD16tNPeQUF3mCqVxVhGamwQoZs73vbtL3qCkOm6S5j2pLSBlyzVVDUq55InBteBYWtxGOJcyG9ZVraOdCC1lHAntSsyiTvG9Mwk6VKpmOnBRdGKqwwjIyKOTNtjhgAANB2CCoAAADQodWdi8L2Wjqt+WKpHr7jNi38dFaudxHI8PE7byW/79yli04+c5qOP/Ub8vv87iCq6bV8MtyvpmnKNEw5Pp87uOqYMuWGF4btVmEobXA1vbIi4/tEWzTbTgYUoZoaVe7c6d33gonEsukhhwgl0P506tJVefn59SqTEueOZdjJlmqSKdP0yXFs93yxnWSVhbxAUGJibQAA9hSCCgAAAHQo2drYpIcUsVhUj9x5m155+nFJ0qlTTtOEiRM1atQoDR4yRN26dcvVrgOKx+PavGmz5s6Zo3nz5unjWbP05P336L1XX9L/Xfsbde/Tx62WMEz3a+LmM+Vz/MnAwpEjwzZlmoZkOzITbaS8Adf0agrbsiS5AcXmjWVaOn+eZs+coUWzP1H5zh25/HEAu61zl64aOW6Cxh05WaMmTlLnLl28oMENK9Krk0zTlmEaMuxE2zX3q2krGVZkm6OC8AIAgN1nOFzyAgB7xbDBQyRJryxameM9AYCOq6mQYvXypbrhRxepfOcOHTV5su68+88EE2jX4vG4nnj8cd34m99Kks74/sU6/pTTZBhuQOHz+2SaPvl8fpk+L7Dw+d3H/D4vyPDJkDe/RaJVlO22ikqEFLFYVI/eeZte9gI8SRo+YoQOP+IIjRs3LgfvHNh906e/rVkffaTt27YnHzv7/y7XCadMkT8QcIMK0/Q6PJnJ88X0+eTOR++dP6bhtolS5jwxdcMJwgoA6BhOHj1UkrTCawmLvYOgAgD2EoIKANjz6gYVtteexnEc1dRU6UdTT1L5jh26/obf6rzzz8/hngIts2zpUp1/7rnavm27Lrz6Wo2aOEmGYcrv98vn88n0e2GFacrn93uP+5PVFobhDbSmz1kh9zxZs2KZbrj0IpXv2KHhI0bojrvu1NBhw+T3U4CPjiEUCmn9unX66RVXatnSpeo3aIh+9Osb1KN3X6+qwvSCPp98pvvVkCHT75dpGvL5/G6lhTcpd8ak9lK9rwCAfRtBRW4wCxQAAAA6pPSJfG3H1r2/+43Kd+zQHXfdRUiBfc7wESM0/d131b1Hdz39wL2qrihXNBJWNBJWJBJWNBJRPBpVLBaVFYsrHo8rFosqHo8rHrdk27biVtydo8W2ZVvuY4s/m60rzzo9GeC98NKLGj5iBCEFOpTCwkINHzFCL7z0oq6/4bfasHa1rrvwPK3+YqmikYh7LkUjikWjisViisVisqy4rHhMtmXLsuKyLVu2bcnxzqGMqj0P14ECANB6BBUAAADY52UbLEpMDuw4jmbPfFfvv/Gqjpo8WVOmfiOHewq0XmFhoW6+5VZVVZTrmb/fr0g4rNraWkUjEcUiEUWjUcUiblgRi0ZlWZZs25IddwdZHUeyHTs50FpTU6Xbf/FTde/RXTNmztR5559PQIEOze/367zzz9eMmTMlSX+54VeqDde6gV40pngsKiselxV3wz7LstxQzwspbNuRrVRLQYIJAADaDkEFAAAA9ml1B4rS56VIVFP89cZfq3uP7rr/wQdytJdA2zj+Syfo1CmnaeGnH+uLRQsVCdcqUlurSCTiBhaJkCIx8BqPy7ItxeNx72pwxx14dWzd/4cbVL5zh26+5Vb1H9A/128N2Gv6D+ivO+66S1UV5Xr24QcUrg15lUlR9zyKRhWPxdybFatTUeHIESEFAABtjaACAAAAHUp6Ow5HjrZu2KDynTv0ox//WIWFhbnePWC3/ezqn0uSNqxZqUhtWGGvBVQ0GkkOskYjEXeANXlleFx23JJtxWXZcc2Z+a4+ePM1nTrlNB3/pRNy/I6AvW/K1G/oqMmT9cGbr2ntiuVuG7VwrXseRVNhRSyaCCqszLCigRZQdSv8AABA8xBUAAAAoMNIDg6lDRytW7lCkjRq1Kgc7hnQdhLVD8sXLXTnoYi6PfUTFRTxeMwdVPXmpkjMR2HbttcOSnrv9VckSX+8+eZcvhUgp+68+8+SpHdefF61oZCikYgi4bBiXuCXrE6KuWFfemWFrcx/bwAAwO6hASkAAAA6nEQ1hWM7WrFkkSRp8JAhOd4roO0cNXmyPvzgA0XCYW/g1JYk+R1bhmG4N9OQ6TNlmz4ZhqG4HPkcvwzD0Udvv6GjJk+mygj7tW7dumn4iBFas3yZouGIbNtW0LYlx5FlWcnlEueUz++TbZnuuWX6ZDu2TJmSF1QYhpGrtwIAwD6PigoAAADss7JOoJ1xs7Xks7mS3AEpoKOYdNgkSdL2LZsVjYTdq7/T+uvHYjH3KvC4JctKXBHuVlbs3LEtYxvA/uzwI45QTVWlamqqvAm13Qol27IUj8dk2ZZ37jhuKOjY7lwvaW2flKWigioLAABahooKAAAAdCzJ9k+SbdtaOPtjnTrltNzuE9DGBg0aLEmKRSKKRqOSd8W337Zl+kz5fD7FfTGZMZ8Cjl+2YcqwDNmGpVVLPpckHXLImBy+A6B9GDdunB6TtG3TJvkHBOQobbJsw5BhmjINU6ZpSgrI53MrmEzHlhxTjpEKKxzHoaoCAIBWIqgAAABAh5A+kamcxNWuOd4pYA+LxWKKRSJuWxrTLZj3+XyK+/3y+/2y4nFJjhzTDTIsw1BNdZUkadiBB+Zwz4H2YcLEiZKkLWXr1b1nL0mSIUOO48j0QgrDcMM/SbJ8pgzTlG37ZJqO5Egy3LZP6UEFgQUAAC1DUAEAAIAOxzEkKXs7DqAjsaxYcpJfy4rLME3F426bp1g8Lp/fL9PxSbY7AbAsQ443nwWAlHg8rmgkIhmGTMMN/aKmG0r4An7Zti3Dm5De9Pnk2LYc25Zh+JItoAgnAABoPYIKAAAAdBiZVRX0CEfHZ8UtxeNxmbGYYj6/HBny+f2Kx+Ly++Ky45biRkymYci97FtybM4LoC4rHlM0FpVh+mSaPsmQfAG3Ksnywj/DMGTbbusnx/sqb+J6x7Zl+HzJwMJhgm0AAFqEoAIAAAAdj+P1GOfKcXRwlmUpHovL5/PJsuLuY4Gg7OQEwG4Vhe2zZDqmZPvcwVUAGeJWXPFYTD7TJ5/fJ8Mw3Ps+nywr4FYsefPAOLY7qbZbd5GYz0JUVQAAsBsIKgAAALDPS6+ccL83uGoc+wU3jIjLsvyy4okrvi1ZcUtOwFbctuW3bVm2LdN2ZDu2HBFUAHXZlu0FE3754m4VkhUPyLLc88m2LNmmT7ZtJasqEhNoJyr4DIlKCgAAWomgAgAAAB2Hk5qXwpFkO+1nQPa6xbW69YtIxmNPH1ao0/sFm1z3krkhPbw2mvHY7BNKNLbU1+h6496u1OJK92fgM6Q1X++k3vlm1mVf3RzTlI9qkve/3S+gJw4ranDb88rjOnJGteJeHnTlsDzdekhBk+8Fbcux3J75tlc94Ti+ZFsay7aSffQd23Gft31M3QJkYduWLNs9j2zLluXzWjw5jhdMON655YbhiVAiPSgnnAAAoPWyf0oBAAAA9mGO0/4m0rYdKV7n9sT6WJPrxWxH/9kQq7duUz7ZGdf8Cju5fMSWHlsXbXD5k3oH9L1BweTyT5bF9PKm7PsXtR2dPzuksO0ue2CxqRsPzm96p9DmbDlyHMm2E1/TQgrHbX/mDqa6V39bluV+DyCDbdmy4paseDwVVsTdeV5sbzJ6x7GT55XtfZ+cD8lJtRtkfiQAAFqOoAIAAAAdipN2QWt7Hyx6aXNMFbHG9/HNrXHtbGKZbOpWYEjSw2saDiok6Y5DCjSkMPUR4f/mhVSV5bV/tySsBV6lht+Q/nloofJ9XEmcE45XMSFHjm15lRNeVVGi1ZPjyPauCndDixzvcxbXLa5V4LnyjNuzGxo/XhMumRuqt+78citjmfznU889UxZtcP3gc+X6ZGe80dd7Yn00ufwR71S17I2i3XIcR7blVlFYcUtOosWTYyfbPaUHf44jbz4kAADQFggqAAAA0CGkt+Co+7W9ithqcjD2qfXNG6xNF4o7etJbr9gnHdLJ/bN/WbWtD3Y0PAhbEjD06KGFyQ8J62sdXbO4NmOZObviujmthdX1I/I1sQsdZXPGCyCUfoW3JNuyvCu8nWRLtOT50A4rKvZ0xZGV9lzdp22lnos50iWf1cpq5P8dTtq2rPb9vxi0gPtviOWeR2mt02zLTv77kmgD5a2Q/Nre/60BAGBfQFABAACADiWjX3gO96MxffNTe9bYYGzYcvS8136pd56hQDPf0H83xlTp5RHf7BvQDwal5sF4qImqimO7+3XlsLzk/ftWRZPhRtR29L05oeRA8KQuPv1yeF62zbRIzHa0qdZWTXN6WjUgajvaFmn5AHyt5WhL2Ja9jw40JuaMd+SNwDvuXBSSN/DqPWd7rZ8c264/Ut9O7cmKo8bMq7B094pI0wuiQ3FDCEeOlaiicLz/LzgZc1U4SgUTqXmQHDlG+w/HAQBozwgqAAAAsE9qfECofV/helx3v/p5YcX0bXFtqs0+wP7K5piqvMDh7AFBNbe7UnqLp+8OCOrM/sHkH/7PlEWztnNK94dR+Tq4xF3DkXThnJAilqPffh7WIq/lU4Hptnzym62Lg8KWoz8tD2vi9CrlPV+hvq9Wqvh/Fer/SoUunRfS+lD2n8nZn9ToxJnVOvmDaknSrB1xfXlmtQqer1DPlytV8kK5Tv6gWgsrrKzrJ177pmVhjXijUoUvVKj3K5XKf75CJ31QrTe3NH0Vf7viDaQ6jtz2To6detj9LrGI9/i+06pmT1UcNcf1n4cbPAbRUXlzusg9fxLzYjuJVmp1Kij2lco9AAD2FQQVAAAA6Hja+biRz3ADBMltO/PMhuyD40+VpR4/d2CgWdteWW3p3e1uutEjaOgrPf3qU2Dq+B5ue6YaS3q6rPHB3TyfoX8eWpis4FhabeucT0O6Na3l0y2jCzS8xNesfaprdY2l8W9X6WcLw5pbbmX8ujaEHd27KqqRb1bqhY31fy7v74jrrW1xvbMtruc3RnXse9Wavi2uxJBytSW9uiWuidOr6s1TIEllIVsTplfp2sVhLatODUTHHOm1LXF99YMa/XRBbb312it3UDU1gColKokcZUQSGS2P2vcJsqcrjpqj2pIun99+j4OKmKOd0dYHKeVRu9FqlVDcrXKK2u37WNkTEsFEck4KpdqnuadO5oFmGO21dg8AgH0LzWQBAADQYbXna8enDQzqtuXuwP/j66P6ybDMFkrVcUcveYOwI0tMjS9t3p/uj6yNJt/1mf0DyYqHs/sHNH2bG2A8tDaqC4c03rJpQhe/fj0iX9cvCUty20klfLmHXz8eGmxo1UbVxB2d9EFNMiToHjQ0bWBQh3XxaWWNrf9siGp+ha0aS/r2xzX64LhiTepa/71Hbem82SF1DRq6bGieRpSY+qLa1i3LwqqIu8HDj+eHNPO4kuQ6juPo9I9rtKTKfe2xnU2dNzCofgWmPt5p6d5VEUVs6c4VEfXMM3TN8PxWvcdccNLmp0gd94Y3vtp+z4Nsjuvu13vb49oQdpIVR30K6l9jV7fi6L5VEe1uF6gz+gb06paYQpb0/KaY/rcxpil9mxcSNuW2L8J6Y0vjE3UnfLt/QBfXOUc31tr6w7Kw/rMhpq0R94129ktT+wZ07fB8HVQnONxYa+v82SFJ0uFdffr9qAI9uyGq6xaHtbTaVu88Q5tO6ZxcfnPY1i1fRPTchqjW1qZ+kId0MnX2gKB+MjRPhf6OOyifzPvkZMzjkn7+JNo+pf/b4ngBhuM47bffIAAA+wCCCgAAAHRI7X1wdkxnn0Z3MrWo0tanuywtr7Z0YHFqoPF/m2JKdIQ6d2DzQgHLcfSPdalqiXMGpNY7o19Al86rVdSRZu209HmlpYM7NV4R8cvheXpxc0yf7kpVJnT2S49MLGz1VcR/Wh5JhhQDCgy9fUxxxvv+2YF5+vbHNXppc1wxR7psfq1mnVBSbzu2pBK/oblfKlGv/NQg9uhOPk35qEaS9MlOS3HbSYY1j61LvZdv9g3o6cMKFfCeO7O/G+wc8261Yo50w5KwzhkQ1IDCfb8Ivd4k87ncmWZIVBzdtjySrDiqG+RJ9SuO7lu1+/NKDCky9duR+fr5Ijegu2x+SF/u2UlFbTBA/3mlrbe2NS+oGFeaeW6+sy2mqR/VJOeeSaiIS/9YF9MzZTE9cmihzuyfOudrLSf5evk+6Z4VEV3eQLXQG1ti+vbH9bcvSQsrbS1cHNbfV0f1yuSiVldStX9OlrsNnzPt/d8YAAD2Nfv+X90AAADYr+3Lg0XpAcSTdVrcJHrvG0q1iWrKG1viKvOuhB5SaOqIbqnrkroETX29d+r+w01Mqi1JftPQxDoDpoMKTfXJb/2g7T/Wpl735tEFGSGFJOX7DD04oVB53ieVj3dZWlKZfb6J64bnZ4QUknRKb7+C3u5FHWl12jwDN3rVIQFD+tv4gmRIkXB4V78uGuL+rMO2MkKffVadKgsnbfC1PZuWdm48nmUeitZWHDXHlcPydEgn97haV+vot95xs7uO7ObTtAGBrLe+dc6pESWp43pTra0pH6ZChCl9/HpgfIEenVio7/Rzqz1qbWnapyHN3J49CNkUdvTzRW5IkW9KE0t9GlbsvsbCCkvfSAtBDi4x9ZsReXpyUqGuGpan3nnuvq0K2fr6BzUq342WU+1deqjn3uoHfe6dXOwdAAAdG0EFAAAA9mnpV/bva6HFd/sHk51CnkgbjN0VtfW61yLmmG4+DWrmVf0Pr02vpqjfrubstKutH1sXVayJ/vPTt8b0t9WZg8QLKm39fmnrBm5DcScZHJT4lRxkrat3vqlTeqeeW9xAUHFY1/pXdpuGoX5pbYISY6oVMUervNc+uJMpU9KOiF3vdmRam6n3Ghj0bXe8X2PdKhe3TY1d77F9YZA1UXEkKVlxlK41FUfN5TcN3T++MHlu3rUiogWNTM7eXBcPydM/JxXVu50zIKgt4dQv5ZIhQV0wOFVBcu3isBJv/7bR+XrhyGJdNCRP5w8K6unDi/SnQ9wWZXFH+tG8UNbXnlNuKWxLlw8Nqvy0zpr9pZJkW7SfzK9V2PtZfrmHXx+fUKLfHlygswYEdfuYAs06oURDi9zfxZqQrZu/2P3KlXatkX9HnMRcFen3AQBAmyCoAAAAAHKkf6Gp47u7A+PLqm3N3eUOjD+3MaaoN/41rZmDsNsjtv6XNo/E51W2rlxQm3GbntZ2ZlvU0YubGp6ouDLm6PtzQskx7aK0TOAPyyKavavlg/hLq1ITZw8t8iVbMmWTfkV5Yk6Juro0MHuyL8vDn6eFHfMrbHV/uTLr7dzZqYHeNTUd7MrxfWxQta0rjlriqG5+XTjY3W7ckS75LLRHBqWXVVk665MaJY7Or/b06y9jC5LPrw3Zycqe8Z19uurA+i2wrhyWlwx1FlXaer+BgG1qn4D+PLZQeWknyLqQrXe85f2G9NDEQhXXaXM1qNDUbaNT87U8srYDVBq1kJMl1M1aaQEAAFqNoAIAAADIoWkDU5UDT3iDsYne+0FD+lYDVQd1/WtdNBluSNKzG2O6a0Uk4/ZgnXZPDzXS/uny+SGt89pIlQYMfXJCSbI9TdxxJ7IOWy0boKtNG/cPNvFJJC8txAi18HWyqY6nthE0pN55RtO33WhxlQuJVjUdRVtXHLXULaPz1cPrIzZrp6UHVrftAH151NZpH9aowssVRpWY+vfhRRkB3vzyVLh3ZDefdkadelVAO6OOju7WdCXQtcPrhxzp1Uon9vQ3+LP8Rt9A8mexNeJoe6SDhXh1ZDuPEu2gvHvJCqbWztcDAAAyMZk2AAAAkENn9Avq0nlu65Uny6L62UF5mr7VHWg8tU9AXZoa0fekt30KGNmrCiTJdpQMNF7fEteGWjujVZIkvbAxpn+sS13BfteYAh3cyaf7xxcmJ6peUmXr2sVh3TGmQM01ojj1OmtCjQ90rqpJDaCObIPJew9K28a4Up8+zjJBN9qXRMXRO9vjyYqjCV38rao4ao0uQVN/GlOg87wqm2sWhzW1b/OCw6ZYjqPvfBLScq9qp1eeoZcnF6tTnSqhxVWp8+DeVVHdu6rpsCTbuWVIOqRz/fNoSdr2G5sk2zQMHVhsattOy1vP1jF5XPcIAADaDn9ZAAAAADnUOWDotD7u4OfGsKNL59Um28BMyzLPRDaf7oxrYaU7OGlKWvP1TqqdWpr1VvWNzurqDYZaypzcWpK2RWxd/Fmq/dFJvfw6f5A7GHxan4DO6p/ap7tWRDRjW8Pto+rqlmdmXJXd0MS/YcvRK5tTz40s2f2PLQMKDCXm3V5SZSkUz156sKnW1gsbY3phY6xN5iXIhY5UVdFWFUetde7AoE7w2rOVxxz9dEFtm2z3pwtq9aYXSBaY0v+OLMpazZBeCVTsa14lUNdg/ZSyV56h/CzpZW3aIZ5ltQxtXeUEAACQjqACAAAAyLFpaT32n/XmmSgNGDq5d/MGYdOrKU7o4Vffgob/zA+ahr6dFjY8vDaa0WP9ks9qtTXi3u/slx4YX5ix/j1jC9TdG9F0JH1/Tq2qYs0ftEyEMpJ03eJa1WYZ8Lx5WVjbvEvm+xcYGle6+xUVpmHoKz3dAeequHTrF9knBL9iQa2mzqrR1Fk1GXNUPLQmosvmhZK3eBMTkaNtnNEvmAyYniyLanPYblXF0e64b3xBchD/ibKY3tza/HAum7+vjujulak5Nv45qVCHdc3e7OCg4tSx/6MD8rTplM5N3m4eXb/Kyd/Ajyl9Lpi9XeXUHjl1ZprvSKEfAADtHUEFAAAAkGMn9farW53Lmb/TL5Ax6W1Dai1HT6b17z+nGVUY6cHIyhpb73qVDeWLaSoAACAASURBVP9cF9VzaRNy/2lMgfrXucq7e56pu9Mm+10Tciftbq7rRuSpxBuTnbnD0okzq/XK5pi2R2x9vDOuy+aFdMPSSHL53x9coEAjk263xPUj8pWYJ/iGpRFdPj+kubviqoo5+rzS0g/mhPTMBvf9DysydUqf1ODxa1vi+suqaPLGBeV7R1tUHO2u4SU+XZM2v0N6W7SWmrk9rkvnpc6Xm0fn64x+DbevOiitXdqc8oYrfBZWWMlKoI21zZ8/Ij1weH1LrMHQcc6uuNZ6c9YU+dwKpY6OSbIBANi7CCoAAACAHAuYhr5Tp4VNc3vv/3dDLDkZb54pnd7IoGfC5G4+DUobaHxoTVRlIVuXzUu1fPpqT78uGFx/8l1JOntAUKf1Tg3iP7Q2qpc2NW/w9oAin56cVKRE0ccHOy2d8mGNerxcqSNmVOsvaT34fzosL9l2qi1M6urXPWMLkhM037MyqonvVKvTixUa9VaVHvEqU/rkG3p1cpF8TJLbLuxuxVFb+OXwfA0r2r2Pz2tDts6YVZOcX+PCwUH9/KD8RtcZX+pLVjC9vS2etdVaKO5oykduFdB3Pq5RoAW7OaLETL6virh049L6lUZR29EvF6ceP7V3IGMCaaqNAABAWyCoAAAAANqB9GBiUIGho7s1r7XKw2tSA/un9g6oc6DpwXXDMHRO2uv9pyymc2eHkoFHiV96cEJhA2u77htfqM5p3WoumhvS9kjzruQ+pU9As04o0dd7+bN+IBlebOqpwwr1pxZM1N1cPzwgT28cXaQJWdpJBQzposFBzTq+RMOKO2Zrm33R7lQctZV8n6F7x7X+eAzFHU35sDrZ0qw0YGhsZ5/+tiqS9fbImkjyda9Nq+Y45cMa3bMiouXVlipi7jwvJ75fnWzbdM7AoHq0YJJr0zB006hUWHL78ogunBPShzvi2hGx9caWmE7+oCZjPo3fjMwMV6g2AgAAbSF7I0wAAAAAbeqm0QW6KUvv+ISjuvnlnF7a6DZqp9Z/fvqxxa3anz+MKtAfRrV+4LVfganyKY3vb2PGdPbp1cnF2h6xNbfc0vaooxK/oeHFpg5qpP/9+pM6N7nt5V/r1OjzX+kZ0JwvBbS6xtLnlbaq4o4GF5oaUWKqtIE5D/59eJEsx1HXFytkSHt1kHx/l6g4um91KpRrbsVRWzqxV0Bn9w/oybKWt35aHbK1oDIV5JXHHF02v+GWaaUBQ9/3KpquGJan2bssPVEWU8iSLl9QKy2ov85x3X36ayvClG/1D+r6Sks3ei3XHlob1UNp894kBA3psUMLNbITIR4AAGh7BBUAAAAAcqZ7nqmv9spNofeQIp+GFDV/0PWdbXFVxqWv9+Jj1N42bWAwGVS0pOKord05pkCvbomrvAUTyO8uwzD0r0mFOqpbVH9cFtbGcOZrdwsaunJYnq4YlqeCVgZoNxxcoPGlPv3687AWVWZWRhmSTujh162j8zWxC8c+AADYM/grAwAAAACa8MLGmC6YG1KeKf1xVOPzCqDl9lTFUULsmw0/9+CEwiZbnSX0yje167Smq3rqGtXJ1+T+N8YwDF06NE8/OiCo+RWWVtfYsiUNK/JpeImp/CwBxdDilr3m1L5BTe0b1MpqS0urbFXEHXULGhrX2ade+Q2HiVQbAQCAtkBQAQAAAABNmLE9rv4Fhh4YX6TxpXyMQm4YhqFxpX6Na33m0aShxT4NbeEcLVQbAQCA3cVfEQAAAADQhBtG5uvOPTC5N7Cvo9oIAAC0hdw0gwUAAACAfUinAO1sgGwS1UbvHVtMtREAAGg1/ooAAAAAAACtQrURAABoC1RUAAAAAACAVqHaCAAAtAWCCgAAAAAAAAAAkDMEFQAAAAAAAAAAIGcIKgAAAAAAAAAAQM4QVAAAAAAAAAAAgJwhqAAAAAAAAAAAADnjz/UOAAAAAJCuW1yrW7+IZDz29GGFOr1fsMl1L5kb0sNroxmPzT6hRGNLfcn7+c+Xy3Lc7x+fVKjv9A9mXd+Q9P5xxTqsa8MfFZ5YH9X5s0OSpImlPs06oaTJfQQAAACAhlBRAQAAALQDtiPF69yeWB9rcr2Y7eg/G2L11q3LSnuu7tO2Us/FHOmSz2plOVk24nHStmU1vBgAAAAANAsVFQAAAEA79dLmmCpijjoHjAaXeXNrXDtjbZsWzKuwdPeKiK48ML9NtwskvLElplM+rMl47EcHBPXnsYVNrpte0ZPwp0MKdPmwvEbXu3x+SPetSlUePXVYoc5ooGJpY62tsW9Xqdw7twYXmpr/5RIV+rOfi9VxR+PertLakC1JmtTFp5nHFctnNHzuAgAAIIWKCgAAAKCditjSsxuijS7z1PrGn2+t6z8Pa7036Aq0NUf1K4ieKos1WsmT8NT6aL11m1orYjn617rMyqOH1jR87vQtMHXXmILksitqbP1mSbjB5a9eWKuVNbbijhQwpEcmFhJSAAAAtABBBQAAANDO9M1PDXA21v4pbDl6fpP7fO88Q40UXrRYtSVdPr+27TbYiIqYo61hW3YzBqkbsiNiK9zCPlSO42hbxFZNtl5Z2Ou2Rhy9tTXe6DK7orZe39L4Mtk8tzGmXXUqj17fEldZI2HcOQODOqNvIHn/zuURzd5V/7Xf3hrT31anQo9bRhdoeImv3nIAAABoGEEFAAAA0M4c192vfl5YMX1bXJtqsw+mvrI5pipv3PTsAUH52iCoOKNvQIXeGOvzm2L638am58lojbm74jr7kxp1ebFCpS9WqNcrlcp/vkInvFetJ9ZH5WQJLV7dHNOJM6t14sxqPbU+qojl6NeLa9XzpQp1f7lSRS9UaMhrlbpjeVgxu+Hw4dOdcZ0+q0ZFL1So58uVKv5fhQa9WqFrF9Wqso3baKFlnmiiQui5jTFFW/ErSq+eOKqre4Dbkv6xrvHXu398gXrluSeWJenCuSHF046tqpijH8wJJSs6vtzDrx8Pzd5OCgAAAA0jqAAAAADaGZ8hfXeAO9hpS3pmQ/aw4Kmy1OPnDgxkXaalhhSZ+u3I1NwUl80PtXnFwU3Lwjr0nWo9VRZLzgEguRN5z9ge1zmfhnTyhzWqqhMabAzbemtbXG9ti2tZta2vvF+t3y+LaJs3cm1LWhOyddXCsKZ9mjmHQcJtX4R1xIxqPbcxpvT8Z12to5u+iGjUW5X6vNJq0/eLxpUGDBV4n0yf2xhTbSOVMenH/ICC5iVza0O23t7mJnoDCwzdM7Yg+dzDa7KHYgnd80w9OCE1b8b8Clu3LY8k71+1sFbrat31O/vdlk9GG7R8ituONoftBgM323GrkKKNBHLZxLztRlpYfVT3dZvTogsAAKAlCCoAAACAdmjawNRV2Y9nucq8Ou7oJa/t08gSU+NL/W322lcOy9MhndyPCutqHf22kd78LfX31RFduzicvAL9Kz38uvOQfD06sVAXDAoq6I3xvrYlrvNmZw8bJOnO5WG9v8PS6X0DenhCgR47tFAn9Ur9DJ7ZENPbWzMDnpc2xfTzRWHZcucR+NEBQT0+qVB3jynQYV3cq+zLah195f1q7YwyP8feUuyXvuG1WKqKK3lc17U1bGu61xpqfGefRnVqXnulR9dGk8fb2QOCmtDFrxHF7vG9KmRrxvbGW0md1iegHwxKnY83LgnriypLr2+J6cG0So17xhVqQGHLPmLfvCycrBJaUmlpUYWlkz6oVv7zFerzSqUKX6jQlA+rtbrGDc82h22dP7tGxS+4VUgFz1fowNcr9fCaSIOt0xZVWPrJ/JD6vVKhPG+7+S9UqN8rFbpqQW1y243t18ZaW+d96lYh9XqlUoXPV2jC21V6sc7v6rJ5oeR6f18dqbfdhD+viCSXu3dlw8sBAID9B0EFAAAA0A6N6ezTaC8s+HSXpeXVmYOJ/9uUqgg4d2Dbtprxm4buH1+oxHXhd62IaEHF7lcZVMYc/Wxhat6Law7K05vHFOuKA/N1/qCg/j6xUC8dVZS8uv75TTG9tjn7oHVFXPrdwfn67xFF+v7gPJ07MKhXJhdrYmlq8PqDHal9jtmOrvJeO2BI7x5brL+OK9R3BwR12bA8fXBcsU73Bss3hR1d/3nbhTNoWvox3NC8LP/ZEJOVXL55FUSO4+iRNamB8HO8SqVExZLU+KTaCXeNKdBgL4QI29L354R04dxUkPbNvoFWnYeLK61kldA72+I6ckaVXtsST77PuCO9uDmuo2ZUa155XBOnV+mxdalz35Y70fcFc2t194r6A/6Pro1o/PQq3b0yqo1hJ2PS8Y1hR3esiOiwd6rrnd/p+/VZhaUJ06v0z/Uxhb3XjTrSZxWWpnxUo/tWpV53cJGZXO+OLPsjub+TO5aHk8uN7sx8HgAAgKACAAAAaLfSBz6frDN4+5RXZWEoc9C1rRzVza8LB7vbjTvSJZ+FGm2R0xwvbIqpwrt4/aBiU38YlV9vmRN7BXTRkNT7eWRt9kHkvvmGrjkor97j30yb/HhZVWrw9amymL6odkdZLx2apyO7ZVag+E1DfxlbIL+Xzjy2LqoQk2zvNV/t6VcPr5zmlc0x7cpS0fJUmXss+CSd1b95x/zb2+Ja67VmGt3J1CHeoPjZA1LHyX83xFTeRAVNScDQoxNT4d2HOy2VedvtmWfob+MLGl65ma5cUCufId04Ml//PqxQ1w7PS1YYbY44Ouydam0OO7psaFBPHVaoe8YWJMNMSfr15+GMVlBraixdMrdWicP4mG4+PTC+QP89vFA3jcrXEd5cHdujjs76pKbB/frRZyHtjDr6ife6940r0PDi1Ov+fGFt8ud37oBg8hxaUmVrfnn9gHPWTivZLmtwoaljuhFUAAAAggoAAACg3fpu/2ByYDR9kuFdUVuvb3FH/I/p5tOgFrabaa5bRucnB49n7bT0wOqmrzxvzKK0q7YvGByU2UAv/wsHpwKIxQ3MFzG+1Ce/WX/9AQWpn0X6pMufpQ2YTuri046IXe8WNN02WpLbgmheG1SRoHn8pqGzvPAg6rjhQbqykK33vQqZL/f0q09B84759GqJc9ICvWHFPk3y2n2FbenJsqYnjT+uh19XDKsfjj04vlA98trmHPzg+BL9emS+vtU/qD+MKtC1I1JhXsyR7hhToLvHFurM/kH9eGieph9TnAwGqi1pVU0qcHmyLDXx+PHd/ZpxbLEuGpKn0/sFdc3wfL13bLH65LsrL6lyz4FsquLSm0cX6y7vdX94QJ7ePbZYhb7U6y6odNftmW/qlN6pEDDb5OhPl6UeO29goE3m9AAAAPs+ggoAAACgnepfaOr47u6g37JqW3N3ueHEcxtTA5DT2rjtU7ouQVN/GpO6UvyaxWFtCbd+7oYlaRUOw4sbvor6oGIz+UFlebWteJYJg7sEsg9u+hoY80wPPM75NKTuL1dmvS2sTL2/NSHmqdibpg1ouP3TMxtS80w095jfFbX13EZ3O4aks/pntos6O+1+c9o/SdLhXTOP23xTGlvaNhUBZw0I1Jt349juqfs+SRcPyXzvPfJMHZK2TnpQMbHUp9sPydfth+Tr1tH59YLBgGmob35qSKC6gVzujH4BHdcjswKpV76po7qmHkuvXvrBoFSY82RZ5mTljuPo32khVFu3rQMAAPsuggoAAACgHZuW1os/MXj7lHf1d9CQvtWveb36W+vcgUGd4IUl5TFHP11Q28QaDatNGwgNNvJJxG+mAoeY4952V3VaG6euAUO985q+FTeUemCPOKyrXwcWuQfGu9vj2lCbGnRPHPOFvsz2Xo15Yn1MiSKByd18GlyUGQKc2T+Y/EA8p9zK2qYo3dawrcvmZR7/YVv63uzdb4smSWOzzNWQHsj1KTBUkOWY7BJMPRZLy9a+2iugqw7M11UH5muSFyrYjqN1IVvPlEV1/uwazWniPUtKTjRfV/rE4emds07u7VevPHef1tc6GXPFvL/D0saw+7Oa3NWnYY0ElgAAYP/ib3oRAAAAALlyRr+gLp1X67WniepnB+Vp+la3suLUPgF1aWzEv43cN75AY96qUtSRniiLKdDKlxxRYuqtbe73jVUrrA/ZyXBicKGZdXC2pQ4q9unDne6A6b8mFeqk3ns24EHrTBsY1G+WhGXLbRH00wPztbLa0qe73N/d1D4BFfubdzykV0lEbXcOiLo6Bwzt8g62h9ZGdHdpYYPbu/izkLZ5pUxFPqnGG3+fsT2uu1dG9ZMsbaFaonOWKiFDqccaCs4a+19AzHb0v00xPbshpgWVlr6osjNaojVHehCSrqHT0m8aOndgULcvdyfTfmJ9VEd7YWd626fzB1FNAQAAUqioAAAAANqxzgFDp/VxB9U3hh1dOq9WieuTpw3YO4Ptw0t8umZ4ahD2H+ua7uefzciS1NXT/9nQ8Db+uzH1XGLOiN11UNp2GruK/J1tMb2w0b1Fs7Scwp51zoD6FURPp80f0dy2T/PK4/osbY6RT3ZZumtFpN5tV1q5zuPrYopY2X/nj66N6IVN8eT9Zw4vypiL4ZpFtVpa1b7mNFlRbWnkm1X61schPVEW06JKW8V+Q4d38en8gQE9dmihujcQQuyu76eFEM9siClmO7IdJ3ne55vSt/dwNRgAANi3EFQAAAAA7Vx67/5nvUH80oChk/diVcAvh+drWNHufXw4qbdfiahi+ra4XtpUP6zYUGvrDu9KbEnJkGZ3fbVnalD5zysi2p5l4uBFFZZOnFmjqbNqdMOSsIJZJuvGnjW02KcjvXkg5pRbWlpl6SnvKvyeeYZO7Nm8pgDp1RQ+uQPjDd0SdsYcPZ/lmFwXsvWT+alqjO8NDOrk3gHdP65QnbzdCdvSebNDWedTyZUL5oS00puz4ms9/ZpxTLG2ndpJs04o0aOHFuncgUE1szilxQ7u5NPhXsuoHVFHb26N693tcW2JuD+fb/QJqHQvVIMBAIB9B38ZAAAAAO3cSb396lbnyufv9Asoby/OoZDvM3TvuIKmF2zEkCKffnhAKnQ5fVaNbv0irMWVljbW2nq6LKrJM6qSPexHlpj6Xhu1h5nYxa8pfdxR5e1RR5PeqdazG6LaVGtre8TWv8ui+voH1clqlSt2s40PWi89mLtucTg5wflZ/QPyNyM8ilhOxmTcjx9WqNqppQ3eTk2rjKg7qbbjOPr+nJAqvWKKPvmG7hyTL8md7P7W0alz4tNdlm5aFlF7UB619Z43N0TQkP57RJGO6+HPmFDbdhzVNFBB0hZ+MDj1e3xyfTSjMuY82j4BAIA6CCoAAACAdi5gGvpOnTYpzW2B05ZO7BXQ2f13r8Lh9kMKktUNMUf6xaKwRr9VpX6vVuqsT0JaW+sOnPbLN/Tfw4uU34ZhzEMTCnVIJ/cj0JqQrTM+Dqnvq5Xq8XKlvvNJSBu8gOTqA/MYSM2h7/QPKDFdw7NpbcDSA4zGPL8ppp1eS6dinzSliaqcc9K2+9bWuNamzZ9yz8qopm9LtXz62/jCjEqAi4cEdXz3VNDxu6Vhzd2VWj5XatK6UPnN7PNYvLElrqq0XW2LCcHTndU/qALvdZ/fGEu2feqVZ+hrvZguEwAAZCKoAAAAAPYB6cHEoAJDR3fzNbL0nnPnmAKVZpn0t7nyfYZePqpIt47OV6+8+tvJM6UfDApq9pdKNLJT277H7nmm3j+uRFcMy1NRlk2PLDH1r0MLdeshu1c5gt3TPc/U1+sMZB9UbGpS15a3fTq9X6DJydi/0TegEm/TjqRH1rhVEcuqLF2zKNXyadqAQL1WZIZh6O8TClToHU8xx20B1dBcF3tLvwJTPb3zK2RJ35sd0rIqS6G4o1U1lu5YHta3P67JWGdhpa1wG+53p4ChM7yAtdpyW0BJbjDkM2irBgAAMnEZAwAAANAO3DS6QDeNbniA/Khufjmnlza6jdqpDT8f+2bDzz04oVAPTihseicl9co3teu0zs1atiF+09DVB+XrqgPzNK/c0tqQrYgt9c43dFgXvwobaJx/weA8XTC48ZZM5wwM6pxGqk06BQzdOaZAN4/K1ye7LG0K2yryGTqw2NSwYjOjNQ5yZ9rAoF7cnLrcv7nVFOtCtt7emlrvu81Yr8Bn6Jt9A3rMmyT+kbVRXTciT+fNDqnWK67onWfoz2Ozn59Di3363cH5umphWJK0uMrWdYvDun1MbgOvqw7M0y8Wufv0RFlMT5TVn3+je9DQdi9AmPJRjX44JKj7xjfv/wXN8f1BQf1rfebrnk+1EgAAyIKgAgAAAEBOmIahCV38mtBl7792ns/QMd075sehjpC1TOkTUCe/knNDnDOweS3HHl0bVaJxU888Q19p5uTb0wYEk0HFulpHF82t1Se7Uv2T7htfoK6NTP58xbA8PVMW08feOneuiGhK34COzeEx9vOD8mU50i3Lwqqo041qQqlPN450n586q0Z7qv7jhB5+DS40tcZrpzWus09jOuemGgwAALRvHfMvcwAAAABAu/W1XoFGK4TyfYYqpjReQfTq5OJ6j10/Ml/Xj8xv8f6cmGV/Hj20+eubhqFZJ5S0+HX/OalI/5zU8PNjS31NVlJl+zkk/HJ4vn58QJ4WVFraUGurf4GpkSWmuqSFLhtO6qSPd8XVM8/UIV67tab2S2p+JZaVNvfFec0MnAAAwP6HoAIAAAAAOgDDMDpENQXaVknA0ORuDX/071NgamrBnmnH9MrmuNbXukFFnimd10hbNgAAsH8jqAAAAAAAAG1iZbUlv2loW8TWLxenJiP/7oCguuU13D4LAADs3wgq9oD3Z87U9b/6tSTp8MMP10233qJdO3fpp1dckVzm3vvvU0Fh42Wy27dv17Szv6toNKqePXvoH//6l/LyGp88MJeeeeppvfrKK5Kko485WhdcdNEef81XXnpZO3bskCQddfRkDR06dI+/Zlu45uqfa8uWLZKky6/4icZPmNCs9crKyvTO29MlScXFxfrmGafvsX3cU+bMnq3PF38uSRo6bKiOmjy5Reu39mcHAADQ0TlO5kwDhgwZRpaBYaousAfd/EVEf18TzXisyCf97uCWt+QCAAD7D4KKNlZVVaVf/vwX2rRpk0zT1F/vv0+SFIlENPO995LLxeJxFTSxre7du+tLX/6SHrj/b1q3dq3+dNvtuvZX1zV7X5YuXao3Xnst7RFDpmnKMAyVlnbWsAMP1PgJExQMtk357cqVK5PvsUePHm2yzaY88Le/adHChZKkW26/bZ8JKj755BOtW7tWkvTdaec0e70vln2hG37zG0lSv3799smg4o3X39BDDz4oSTr9jDNaHFS09mcHAACwPzO8dML9SlKBvadH0NAzhxeqX8G+X01h0FsNAIA9hqCijd16083atGmTJOlb3/m2Ro4cuVvbu/Syy/TvZ57Rrp279OjDD+uU007V2LFjm7XusiVLdfddf250mdIuXfTTn12l757Tfgd8a2pqNOOdd3TAAQdo5MEH53p3sBds2bxZb77xhqaefrqKixueHBAAAACSDMkwzPqDqIZkGKnBVQZZsTf86ICgjurqU8iSDu5kamKpX50C+9CxV6cySU5DizkZXwEAwO4hqGhDGzZs0L+feUaS+yHgwosv3u1tFhUV6Zxp0/SXu++Rbdu660936JHH/rHb200o37VL11/3KxUVFekbU6e22Xbbyq+uvVbP/ue/ikajuuueu+sFFSd+9avJx4YMGZKLXdyr+vbrq2+feaYkqWvXLjnem9YZN25c8j1MPHRixnPhcFjnnHmWFixYIMdx9LWTTiKoAAC0iZ07duZ6F4A9wlD9AKLBqonkcgysYs8ZX+rX+NJ9eKihkUCPUAIAgD1nH/7rof158G8PKB6PS5KOPe44HXDAAW2y3WnnnacH7v+botGoZr73nubPm6ex48a1aBvFxcV67c035chReXm5Xn/1Vd3313tlWZYk6Z//eKxdBhXzP5unaDTa4POXXvbjvbg3uTdixAjddMvNud6N3XLSKSfrpFNOzvpcNBrV/Pnz9/IeAQA6usOP/7I+nPF2rncDaFPz5s2TJAXzEn3/3fIJwzCyxxDe2Ktp0voJ2B12E2GF4zhULwEA0AoEFW0kHA7r2f/+J3l/ytRvNLmOFY/ro48+0prVq1VUVKwxY8do6LBh9Zbr3r27jjzqKL07Y4Yk6fF//qvFQYVhGOrdp7ckqU+fPho5cqR27dylx//1L0nSmtWrG9zHOXPmaNXKVbIdW71799HhRxyuoqKiFr2+5P7BtnTJEq1du1bbtm6Tz+/TkCFDdOikSQoEAsnlYrGYVq9y9ycSiSQf37xps75Y9oUkacgBQxQIBLRu7VqFw+4yvfv0VqdOnbK+9soVK7RwwUJVVFSotLRUY8aNbbACY+uWLSovr5Ak9erdS507d9bWrVv10YcfqqK8Qj179dTRxxzT4JX+27Zt0/x587Rp4yY5jqPu3bvrkDGHaMDAgY3+fNauWas5c2YrVFOjIQcM1RFHHC6fP/MUramp0YayDZKkQDCQ8R7S97tnr54qLS3VurVrNXfOXFVXV6lf//464sgjVVDQ1OworhXLl8u2nYyfQ7ryXbu0deu25P1+/fvVOy62b9+evIK1W/du6tatm7Zt26ZdO3dJkjp37qRevXuroqJCWzZvUU1Ndcb6q1et0q6du+QP+BsN/przswMA7B8Mw3AvFk8bIxo2arQ+nvG2ytaXqf+A/jnbN6AtfTxrlvLy8+ULBCQZMgzHq6NItHnyvjfMeheIJ5ap+7cXsD/asmWzJMnn9+ZudJyMf0Mcx3Yfc9xzTEaissJItX+SU79lVHJ9ggsAAJqDkbw28sHM9xWqCUlyPyBPPvroRpdf/sUX+sXVV2vN6jUZjx93/PG648931RsUPmpyKqh4+6232uSPnW7duyW/D+bl1Xt+xjvv6FfXXqvNmzZnPB4MBnXxDy/RT668stn78Pyzz+n2226tty3JDWL+eMstYDgK5gAAIABJREFU+tKXvyRJWrdunU7+2tfqLXfzH/+om//4R0nS62+/paFDh+ryH1+WMZn2Gd/6VsY6Cxcs1G9//eusV+mPnzBBN/zuRh08alTG43fecaf+/fTTkqQ/3HST1q9bpwcfeCBZfSK5c3v89b57dfgRRyQfC9WE9Pvf3ajn/vusYrFYvddb+PliFRQW1ns8Eonoqiuu1AvPP5/x+PARw/Xwo4+qV+/eycc+nvWxLr7gAknuZNrvfvB+1v3+1fXXa9myZcn7CZ06ddKNf/i9Tj3ttHr7Udevr7tOn37yqSTp3PPP029uuCHj+VtuviVj+1dd/TP936WXZixz3S9/qbfffEuS9Nf779PXvv51/f2BBzMm0771T7fr5Zde0vXX/arePnz3zLMkucfIrNmf1nu+JT87AMB+xHEyOtv06NNXkjsYRVCBjiAej2vZ0qXq2W+AzPQ/x90+UDLSHjQkmXXmrxhy0AhJ0rKlyzR8xIi9s9NAO7V48WJJUnGWi94c2coaSDhKBROOkxFcEEkAANA6Zq53oKOYO3dO8vsDDzpQ3bt3b3T5/7v4knohhSS9O2OGfvLj+u2M0gfEKyoqtGL58tbvrLeNN19/I3n/yKOOzHj+/Znv65KLLkoGC8FgUKVd3DkRotGo/nL3PfrznXc2+/WWLl2S3FZJSYl69e4tn88nyb3q/tIf/lDLli7brfdU18z33tOZ3/pWg62EPps7V98+/Qx99OGHDW7jvr/+Vfffd19GSCG51QRX//SqZKsvSfrlL36hZ556OhlSlJaWql+/fgoGgyooLMwaUkjSLX+8qd5Au+R+cLz5jzc1+T6zefSRR+qFFJJUWVmpq664MhlANObkU05Nfv/O29PrPf/BzJkZ99+Z/k7G/Xg8rlkffiRJysvL07HHHtusfW+JPfGzAwDsw5pox1FVWbWXdgTYs+Z7bZ+69+4jGYZM05Rh+mTIDSQMmTJMQ4ZpyjTNxIza7nOmoc7d3M8q06fTEg2YO8f9LF9QVOyGDnLk2LYcx5ZjO2mTZiduTvKWTMWdxuevYG4LAACaRlDRRlatXJX8vl+/pq/U27lzp666+meaM3+ePvr0E009/ZvJ596f+b4+/eSTjOX79uuXcX91A62aGhKNRvX3Bx7UPX++W7/42dX6+ldO1JIlSyS5LZOuuvrq5LKWZelX114rK+4Ozv/8mmu08PPFmv3ZXD35zDMqLS2V5M7JsXNn8yamLCws0jnnnqvX3nxDny1coA9mfaTZ8z7TKae6g+GxWEz/ePQRSdKgQYP09owZenvGjIxWWL+6/vrk44MG/T975x0eRfW24XvOzGwgdAgSNHTpIiJNpSMoHRQQBSmi2BAIiF0RERAUKTbsP1RAsFICBCmGqhQB6SjwISBI7yXJzsz3x5SdTTYQitLOzbVXZmdmp+zOFt7nvM9T5Iz7O3z4ML2e6uHlW1SrXp1piYms/2MTU6dPo2q1aoA9Ir9H96c4fjxy2/vOnTu5sWRJps+cybpNG3l7ZEic2bVrFz/PtQv4J06cIHHGDG9ZfJ8+LFu5gnmLFvL7urWMOUMA+u7du2nctAmLly5h1do1dOrS2Vs2fdo0zybpXNi5YwelSpfixylTWLdpI//78gvvdTMMI1MiU6Mmje3/2GI/D67tFsCWLVvYtWsXAFmy2L7Iq1au5PCh0LEuX7aMEydOAHBHjRoZCjUALVq2ZE5SElOmJYTN/+7HH5iTlMR3k36M+Lh/47mTSCQSydWFZVn89P03AFS7rfolPhqJ5MIJBoN0f+IJAPLFxqIowhMkhKqiCAUhbFFCCNcGSkG4QoWioGkqBQsVIWHK1LCBNxLJtcivv9iDqw7vt21tLUtxGibc7ghHvMC0BQdXrMAWK0zL9Nb31AykOCGRSCQSybkihYqLxL59Ia/+PE7nwZlo1LgxT3TvTq5cucifPz9vDB1K3rx5veXTp00LWz937txe0Rhg396953R8ycnJDBk8mFEjRvD9d9+xb98+cufJw5NPPcXkhASuv/56b92FCxawc8cOAOrVr8+jjz/m+f1XrVaVhxzroeTkZGb/NCtT+3/8ySd47fUB3FiypDcvR44cPP/Si959d2SYpmkUKVqEIkWLEPBlV8Tkj/Hma2fJH5gwfjxHjx4FIFeuXHz06SeULlOaQCBA2XLl+PizT8mRIwdgd0d8+803EbejKAqjP/6IUqVLERUVRctWrbipQgVv+ZYtWwA4dPBgWNdFmbJlvPZ6XdepXKVKhsdauEgR3h4xguuuu47s2bPTp29f77U2DIO//tp2xnPNiBGj3qHCzRWIioqiVu3aYcHjS3799awiU/78+T1BB8JH3C2cH+qm6PbYowCYpsm8efO8+fN90w0aNjzjvrJnz06RokWIK1QobP4NcXH2/LjI4t+/9dxJJBKJ5MojbUHIcka5Jp86xfqVv3FHjRpEn0E0l0iuFAYPHMT+ffspV7kaUVFZvN+cCngCBYqCUESo28JNr3CECqEIbq5ud1SPHzfu0p2MRHIZ8P7o0QAsS5rNwX3h/8823e4J0705nRaWO+0TKGwpI6zjQooVEolEIpFkHplRcZFIPn3am86dCaGibbv7wu7ruk6denX58fsfANiwfn3YciEEOXLk4MgROyz51KnTXCiHDx1ix/bt5MuXL2y+3xYo/3X5wwrOQFgY38qVK7nv/nZn3VcgEMAIBlm2bBmb//yT48ePc+rUKS+sGfCCoC8GCxeEshuat2zpiRIuOXLkoFHjxp5AsXjhIh7q2jXddirdemu60O2SpUp6uRh79+wB7IDyfPnyceDAAQB6PNmdhnffRZMmTanf4E4CgUCGx9q0WbOw5dmzZyc2NtbrWNjj7ONcqFixIqXLlA6b1/Cuuxj0+kAgFGx+R40aZ9xOk2ZNWfLrr4Bt//S4M3pvoWP7VKJECR5o3553R70DQNLcn2nZqhUA85Ps60ZRFOo3uPOczyEz/BvPneTKpslNJS71IUgkkjMwfe2W/3aHlsWG31cC0NUZaCGRXMn8tnw5X44ZQ57811GwSFGEqiJUgapq9rRQEUKgqqpzXwFh20AJ1baHAkBRuOuetiyelciAV/tTv/6dMr9Fcs1SuUoVJn73Ld2feIJfZiVSu0kLChYu4ogQtihhmiamZdp/TZ8QYZogBKZpIiwRyqswTRTH6tjFFS2upGBt+dtaIrm8+c9/W0sk/zJSqLhIZMuezZs+efLEWdf3Wxq5FC4csjM6dOhwuuUnT570ptMW3s96fNmy8cOUyZw4foJvJ07k6/HjAZg6ZQotWrWkXv363rp7fcXdbyZM5JsJ6bMOXNzOi7ORMHUqgwa8HtZ5khbjIrad//3339500aJFI67jH72/2ylsp6VEifQ/zKJ8weOu0KJqGq8PHkR8j56kpKSQmprK9IRpTE+YRp68eXj1tdcyDLA+2z4s89xH4US6vq6/4QZUTfUsvQ5HuMbS0rhJEwa82h/DMFi5YgWHDx0iW/bs/OqIF7Xr1OG6AgUoW7YsGzZsYP68eRiGwYEDB9i4cSMAN1esSP78+c/5HDLDv/HcSa4ONm87N3s8iUTy73Jj0WJnX+kCONOI1cTv7N8xNWvX+lePQSL5NwkGgwweOIgvx4wB4Kaqt6GpKkLVHFFC2CKF+9e5KYqCKnzWUF6WBWi6Ts8BbzCo1xM81q0bkxOmnrVrWSK5WqlcpQrTEhNp2qgR86dPoX6r1lxfuBhYdue45YgUlmlhmoYjWBiYhokhTISTZ2EqFoqwwjIr0goTlmVdUWIFyN/WEsnlyL/9+1oiuRRI66eLRExMqBB7YP+Bs64fTE1flLcs05tW1fCX5siRI15IM3DOhV8hBCVKlODmijczYNBAihcv7i0b8/nn6dZ1yZUrFwViYzO8ufkEZ2LhgoX07tnLEynq1K3Ls88/z9BhbzHkrTf/lR9p/oKFm5OQllM+4SejY/ALUN66RF73rrvvJiFxBp26dA57fQ4dPESfXvGetVWm9nGBz0lGXsP+wr1Qz/72z5s3rxfkbpomST8n8dvy5d5zV6uOHZBdp149wL5OV65YGdaF0/CuM9s+XQj/xnMnkUgkkisb+zeAgmVZHD18iPUrltOpS5cMC7C/LV/udURKJJcbwWCQ35Yvp+btt3udFLWatCA6WzZUVUPTNFRVR9M0dF1H13U0XUfV7I4KTdW9bgtVqAhFIIRiZ1koCjEFCtKqU1c2bdxIy2bN2blj56U+ZYnkkpEvXz6mJSYSkz+GuZO+Z8/O7Xb+hCtMGCaGGcQ0DQwjiGnYYoVlup0WbgC36QvklhZQEolEIpFkFjlk5iJRILaAN703E/kRa9aspmixomHzNm/e7E1fd911Ycv2prGwiS0Ye+4H6aAoCu0euJ83Bg0GYPGixWz7v23e8fi3/UD79vR97tnz3hfApx9/5P0we/b553n08ce8Zf/s/sdbZppmxMefD0WKFPa6PZYvWxZxnfU+e6202QjnS/HixenXvz8v9+vHgvnz6d2zF0ePHsU0TWZMn07FW265KPs5G641lZ//27o17DlOe41lRNNmzVi8aBEAc+bMpojT+RMVFUW16nYoaZ26dfnwgw8ASJo7l+07tnuPP1s+hUQikUgk50Okoo/rE+6GnS6eMxOAps2aRtzGb8uX065NW+9+sxbNqV8/Y7vCWytXPqM9zqaNG9m0cVNmT0EiyZBVq1ax5Ndf2eR0qAKUr1LdtnsSttWTqmmomoqmq+i6jtBUW7xQVVRVRQ/otkChhbotEAJVqFgWCFXFskzuaNAI0zSZMnYMdWvVot9r/WnfoYPsrpBck7hiRdNGjZj1wzdUr9+QSrfXwjQMT3gwDNMTJwzTQBgqluYIFJbANC0EFpawUJzvJDmYSiKRSCSSsyN/fV4kKleuwhf/GwPAxg0bSElJOWMuwRf/G0OTJk28kOrdu3czd3YorPiWSpXC1l/lG42fPXt2Spcpc0HHe0/r1rw19E2CwSCWZfH1+PG84ARbV61WHXgXgCmTJ9Pt8cfIlStXum0cOniIPHnPnsex7f+2edP16tcLWzZ50iRv2h9G7RLw2fhkplMltJ87WbTQLq4vXrSIPzb9QanSpbzlO7ZvZ9Gihb7166fbxoUghKBO3brcWrkyST//DMD+/fsv6j7OxNatW5k7Zy717wyd19ivvvKmo6KiKFu2bKa2dXeju+n3yssYQYMF8+azNe4GAKpWq+Z11Nx6ayVy5MjBsWPHmD17Nvud7pkiRYuEBaifDb9tE8CBAwf+NdsoiUQikVw9+EULS7HvW8DPUycDZDhQoN/LrwBQtlJldu/4i4QpU0mYMjXD/SQ5GU2R2LljJ00bNT6Po5dIIhOVJSsF4gqRv+D15C0QS1SWaFRVIBSBqmloui1EaJrdNaGqKkJzuic0LWQFpagoqkBRFDTNzquwO4QtLKESCASo3agZJW+6mbHvDmfAq/0Z8Gp/mrVozq2VK1O+fHkKFDj/QVISyYUSWzD2jMLZmTqB9uz5h3Xr1jH7p1ksXrSImPwxTEtMTJfT6McvViyZOwsjmEqNho0xDANhGJiGgRE0CKpBVFXFUIKIoEBRBIphv0dN00QRii9o28YVLKR4IZFIJBJJeqRQcZG4/Y47UBT7h0hycjK/r/qdqtWqZrj+qpUr6flUDx7u9gjHjh3jzSFDOO0EcquqSst77glbf7kv4Pq2229HTRPMda7kzZuXBg0bkjhjBgDff/stffo+TVRUFLffcTslbryRLZs3s2vXLtq3a0ffZ5/l5ooVAdiwfgOTJ/3Ir4t/YcEvi8+6r5j8+dm50/7x+N477/LMc8+SPXt2fpr5E++OGuWtd/p0+oDwIkWKeJZJX34xxhMbChUqdMYuiHb3t+PzTz9l165dGIZB5wcf5PmXXqREiRJs2bKFEcPe9rIaChUuTKt778lwW5nl1Vf6UbNWTcqWK0eOHDmYP28eS5cu8ZafS8H+YvB0fDz9+venxI03kvTzz3z1xZfeskZNGpM1OjpT28mdJw933FGDBfPnc/z4cW+kaG3H9gnsjI4atWqSOH0Gm//805vfoOFd53TMUVFRXFeggNdBNHzYMJ7s3p09e/ZwZ4MGcmSfRCKRSDKJxdGDB9m+dXOGtk9TJk1m08aNVKldjwpVbyM5+TQpKckcPXiIYGoKQacYtXfXTv74fSWdunTJsJsiGAzSxvktUfbWqkTnyIGCYhehFAVFwTaOFHYhSygKFiDc5QCKglBAmoNIFEVBj8qCrut254MQ9jWkODkTqkDzOio09EAAPRAgEIgioAc8EcO2hXIEDSFQNR1FsbsxnKYjhBMSrGoq+WOv5/GX+vPL7J/YuHrlWYU7ieS/olfveHr06pXh8mFvvZmpazV3vhj279tP9cpV+PTzz6mbZhCdH79YsXx+EqpQqdWoGUYwSDCYSmrQ7mgyDM0Oqw+qKMIWBP03S1gIy7LtlX0Wy27twJ2WSCQSiUQihYqLRp68eahcpTLLly0HYMH8+RkKFaqqUrBgQWYmJjIzMTHd8k5dulCsWCgUxzTNsNH/De8+t+JvRrRtd58nVBw+fJjpCdO4p/W9CCEY+c4oOtz/AEePHmXTxk106/pwusfHxMRkaj9duj5EfI+VAExLSGBaQoK3rGSpUqSkJPPXtr9ITk4mGAyGFRNa3tOKKZPt0ZB/bfuLju07APDBRx+eUajIGh3NBx99SJeOnTh8+DD79u3j6fje6dbLkzcPH3w4+ozdL5ll8o8/Ms7XteAnJiaGtvfdd8H7yCxusf+Zp59Otyx37tz0jjD/TDRp1pQF8+eHzatdp07Y/Tp165I4fUbYvPOxfWp1Tys+/vAjAObOnuN1Gv32+6qInT0SiUQiubZxCz1hPuAWzPzxG8AevJCWYDDI4EEDAahYvQamZYBTEM6eMwepKamYpkFKSip/bdoAQN9nn8nwGPr26cP+ffspXu4m8hWIdYpVIIQ9sERVVUeIsPMBFCGwLFCFAMUtUtmFKlmwunZJ+9orwr4uFOcaURQ3LFtB1XSnk8K2fQpERaEHotADATQnq8K+BewgbSdw2w7gti2fUFQUZ7S3YShoWpBAVBZuu7Mhle6oRTCYyt7du9m7aycnjx/HCAZtqxsj6PjyW46tqIVlYnvyWxaK4h9ALqU3yfnhXkO7tv0fo0aM5I4aNahcpUrEdfs+86wnVJSsEN5Bp+k60TlykDU6G4oQnDx2lLVLf+GRrl3p1KULL778UoaDoVyxonfPXixOmoNQVWre3QTDMBzBIohQ7RxJRRGhz3532jQQqCCc7ybTdATr9OHa9jaunM9/GeIrkfy3yEB7ybWCFCouIl0fecQTKr6dOJGe8b0i/uhRVZWxE77m5RdeYOGCkACRLVs2unR9iJ7x8WHrJ839mX92/wPYuQItWra8KMdbq3ZtYgvGetseN3Ys97S+F4Cy5coxOWEqI94ezk8zZ6brdihWrBjtOz6Yqf00a94cVai8OXQoO7bb2QWKolDvzvoMHDyYp+N789e2vwA4dvRYmJ1Unbp1ef7FFxk5fHjYMZw6deqs+72pQgUmTZ3C228N46eZM0lOTvaWZcmShbsbN6JP377ccMMNmTqPM2FZFrly5eL48eNh86OiomjctAm94uPP2F58sWnStAklS5bizSFDOHLkiDf/lkqVeH3wIOLiMvbXjsRdd9/NKy++5IV0xxaMTdchUieNcJE7Tx5urXzrOR97j5492b9vPz98/33Y/NOnTkmhQiKRSCTp8EaluvkUpoVpmcz68Tti8sdEtMucnjCN/fv2U6dpC/RAgOTkU3bAsKWiCBVVM1FMhX3btpJ8+jT9XutPdAadiFMmTSZhylTyxOSn8I1256ciBIoFimPTowjFGcluF6/sztjwArSiWLYdj1uouoIKVpKLj+IKV8K5nrAFLqHYooMrUKiqihYIoOtOV0VUwOmyiLK7KnQNTbdtoFRNt0d+CxULBRQTBR0LyxbSDB3NMDC1AGaUbVsTU6AAOXPnJjUlmdTUVK84GwymYgQNL2QYwDQtbNEig/wYiSQTWK645fwpcEMcixKn0f2JJzK0bIorFEev3vGMGjGSQJYs5M3vZPEpivfHfQ/lzJuPavXvYt3yJXw5Zgyb//yTEe+MyvD/avny5ePzL8bQtXMXFs/5CRSFuk1aYKhBUlNTPXFBURS7awLb0kkxne4Jzfmct0wUS0GxLITjjnAlCRMZIYunEsm/jxQGJdcSiiV/NV40TNOkUYOGbN26FYB33nuPJhmEN7rs+ecftm3bRrZs2ShZqlQ6j36Ah7s8xLykJCB9GPV/QWpqKlu2bOHQwYPkyJGDArGx55UbYBgG27dvZ9/evRQpUoQCsZn3uj19+jRbt2zh6NGj5MuXj+IlSpyT/dXp06fZsnkzR48eJXfu3JS48caL0kWRlgMHDrDr710cP36MfPliKFQoLtMWSxfKC889z7cTJwJ2F8vL/fqRmprK+vXrSUlOJq5QIQoWLPifHMvF4MiRI2zZvBnDMCh4/fXnLK5cjrg/MKav3XKJj+TqpclNJQD5nyaJ5HLjYn/+hWVSONY1lhNqahom//fHRp7peF9Eu5BgMEjN22/n9OkUHnr6eVJTg6SknCYlOQXDSMVIDWIEgyQnn2b2j9+SPVs0C3/5JeLgk507dlK3Vi2ismTl9oaNEJrm2X2oQqAI1e6gUASqptq2Pf75TgFaeJ0VwivOhfQKRXqZX4sodpEzJGbZo7DtjgrVDtF2Oio0p3NCjwoQ0KNQdc3upghEERUV5Vk/CU1FYF+LlmULepZh2jZnpkFKcjKpySmkpCSTcjqZ1GAKKcnJpCQnE0xJITU1SDCYYnvzB1MxDVuk8LZlmoCCZVqhYrNEcq74Mh3sLh3Y/88uFsxI4I4aNfj8izERP49PnjzJzeXKO11Bd6E4NkuKEGHisft+Aov/27iBzWt/JyZ/DO+PHp1hxwbY3x1dO3dh8aJF1GjYmDpNmhGVNZqoLFGoqi0OBhwbtlB+jIam6QjVtlzD6bYQqhpmD+VyOX7OZ/Tb2v1el7+5JZJ/nxuLFov4XruxaDFZW/gXkbWFS4PsqLiICCHo99prPNSpE5ZlMWrECBrefRe6rmf4mAKxsWcs2C9butQTKUrceCOdH+pykY/67Oi6TpkLDO8Gu5OkWLFiYbZWmSVLliyUK1/+vPedJUsWyt9003k/PrPky5fvP+2cOBu6rlPRyRa50siVKxe3Vq58qQ9DIpFIJJc5YWNuLHtE99KkuYDdEZgWt5ui6QMd7VGtqUFPWMBSsTS7OLZl1XpOnzzJe++9F7Eo5s+lqFy7LlFZsmARKiqrTkHZLlCpCKGh6qodhKyqoAjH+skvVDie5s4picuwaCX5D/Bed9vXXrGrmygI3/VkixWqE6atR7ldFbqTSxEg4BRMVU2zHydUx57G7tdQTIGpmKg4uRi66XRDOBZOwhkp7ohpQk1FDaoYQQM1qGFZJqZhOmKF6VivuYduhr03L8cCrOTSkna8pHfXuVQs08Ry/hYsUpTylauxeNEiRr//fsS8iujoaIaPHEmf+Hj2791DbKHC9uacHCC/cCwUBUUVlL3lVmILFWLhjATatWlLv9f606lz54jHq2ma11mxaNYM/t62lQ5PxSMUBVO3vO26qL7OItWyv0OEUDGF3bHn+AN6QrQ/s8I9bolEIpFIrjWkUHGRqVmrJu07dGDc2LFs2bKFzz75hMeffPK8tmUEg/Tv1w8AVVN56+23I3ZcSCQSiUQikVyLeEUdy7KLWpY9b9aP31K6TJl0tk9uNkX2HDkpXaGiZ2noWoIolkC1LI6fPMWGFcsoXaZMhmGrbi5FucpVyZ03JpQ1oShOIdkeQeuNgFc1p7Bs/1VcoULY2RWh4O3I1k8iwjFIrmJ8Iev+jgpF2NeXfW05uROanUfhZlMIVSMQCDhh2zqa7l5vKggQQgPLxFQsFCvUsWMatvBhmhqaathZE6bjra+41jYqhkhFCAXTtLBUA9PLh3HFCr94eKmeQMmViD9zyFUu3G6dCtVv58Ce3WfMq2jSrCmDBw1k/fIlxN5QCFXTnPcQ3meu4nW22XkvBQreQLMOXVgwYyoDXu3P7J9m8eEnH0e0+/OLFYsXLWLc+6Po2KM3AUXBUFWChrAt/wznu0UomMJ5Dxv2Z7pAxVRMBMLOrLjMOyokEolEIvkvkULFv8DzL75Azdq1AMia9fxtf44dP058nz4A5M2bl5sr3nxRjk8ikUgkEonkasKyLCwFLMtkw6qVHD54gJ69eqRbz+2maN6hsxN0HcTNsVaEgjAFloA1SxYDMHzkiIj7c3Mp8he8nhJlbwqNiPVCtG2BQtM1u6As7AKwqmlomt1dIZyCs/0Y4RXS8HQKWbC6lkgXpI0SFrTuihRCcSycnGKrpmqouu5YzNidFEIIp4tC9cQxBcXzxRdCAUtFwcS0FIQwQSiYpp1XYYtmoAbtLBWhCoKqRlDTHNsnHc0IYhpGKMTeNDH9RWZ7AqlUSNIT6hhKi0+fwML0hDL7+jKp2+weJn/1WYZ5FZqmMWTomzzStSvbt/zBjeVvdgQ2Wwi2bZeE9xktnMyWQJYsNL7/QX6ZlcjiRYuoX6cO3/3wI3GF0lvPphUrxr43ggef6mOLH4ri5cu4WS3uPIVwQcIUtlihpHkm5Ge/RCKRSK5lpFDxL5A1OpqGd911wdvJnTv3RdmO5NpA1zQvdyOSRYVEIpFIJFczlmmCBYtnzwSgabNmYcu9boqcOSlTsZIXAKwooAoV07QQGhzes5+//txEsxbNIwZx79yxkz7x8WSJjua2O+9G1dxQVOFYOClhljzuyHe7iGwXlG0bHdWz8LGteBSvq8LFtd6RXP2ke6V9Ab1e8VOxrWNckcLOPXFEMF1HU22xQjjdM5hXAAAgAElEQVTXntD815gzihzLEeksTCHANNDQ7W4InbBCq+GIaKpQ7es1qGEYBrppYBgGZtBwRruHOiqwQmHIMgpRcq7YnRQ43Tlgh7ObGJaFZRjogQAN7mnL1LFj6N2zV8S8irr161G6TBk2rV1NkRtLEZ09h9c94WYEqc5nsHDeH8L5DK7X/B62bljH/BlTqVurFsNHjqRFq5bpjtMVK0a//z6jRoxk7HvDefCp3uHnooWEChfTMkM2UJYKKnZnhWWBCPXNSRsoiUQikVyryGqmRHKVMGDQQAYMGnipD0MikUgkkn8VvzWIO9LWtX1KTU0h8bsJlC5TJt1I29Hvv8/+fftp1flhFEVgWYazxPb/F0KApTA/MQGAvs88m27f/lyK2k2aE5Ulq7dMEdhFLyeDQtV0p4PCvumuFY9j/eTlVzh/ccfcilCBWnJtEfE1d4QKt5CqOKO2/d04qqaiChXV6+AR3rXn3ldESPBQHF98geWFdVtmKLwbdHsfpk8ICaoYhiNQmKbdTWGaGKYJbph2OtsnKVRIMibS1eF2IeB+vmNhmRamaV93RjBIsVJlqFb3ThYnzckwr2L4yBE0bdSYTatXUrVOA4QCCNv6SWiaF2itqqHPYfe9VvaWW7mhaHEmf/UZfeLjmTt3DsOGD08niGia5u3bFitG2GKF8z62LDN9p5Qb8O0JERqWsBCKYwOVRqyQSCQSieRaQwoVEolEIpFIJJIrjjDBQrH//rFuLQDtHrg/bN2TJ08yasRIsufMRZmbK2EYtkjh2jUJy8ISFjs2/8mhfXvp1Ts+ouWHm0tRuVY98l0X6xXaFJyOCtUZqaupTmZAwMkMUEM5AgHdG+VuF8pc66fQqHnXCkpybXEmocLtthGOmKU4gpiiKL6R4bZAoXodO5ptF+V07QhFhLbpFoJV21rKxEBF8/YlhMA0TDuTwrEtMwy7g8IMBjEc2yfTNFHAl1MhhQrJ+ZH2+rFMy7N/MhyhwgzaYlmNho3YveMvRo0YSYUKN6fLEipdpgzNWjQnYcpUyt1aldwxMSgotiWaCH1Oe8Ke815yhYS8113Hgz2eZvrEsSRMmcqff/zJl+PGphPAgXRiRdtHHidX3hiva89/fqoaKr9omo5BMKyzQrGsiDZQ7vMixQuJRCKRXO1IoUIikUgkEolEctkTVsBK44XvBq/+4tg+tWnbNuyxn33yCQAtHuyCUFUMJ+gUsIu2QqCYBvOmTwHg4W7d0u3fzaUoWLgo5StXcYpq3ibCOiQ0PYCqawT0gGf3pOoaunNfdUby+kfFu/7mtlYhi1HXKv5CpDvt/6sI4TQBuWHAjm2Nawelqp6I4VqRKcIROPzWYq5Y4Y3itrAU3/tJI2x9tyPDNE0soSJMw+tmAuxgbcf6ycWS+RSSc8D/eR4mfpkmqmnaQplqIAwDIQTNH+jMF6PsPIolvy1PJyL0feZZEqZMZenPs2ncroP3fvG6KJzuNlWoKKqK8IuC2B0T93bpxu+/LmLe9KlUr1yFTz//PJ0oAuFixQev9+OpfgPJkScvwWDQ64LyuuWcgG3DUFDRMDHsDgvV8r7LFFWNKE64eUgSiUQikVytSKFCIpFIJBKJRHJl4hZaLYtTp06S+N0E7qhRg+joaG8Vt5siNq4QJctXIDUlxbcBBaEomIrClg3rOXniOMNHjgx7PIRyKaKzZeeuNu1QSO8fbgezOiPaNRVd09F0zeui0FT7r67ptvWTO+LdGb0eGjUfClCWXGMo/sn0IgWudZMrPriZKMIRLZyuHveaEqqKheV0YQj8I8Yty/JECGGaKJqGZVooil00NQ1hh/2qBkIomKaFqhleqLEtUoS6KFybnvAuitBocFlclaQlXYaJc9+0LFBCuUOWZYbZjhnBIEEtlbx6flp1fphx742kU4cHmZwwNcyeKa5QHL16xzNqxEj+2bmDuGLFw6z3VNUWkDVfVpAtAIbCsC0sKteqS4G4wkwb/yWPdO1Kr97xPNG9ezorKL9Y8d6AV3jylQHkzhcTJjzb77Hw94KKhkEQy1KxVNsGyjJNz6INZCeFRCKRSK4dpFAhkUgkEolEIrlisRQwDYu1vy0DoOvDD4ctd7spmrXv5Pnou7jigBEMMvvHb4nJH0OTZk3DHu/PpWjZqSu6HrDtbtyB6Y5dk50JoKMKgarrBAJR6AEdPRCw52saAWc65I2uOvkBwssOcIek+0f2Sq5d0gasu1kVXnaF01nhiReKLV7YXRYKqqK6GwoFczv++JYvwFcBLDWUWaEIBWFamIY9Ct00TUxT9bIDTNPJh3HECb9tjxXeViGRZJI0nXKme63Zn9uGEcQ0DILBIJqhE0xNpUTZ8tS6uykLZk5j8MBB9Ov/atgWH+7WjXFjx/LrnJnc99hTdkebL0hbc2zN3E4koYpwYcHJyChyYyk6xz9LwoQvGTViJMuWLmPEO6PSdXH06NWLXLlzM+DV/nzw+is8+crr5M4XE9qepYefo/O+0TQ9fWeFaYa996UNlEQikUiuBaRQIZFIJBKJRCK5rElr++SFaPs6KqZPGAtAtduqe+v6uykKFb+R1NSUNHY09ujWlYsXADBk6JvpRsm6uRQNWrVxfMcNVCEwLaeo645k1zQ0VXO6KAJoAZ2AHoUeFUBVVUewsJepmuZZ9bhChb8A7SILUdc2rqDg5Ze48z2bMHuucMUG4WSbuFkWPhHDvz132tueGhIgLAVQ7cdawrQFCws7MNsw7MKtVzw2wxso0mZUSCSZIO01Y99XPCHMMk0nwN3OSdE0g2Aw1bM3q9usBTu3beXLMWOoXbt2mDVTdHQ0L770Mn3i4/lj9SoqVL0tJFJoWkhgdmz43M44/7HY+7fIlTcv9z3yJL/MmcmiWYk0bdSIL776itJlyoQdf6fOnSlfvjzt2rR1bKBeJ2fefHaXiGWRVr1zT18IR1RE8zIr8ImJIG2gJBKJRHL1I4WKK5SlS5Yw+v0PAIiLi+P1wYO8ZdMTpnHgwAEA7qhZgxIlSlySY/xmwkRmTJ8OQM1aNT2/52AwyNfjxnvr3dumNdmyZbskxyi5OMjXVCKRSCSXAregdfLkCdYsX5rO9snLpuj4kOf97a8RKYrgyKEDLPl5NqXLlEnnPe7mUpSqUJHSFSthWRbCrR2BI1TYwayqY/Wkahp6IEBAD6BHBWxhQtcdKyjd6a5Qw4QKkaag7Bxc2pO9yM+e5LIjzWuu+CY8scGdGxay7XRBWHjWTp6Q4evMOVP+hff+AFSwQ4wVgXCKtFgWilDsVfwdFH4RESlUSC6MsM4cVwizLM/2STUMTMNwxIZUz86sXbcneG/AyxHzKpo0a8rgQQP5ZfZMbqpcDREVZXdV+PIqhOaE0QvHBsr3VjQtRyhx7JhqN25OwcJF+e6zD2naqDH9XutPp86dw86jcpUqTPzuW9q1act7A17hqX6vkytfjO/9EdqBajrvO9UVHoKAhuJ+yXg5Ms4jpTghkUgkkqsYKVRcoezdu5cF8+cDULJUqbBlH3/0EWvXrAFg6LC3LplQsWXLFu8Y8+fP781PSU7htVdDbbn17qwvi9pXOPI1lUgkEsl/RVpPfNM0WTb/ZwB69Y731jtw4IDdTVGoMEVKlCQ1JcW2q/EVUxWhsHhWIgAfOaKGi5dLkT0Hd7du541GN63Q2HahKL7RuTq6rnsh2npUwLF/ikIIEZZT4Y4EtgtiihdUnLajwo8sTl27hF77MJXNEye8aREuYriPTStQ+Ds1IHxktqKqoYBty0JRBAgTEGAq9jFYIUsc74gyECikcCE5V1wBzP2sthyRzDRMDELinHcNWhY58+aj3aPd+WzYG+nyKjRN4/3Ro2nXpi1Lfp5N3aYt7BB6Vdh2T4oIEyns+b73jCUQwhZL3ED5UhUq0vO1N/hs2GAGvNqf2T/N4vMvxoR15KUVKx54ogfFy5QLyyVy96UYCooChqEAGkIxMRUFLNP+nnAyZdJ2RMmuColEIpFcbUihQnJZYgSDLF26lJMnTnJnwwaX+nCuKK7G527PP/8w66efaHXvvWTPnv1SH45EIpFILjVhnvgWk78aA0DFW27xVnn9tdcAaNnxIc/j3MUt1u78v61sWr2SZi2aE1cozlvuz6Vo99hTCFXDskzbZsex27GLwQJVs0flapoTzKppqLqOqmoI1fY+VzXVFil0576wxY1QeKtbGLPSCRVpfckl1w6eeOC99CEhyytOKv7p9AHcmSlipltHCHsUt7NNFTvUVygKluLrvlAV3+h3v6WNQpioYiGz4SWZwwplnHhCmGM7ZqomQg1iGioiqHq2eyi2bdKN5StQr1krfk6YlC6vonKVKpQuU4bVS3+hcs065I6JCYl7SihEW6gilB0U9tlrIQzVPg7TxBQGOfPk4al+g5gy/gsWL1pEzdtv57sffgz7LvGLFZ8MHcgjz75EibLlw07ZVM10n+9h72nFBNPu4ssos0KKFRKJRCK5WpBCxVVIw7vuomy5cgAUK1bsEh9NejRdo227dt797GlG3n8zYSJvDhnC4cOHeaB9+6um2P5fcKmeu7O9pufL6dOn6dDuflavXo1lWdzduLEUKiQSieQaJqwo6twOHzzA9i1/0qlLF280684dO0mYMpWChQpTuERJzGAwTTaFXeSZM/l7AF7xdQUCdO3chf379tP4vvbkzpsPy3JGlCuWHXrtG8GuqrY4oUcF0DUdoWnouo4eFUVAD4TsnhyRQtP0sGwKRdh5AukK0GmRdahrF69mmd4aLJKdU7p1/ZuKZPnkW+YVPYXwLjnLslDcke3O8XiPc9+TZ7g+pcgmyTRWSNUyFRO3g0dRFIRzbZrCtmBSUv2F+iCWZVK/5b38tfmPiHkVH33yCXVr1WLx7Jk0feBBL4xeqCKUNaSqni2U/bEsnH2YCGFhqgLTtDCCQSfTQuXeh7qxplwFpowbQ91atRg+ciQtWrX09usXKz59cxDdnnuZEmXLoaTawffud1NIWAymt2tTARPvvemS0ftYIpFIJJIrFSlUXIV07/HUpT6EMxIIBHhj6JAMl//xxyYOHz78Hx7R1cOleu7O9pqeLykpKfz+++8XfbsSiUQiufJIF7hqu2KweNZMAJo2a+otG/bWmwB0jn/GHo3rhP/6Myo2rPyN/f/splfv+DA/8y+/sEfHlqlYibKVKgOgoGI5PuLuCHbXusntpNA1HS0QQFPtjAovk0LXvY4L11ZECGfErhOg7YW3ZnIEvESS9jrJKCj7TI9J+zj/Omnnu8Hd3j4gPJ/iTGKEvKQl54FwrkUTC2GpmKZhdz+YZvi1bOFk/djz7n+8B+/0ez5dXkVcoTiatWhOwpSp3FqjJoWKlwzfoSdAC+9z2v289+wGTRXTNO39OXkZipLKLXfUILZQIca/P4o+8fGsWrWKF19+yRPPK1epwrTEGXTu2JFPhg6k23Mvc6PTWWFppmOzZh+/MFXfIQnvGExh2gHbMrNCIpFIJFcxUqg4C5ZlsXr1av7YtImTJ06SPUd2ihcvzk0VKqDrurdeSkoKq39fza5df3Po4CGis0VTtmxZbqpQId02TdNk85+bAYiOzkpcoUKcPn2axQsXsXv3Lu5t3ZqsThCkYRj8tnw5W7dsBaDCzRUof9NNZzzm7X/9xenTyQDEFowlZ86cABw7dozdu3YDkDNnTmILxnLq5EkWLlzIP7v/IXv27Nx2x+0ULFgww23v2L6dP//czD//7MY0DGILFqRK1arkzp07s09p2PkDFC9RHE3T2Lp1K8HUIIcOHfKWHTl6hD82/QFAgdgCnDhxguPHjgOQNWsWChUunG77/vMMBAIULVY008e2/a+/WLliJYcOHSI6OpqC1xfklkqVyJEjR7p1t2zezJrVazhy5Ai5c+fm5lsqZtjBsnfPHg4fPuKdR65cudi7dy+/LF7MkcNHuK7AddSsVSvDboHTp0+zfNkyduzYQfLpZHLmyknZsmUpVbo0qqpm6rnLlSsX+/bt49BBe51CheLIGh3Nls2bWb5sOcVLFKdqtWre48/3mobQa3q+537kyBH2/LOHEyeOh+3n/7Zu5dDBQ2i6RvHixb35lmWxcsUKtm3bxpHDh8mWLTtFixWlws03kzVr1ojPqUQikUiuDKw0xdBQwcjCskxmT/4BCNk+ud0UlW6vSZ58MaSkpIR3YihgGiZJ0yYTkz+Gh7t187a/aeNGBrzan2w5ctCkXQeEIjyfdNf/37YEsS2fhFDRdA1N1e3AbD1g2zxpdhaFpgfQA5oT2qp5j3G7KOxCWHpxQhaeJC6RroWMrF4yOy/SOpGEhkjdF2EjuP0dHGfdi0RydiJdh8KysBQLoaiAgiXSdxG4Yq9pWeTJl4/23Xvx8RsD0uVVvPLqqyRMmcrsSd/Tte8Lkd8z+DNfFFRV9fZnWibCNFFVlWAwiKna3XFG0KBg4SI8+epAvvn4A74cM4Ylv/7Kl+PGekJJ6TJlmJaYSNNGjfhk6EAefe4VSpQt53Ts4b2fVH9mjNPRgQVCVUFYtt2Vu75z3v7zkFZQEolEIrmSkULFGVjx22+88OxzbNmyJd2y8RMnUK16dQAGDXidbyZO5MSJE+nWK3/TTYx4Z1RYUfX0qdM0uftuwB5dMerdd+napbNXVK5Trx5x0dGsWb2GXj16sP2vv8K2Wat2bRrefVeGx93zqR5hYdqt27QBYO7sOTzduzcALVu1on6DO+n30sscOXLEe6ymaTz7/HN0feSRsG2uX7eO5/o+w4YNG9LtL0uWLDz+5JM81bNHhsfkx3/+AEkLFxAXF0f7+9qxf//+sHWnJ0xjesI0AAYMGsjBAwcZOXw4ANHZolm2YgVRUVFhj3l31Dt8/umnALS69x6GOeufib179vDCc88zLykp3bKe8fH0jO/l3V+zeg39X3kl4kj/SrfeymuvD6Bc+XDv0RHDR/DtxIkADHrjDXZs384nH3+MYRjeOrnz5OH90R9Q/bbbwh776cef8OHo0Rz2iRAun3z+GfXq18/Uc9e+Qwc+/fgTPnPCQr8YO5ZNGzcwZPAbmKbJva1be0LFhVzTEHpNz/fcpyUk0O+ll9Ptu327+wGIiYnh1+XLAJiXlMSgAa+zdevWdOs/8mg3nn/xxXTzJRKJRHJlEHGUthu0alns+Xsn27f8Sa/e8V4hyu2maHxfe9tSw7IFDf/o79+XLObEsWO8/vrrRDuDQ06ePEnnjh0B6NA9HlXTHMsbXzCxULxuCFWzcyZUVUML2EHadmC2hh7Q0bWAJ0yEBbeqwis0KWmKTLK4JMkM59Ixcb7bzIxdk8xPkVxMImalAJgmCor9OS4UTNMOt1aFaovWqsCynCwgU8M0DUqUKUezBzqS8PVXYXkV+fLlo1fveEaNGMn6FcupUKV6hAPxDsjOrvBnvlhgKQJTmGjY4deKY92nGApZo6Pp2LMPSQlTWJCYQPXKtu1T5SpVvP27YsXHQ1+nU6++lKtU2RY7nGBvRSgYhhu2bdtOWZbAskxMU6BoeN9nYV1OUqyQSCQSyVWAOPsq1ya/r1pFpw4PRhQpgLCug+XLl3kF3Xz58pE3b15v2bq1a+nauQvJyckZ7uvZvn09kcLl0MFDPNylSzqRAmDB/Pm8MXDQOZ1PWpYtXUrvnr3CRAqwwyOHDH4j3Xnv2bPHEymioqKILRhLIBAA7NH+I4cPZ8L4ry/omDJDq3taeT+6Tp44GVFYmDljhjfdpm3bs27zyJEj3H9fu4jbAih4fei1XjB/Pu3atMnQjmjlihW0vbc1vyxenOH+Rr//Ph+OHh1WqAc4fOgQz/R5mmAw6M0bP24cQwYP9kSKrFmzEhcX53UfxMTkP+v5ZcTyZUt5Y9Bg2woj7bILvKYz4lzOPTNs2riJxx7p5okUqqZy/fXXe8d7Ic+PRCKRSC4vwropHI/8edOnAnCXI5a73RS33lGLPDExmKZt+6T4xnunJqcwe9J3xOSPoYnPLurxbo+yf99+mj7QkVx57RGwiqLYthvCHl2rOEUk15tcURTH0kk4IdnCs4RShGLfV9x5AuFYPflDjr28C1lUkpwnF/P6CYXUZ7wf1/rMPy1v8nahN/+1FHZdOZ+1Xo6EUOzAa01DUzVUzRaLVU2384J0HT0QoFajppQoW54vx4whae7P3nX8cLduxOSP4ecpP3r/D3LF7LDr32kaUhS7q8LNGNKc/WpOBpEeCBDQA+gBnUAgCk3Tqd+8FV16P0v2nDlp16Yt744a5f0/xxUrYvLH8OWoYcz68Tu7O8MIkpqaSjA1iGEECQaDGEGDYDAVw7CnLcvECBqYlul0FrrHn/59KwVEiUQikVyJSKEiAqZp8kyfpzl9+jQA2bJlY8hbb7J0xW+sWP07Y78eT6xPqLiuQAGee+EFfl2+jCW/LWfpit+YOy+JkqVKAbBzxw4SfcVzP9v+7/9YvGgRBQsW5L7729G0WTMCgQCfffopBw8eBOwfR/3692f1unUkLVxAg4YNOXXq1AWd465du4jKkoXPxvyPdZs28uOUKV5x1zRNvh43Lmz9LFmyUKt2bcZN+JrV69ay8JdfWLNhfdho9U8+/uiCjum7ST8yJynJ6wABaN6iBXOSkpiTlESLli2JK1SIylUqe8tnTJseto3ff/+dv//+G4C4uLh03QmRGPrGG54gpCgKjz3xOD/Pn8eaDeuZOmM6NWrWBODw4cP0eqoHKSkpAFSrXp1piYms/2MTU6dP87oRkpOT6dH9KY4fPx5xfzt37uTGkiWZPnMm6zZt5O2RI7xlu3bt4ue5c0PPyTffeNN16tZl+aqVJC1cwKq1a5g0dQrFSxTP9HOXlvFjx2FZFnXr1aN9hw6UKl3aW3Yh1/SZyOy5t2jZkjlJSUyZlhD2+O9+/IE5SUl8N+lHACb9+IP3oz+2YCzzFy5k/uJFLF3xG0kLF9CocaNzPkaJRCKRXH5ELMBYFj/98C0x+WMoXaYMEOqmaHr/g77CTXgBZ970KQC8P3q014Xh5lKUveVWyt9aFXucqn2zi7ECf76EpmuoqkYgEIWqaQQCAXSnQKUHAqhOsUx1imiqandhuKNz7RBtcU4FZn+RWN7kzX+7mPzb25dIMkO669D9zBShz2JViJBY4eQAabpufw7rAXRdp0t8X3LkysUjXbty4MABAKKjo3nxpZc5fuwoKxYv8PYZsa7v7V9BaCpCU+3Pd6eLTtcDIas/LSRcaLpOsdJlePzF1yhWuiyjRoyka+cunDx5EggXK+ZM/p6ffvgmTKwwUoMYQfcWEitMw8Q0DPuvZWKaJpZphgn5fqRYIZFIJJIrDSlURGDB/PlhNjJvjxxBm7ZtyZs3Lzlz5uS2228Py6d49/336fbYo8TExHjzChcpwmOPP+7d/33Vqoj7OnDgAHFxcSQkzmDwkCGMeu9drrvuOqZPm+atc3fjRnTq0pnobNHExcUx8t13wkIfz5dX+vWjTt26REVFUeHmCtzTurW3bMvm8I6KKlWr8r8vv6D6bbehOv+pV1WVRx7tRuEiRQD4a9tfEe2JMktcXBxFihYhR85QHkT27NkpUrQIRYoW8boIWt1zr7d87pw5YSP7E6eHhIt727Q+63+ujh07xo/f/+Dd7/LQQzzz3HMUKlyYrFmzUrZsWa6//noAJowfz9GjRwHIlSsXH336CaXLlCYQCFC2XDk+/uxTL8vi8KFDfOsTGfwoisLojz+iVOlSREVF0bJVq7DcB383y/59ITun4sWLh9lc3VShAtmyZTun587PgQMHeKnfK3z6v88ZMGggjzwa8ui+kGv6TGT23N1jjytUKOzxNzjn6dpK+e2u8ufPT0z+UAdFXFxcusdLJBKJ5ArHGUFqmRbb/tzE4YMH6PDgg4CdL5EwZSqVa9Z2uincEbLYFlDAkUMH+W3hPEqXKeNZcYRyKXLS9H7b+sktjgm3KOaM7FU1zRMpNE3zRu9qmhOY7YgTmq7ZI35VR9xQVcfSQ3h2T+5+0vJfFKMlknPhUgsx8nZt3DJ1/bndFopwrPecv8IWKlRPrNDQNJ2s2XLw8DMvAdCpw4PeAKcmzZpSukwZfvp+IqkpKba1FFZY0T/8GGyhWRWqIzzbooWm2/vT9YAjWAfQNd0WMgJR5Mqblwd79KFa3fosXrSI+nXqsGnjRiCtWPEDM793xArTwDAMjGDQFiiCjkBh2uHdpinFColEIpFcvUihIgJLlyzxpgsXKUKDhg3PuH4gEODYsWPMnjWLMZ//j/fffY8Rb7/NggXzvXWOHD6S4eMf7NSJXLlyefePHTsWZvl0d6PwUeFZsmQJsyo4H3Rdp1nz5mHzSpYq6U3v3bsn3foAG9av55sJE/nko48ZNWIEw4e9TTA11VvvyJGjF3RcmaFJs6ae7dSJEydYMD/0PCfOSATsH7T3+oSXjFi5YgWpvuPv2u2RDNdduGChN928Zct0Ads5cuSgUePG3v3FCxdF3E6lW28lbeh22HO/J/Tc+4v4//v8c9q3u59xX33lddtcCDlz5qRTp04Rl13oNZ0R53LumeGmm0LPz5rVa2jc8C7eGTkqYl6FRCKRSK5c/GHYru3Tknl2F94999rf933i7RyuZg90sv25vceGLA6Tpk0G4CMnr8mfS9GxZx9UXQvZPIlQcUwIYY+kdTMpnGKYqjl2I7ru3NdQHSFDVTWvoOXaRfkLbiKNYHG2Yp1EIpFcq0QUN9zMIFcMVu2cCvtzOWQJVbh4CVo82IVNGzcy2LFP1jSNAQNfByBh/Jdh3Xd2JgSABVba47CzhlRVQ1NtkdruonD+6jp6VMDurnC+J6Kiomh6f0faP9nTthds1Jgvv/gCsMWKufPmcUeNGl5nhZEaJDU1xRErjDAbKMMIOjcjJFaYjhVUGrHCL1CcydJNIpFIJJLLCRmmHYG9e/d60/7A4EiYpsnwt4Yx5n//86yiIrk/Ji0AACAASURBVHEm7/3yN4UHLx9KU4ROW9i1j6vEGY/rbMQWLEh0tuiwef7R+qYZ/kNm3dq1vPDc86xft+6M2w0a55YxcD7kzJmT+g3uJHG6bT00Y9p0GjRsyLq1a9mxfTtg2zJlZjS9/7XOmjVrWPZIWlxLKYCiRYtGXMe/z927dkVcp0SJ9K9dRs/9cy+8wMoVK9i3bx9gi2hLlyxh0OsDeejhrvTp2xdVVTM85jNRukxprzvGz8W4pjPiXM49M7R/sAPTp03jt+XLAdi6dSvvjBzJOyNHcmfDBgx9801y58lzzscpkUgkkv+OSKGfkQoqnhe3aWKkpjLrh28pXaYMcYXi+G35cjZt3EjlmnXIkz8/qcnJmJYVlsO0Y+tm1q9YTrMWzYkrZHfmubkUzTt0JnfemLD9ucekKI7lhxCevYjqdFOE/7WLY24XhqLYPuqKP5fiHO2eJBKJ5Foho8/FdGHRQoBlIUywFBNLqF4OkeV00UHA66QzFEHdJs1Zv2I5X44ZQ+3atalbvx6Vq1Thjho1WLxoEQ1atSFPTH7v8W7nniVCFoLeZ7eTWyEUgWUJhGlhWqYtmgQFihJEKALDNFBSU+3MjWCQsrdUpvfAt/jkzYEMeLU/K377jWHDhxMdHc3nX4yha+cuzJ70PQoKd7W+DwUl4v/zhCpCz4cCoCKwsBTTfSK9IHL5XSORSCSSKw3ZUREBTQ0Vb88WGDxqxAg+HD2a06dPEwgEaN2mDf0HvMbQYW/x2BOPn/GxLgViY8PuizQ/SCIVhC9UEMjuWAb5yeiHzP79++ncsZMnUpQtW5anevZgyFtvMnTYW2cVc/4N7vHZP82ZPZuUlJSwvIrMhGhD+GudmpqaLuTZj79o4gZNp+WU4zsKGT+f2bJHeO6JvG6RokWYMesnnn6mLzeWDHUepKSk8NHoD/nfZ59neLxno0CB2IjzL8Y1nRHncu6ZQdd1xk/4miFvvUm16tXDRqfOmTWbZ57ue97blkgkEsl/w9kKKWlHhYLCH+tWc/jgAdo9cD8A/V5+BYDWXR/1jMa94hYKpmGQ+O0EAAYPGQL4cikqVaZ85ar+WIpwmxHVH+7qjNp1R+86XROqa/HkiBmuVRQKnkiBT/iQSCQSSebwi7vpuyqEr6NCeGHXqqbaHQ+6LSYLVaPr08+TI1fusLwK9/tg6rgvvP1ZlmXbQFmmL7Q6vCPBFqGF18Vh71MPy6jQdTu7SHc6LTRdJyY2lr5DR1ChanUSpkyl5u23s3PHTjRN4/MvxnBHjRrMmvQdk778nJSUFCebwrADtoN2Z0Uw1emwMHyWUKaJafmsqzII2ZZdFRKJRCK53JFCRQT8o+I3bdwYZg3kJxgM8rlTKBZCMH7iBIYOe4sHO3WidZs2lCoVCic2fbYDaQn48i7A9tr3j57YsGFDusf8sXFT5k7mIvDtxIle9kT9BncyaeoU4vv0oU3btrRu04agr7hvmRmf58WkTr265Mlrj5Q/fvw4C+cvIDHR7rDIli1bpkOU/a91MBjkj00ZP69FihT2ppcvWxZxnfXr10fc9oWQO3dunujencRZPzF95kzKlivnLZuWMPW8t6sH9HTzLtY1/V+iahpt2rZl/MQJLF66hJatWnnLfp47l5MnTp7h0RKJRCK53Ijkr+3dHGuOxbN/AqBps2ZeN0WzBzqSPUfO8IKS87h1K5az5++d9OodT3R0dFguRYv2nVHS/lMUW6BwxAchVK9jQlM1z+opZAHl2EH5LZ+cXArhC872C+qA7K6QSCSS88UVL2z92hOE7c9anzWUEKiaStbobHR79mUAmjZqRDAYJK5QHM1aNGfrxvXs2PKnt2nvO8dX8I+0e+FZBQqEUBCueO1YBWqaZgd+a6HA70BUFPd1e5Km9z/I/n37qVurFklzfw4TKxbNSuSTNweSmhp0hAjb6skyQ5kU7nzLtOy/loVJuPVTxO5EKVZIJBKJ5DJGChURqFm7ljd98OBBxo8dF3G9PXv2eCPoc+XOxS2VKoUtnzxpkjdtBDMeqU+a/6BGRUWF2UF9M2FCWFfF3r17SZwx4+wncpHY9n/bvOnatWuH2QX9vmpVWJ5G8AwdCZnFbwXkjnZJi6ZpYRkbo0aO9I6zSdOmZI2Ojvi4tNxc8WZy5szp3X/vnXczXLde/Tu96cWLFvHHpj/Clu/Yvp1Fixb61q+fqWM4F0qVLkWLli29+/6wbcjcc+cSqZPhol3TFwn/+cDZzykmJobODz2U5jH7M1hbIpFIJJc7aQUHy7IIpqYw49uvKV2mDPny5fO6Keo3v8cu4Fj+kaRgGgazfviWmPwxPNG9e1guRef4Z1A1LdQ94d7UkLDgdU24xSbdtnnSVM3xQdd9wdm21ZNn+eQrnElBQiKRSM6fMDs+10bP+cx2RWFVFV5GkKaHuhw0535c8eK07PgQ+/ftp2+fPkCoqyLh67EYhl3wx7EO9Bf83e4KF3ufqieGeJ0cuo6mOcHaAR1d09H0ALoeCBO472hwN937DSR7zlw80rUrA/q/BuCJFZvXreHTNweSmpKCYZpOZ0WqnVERtPMrTMMVMCwMI2iLFm5ehQzYlkgkEskViBQqIlCxYkWqVa/u3X9j0CDefmsYK1es4NdffuHTjz9h4YIF5MmdB80p2h86eIiPRn/IwYMH2bVrF4MHDmL+vHneNs7k9R+J1m3aeNNrVq+h11M9WLliBfOSkujSsSPHjh27wLPMPPnz5/emvx4/nrVr1nDs2DEWLlhIfM9eYesmn+N5RqJw4SLe9LykJCZPmsTvq1axauXKsPVa3Ruyf1q3dq033TqTtk9gh0Z36RoqbM9MTKTXUz1YtHARK1es4JsJExn31VcAtLu/Hddffz0AhmHQ+cEHmTxpEmvXrGHypEl0bN/BK94XKlyYVvfecw5nHZnPP/2UCeO/ZsuWLRw7dozly5bz3TffeMv9dlCQ+ecuI/7Na/p8iIqK4roCBbz7w4cNY9XKlcxMTCQYDDIvKYl3Ro5i/bp1HD58mC1btvDBe+9562fLlo3YM+SOSCSS/57k5GSWL1tGwpSpjB87jp8SZ7J+3Xr5n2bJGfELFn+sXQ3AY48/7nVTNG/fiUBUFPhGk7oWUAtmTuf40SO8+NLLaJrm5VLc92h3cueLsQeMeMGsitdF4e+O8DomnCwKt9Bkd1k4th+q5o3g9XIp0gRoSySR2LV9GysWLWDGdxNY+NMM/ly3hpMnjl/qw5JILmvCLPqczAg3XNsVK1TNFpDdz2tdD1CnSXNKlq9AwpSpTJk0mejoaHr1jmfP3ztYu3ypLYw7QdqW171ghuanGezlCieuLaAtVrjddrYVlK67fx3BwvkOuaFoMZ4e8jYlypbnyzFjaNmsOUeOHPHEij/XreHjIa/buUuGYQdspwYJGqm2DVTQnU71OitMw7Q7K8xwwcIVXlxkwLZEIpFILkdkmHYGvPn2MO5r3Ya9e/YQDAYZ/f77jH7/fW/58y++SM1atbivXTvGj7M7Lt4aOpS3hg711ml4113M+sm2Jjh+/Nz+s3Hf/fczccJELxdiZmIiMxMTveUxMTHs3//fjBS/7/52fPHFF5w6eZJNGzfRqnkLb1nW6Ghq1KzBooWLADh27ML/U1W/wZ1kH5Sd48ePk5yczNPxvQHo/FCXsBH+FStWpHjx4mzdutWbV7RYUapUrXJO+3uie3d+/eVXli5ZAsC0hASmJSR4y+vVr0+Hjh3JGh3NBx99SJeOnTh8+DD79u3zjs1Pnrx5+ODD0QQCgXM6jkgsWbKEObNmR1ymqiqPPv5Y2LzMPncZEZ0t+l+7ps+XVve04uMPPwJg7uw5zJ09B4Dffl/F1i1bvPDsSDzcrRu6nt7iSiKRhKhfuw5///03ALdUqsTE777N9GNffeUVJoz/2ru/fOUKcvi61Pzs3r2bEW+/zU+JMyN+fhS8/nra3d+Obo8+RlSW8G6qKZMm88zTTwPwxtAh3OsT8zPi9OnT3Fa1GqdOnqRFq1a89fYwjh09SpVKtwLw9DN9efTxUO7O2C+/4vXXXjv7SfuoW68eH336yTk9RnJuhBVRnHyKbz75EIAGdzWk7b2t7emWrW1bKNPyCkoAKcnJJE2bTOkyZWjSrKmXS1G1dj1K3lTB27SiKPZj3IKTU/BSNduH3BMpnAKT0FSvCKY6WRVucczNpRAZiBRSsLj8OHHsGO1qVgagc8+nafvwY2d5xIVjmiaLZiXy7WcfsXn92nTLo7Jkocl97Wnd9VH+n72zDI/iasPwPbMbEoImuLu7t2jxEtydUqRocIqVAqVAcSgtpbS4VHAIwb1QKFrc3QkWAsR25vsxsrvZKBbod+7rWjI7c+bMuxuyZ/a8530e75SpIunh/WRcf1/2bt1EraYt6PHVN/EdjsmX7Vty+uhhWnXzpVVX31fu5/zJ4/RrrY1BiRInYdH2fXqSVPAukCTJ1Vwb7ObRqoKsahLKsmLBYjHGEMmhusCNjgOHMqZ3N/r16UPxEiXo1qMHSxYvZtPy3ylc5mMsWFBRde8HBQlZkxVUFFQkUO3rPWVJtlfOIaEiAzbQzbwV2aInVCQUWdalojTvJFmSsSSy8Hn/wexYt4pta1ZS+9NP+fGnn1i4ZDEzpk9n+tRpzP5uNF2GjCBBAs0kXArXrqVIehxWCA8Hi2pFNl6zLCEr+nujKEiyjKqqLmNQZPsE8cP58+epW8sn0mMWi4WkyZKSKlUqihYrxieVK1OlalWX392bumd+E7EIBALBqyAqKqIgY8aMLFu5gk99apkrzB0JD9d8K0aMGkmffv1IkiSJeczDw4OOnTszbcb3WKzajVJcKyDc3NyYu2A+NWrWdNIztlgtNGvRnHETxkdz9pslc5Ys/LHsT0qVLu20P0/ePCxeuoRSpe3VJ0FvoNIjVapUzJj5I+kirIR/+fKlS9v6DZ2rFhrHYiCOiJubG3Pmz6PTF51JnDixy3FH2a2ChQqxet1a6tar5yJL5OHhQf2GDVi9bp2Tj8TrkDhR4kj1rD8uW5YFixfxcdmyTsfi8t5Fxdv6P/2q+PbqRaPGjV32B798SYIECVx+D6BVmowZN45efXq7HBMIBM7YFH2Fns3G4UOHuOKQ/I2OkOAQ1q5ZY55ri0b6z2/dOmpWrcbK5SsICgoicZIkFC5ShIqVKpI3Xz6sVit3bt9m2pSp+NSsyeVLl5zOr1q9Gm5ubthsNvzX+8cqvl07dhL07Bk2m4269exSgUasLjIIqE6vJTYP5R35Mv2/Y/yuVAlevnjOiUMHKFuuHFs3b+Hc2bPUa9Medw8PMznhyJrFmu/SN9+O5tLFi3wzYiRpMmSkesMmjt7ZGg5JCmMiydynm2jLunGrkZiQHYy2NUlF1Z6YEF/YPygMCRVjcvFtYrPZGNe/J+P6+3Lx9EksVis58hWgRLmK5MxfkISeiQgJDmbVwrl0rVeTS2dPR9pP31aN6VirCv/s2vHWY44tiqKYUjTvE4pNMTX+X4dNK/40/688e/qEvza/OzleQdSYlRVIepGcXuEgW0xJJotFk+6zWCwkSpyErkNHAtBEr4IfOuwrnj19wq71awF97FHRExQOUlBG5Z7DZ4Xxua+NExZ7RZ6jHJRbArOqQqvMc9OlBK24J3CnRsOmdB06gpDQcJo3acqM6dPx7d2b3n376JUV3xAaFqrJPtls2HRDbUMGyvCtMCsrFIfKihj8NgTvD1Hdc4aGhhLwIIAzp8/w25KldOnUmRpVq3H0iLNywtu4Z37VWAQCgeBVkFQxUsXI8+fPuXjxIs+DgkiUODEZM2YkRYoUTm1CQkK4fOkSL168IHeePE6TvK/Lo0ePuHL5MoqikjtPbpIlS/bG+o4r9+7e5fr163inSEGOHDne6rVsNhvXr1/n7p07JEmShBw5c5IwYUKnNpcuXaJm1WqAZv68e+9e0qZL++rXDA/n/IULPHn8GHd3d1KlSkWmzJkjbRscHMylixcJDAwkefLk5MiZ841UUUTkxfMXXLt+jadPnpAoUWIyZcpIci+v6F9HLN67mHib/6dfhadPn3Lp4kVsNhvp0qcnY8aMgJZIunb1Ko8ePcZikUmfPsNr/R94m+TMmg0A/5OXYmgpeFV8CmqfSxevXonnSD4cKpUvz62bt8zn3Xp0p//AgTGe57d2HX169XLad/T4vy4VFev9/Ojj2wtVVUmZKiVDh31FzVqfOiUZHz16xJJFi/hxxg+Eh4eTImVK/lj2J1mzZTPb9Pb1Zf06P9zc3Dhw6BBJk0VeuWG27+nLej8/vFOk4O9/DmCxWHgWGEixwkUAGDjoS7p062a2X7RwIaO+HgHA78v+JFXq1DG+BwkTJiR1LNoJ4vb5ZyYmHMxMjVWth3bvZGy/nkyZNo2xY74l4EEAP6zwQ5Yt2Gw2wkJD9C/S4QTcvcukwf0oW64cs36ZTZVKlQh4EEC/cZNJFGFMM2RDkCQshua5LuMhyzJuCRJgsVp1rXG7kbasV1PYzbMdvC5ENcUHw/Nnz2j6cVEAPu87kKYdu8Zwxuvx56+zmD9tIgA+zVvTtkdvknnbv1sEv3yJ/59LmTtlPIrNRoYsWZm5egNubs73ma0rleHxwwAGTZxOpVp13mrMsWVM3x7s3bIRn2at6Pn16PgOx2RA2+acPnqI1t170br7qy1kCX75ktaffMTL50HkKVSEcyf+pWDJ0kyY/1vMJwveOC5jhWqXO1JUFcVmIzw8HFVRsNnCCQsLwxYeTnh4GIpNITQ0lF3+a1m1YA516tVl0pQp1K9Tl3Nnz/LNz3Nx9/DUKh7crLrHhRsWq1WTBnTTvImsVqtWgWexOCenVXt1X7gt3Ezg2fQkl5Zk0D0mVP1YuLYd9PQpv0z4lrs3b5jj15xffmH61Gmky5SF7sNHkdw7pd202+qmxWnIXFk0A2/ZkCKU0H/apbKASBfDRUZU99bGuC7uud8c58+fx6dGTUBT8Khes4Z5TFUUnj59yrWr19ixYzvr1/mhKApWq5UZM3+keg172zdxz/ymYhG8GXJmzRbp31rOrNnE3MJbRMwtxA9C+ikWJEqUiCJFikTbxt3d/Y2too+It7c33t7eb6XvuJImbVrSpH03k8AWi4Vs2bKRzWGiKiJ3bt82t8uVL//aE9QWq5V8+fLFqq2HhwcFChZ8revFBs9EnrGOySA2711MvM3/069CsmTJKF6ihMt+q9VKjpw5ebtpM4Hgv0/WbNm4euUKq1aspG///i5fYCOyYvlyALJlzx5lFcbt27cZNngIqqqSJWtW/lj2JylTuUqYeHt749u7N6XLlOHzzz7jYUAAA/v354/ly8046jdowPp1foSFhbFt21YaOvgURSQ4OJgd27cDUKduXSwWS6zeA4OMmTKR9h2NdQJnIjP8NFeuqrDuN8036tq1qwQ8CKB+289xc3cnPDTMrJQx+li1YA6gGaUavhQtu/UicYRkmqRpNem+ErJuhK3JPRnyTxarfaJKM83WkxmGH4Uh5yE5JyhEYkIQEUVRWLN4PgDFPi5Hz+Gu8kgeCRPS6LOOyJLE7AljuHXtKv/s3E656p++42gFjuzZtJ6Xz4NInT4D3YaNpE+Lhpw89A+3rl0hQ5ZXv+cWvB5RSUBJqlb1pkoSKioWVUFVwaKqSJINq2Klkk89Th3WfLOqVKnKN9+OpnmTpqyY+yute+gJLVVF0WWgZEXR+lNUsOhjln55CW0c0U/BIllQVRWrJGmVDnoC3BYerlXn2cKxhcsoikI42vihKDaSennRe/R4/JYuZO+WjVSpVIkFumfi9KnTmDCwD4MmfU8yb28kmwRSOKok6wFI2CQbhAP6vY8sW1BUBdkQ09ClniJKPgkJqPeLVKlTkSVLFpf9RYoWpV6D+nTq/AUdP2+vGcP37cf6jRvJmElbyPem75lfJxaBQCCIK0L6SfDB8deePRz85yBrVq9m2OAh5v7uPXvGY1QCgUDwYVOlahW8vLy4e/cu+/bujbbtnTt3+GvPHoBIpdkMpk6eYvpRfP/DD5EmKRwp89FH9O3XD4CjR47it3adeaxCxYokT54cgA0xlLLv2rGTFy9eAFC/Qf1o2wreTyJLWLx4HsSJg5rs05LFi0nm5U3t5q01g1OHySKAq+fPcenMKerUq8v27dvYt3cvpT+pSp5CRTT/CEmXeJI082yLbE9KGKtkrVYr1gS6cbYu4SEbUh66rIcm/aQlKzTJKNlcrRpxwkdMAP03CAsNeS3plMcBD3gc8ACAkhU+ibZt7RatNVkz4N8Df7/yNR0JCQ5+5XNDQ0LeSAxv+3qhIa/3O4qKTSv+BKBK3QbkLliYjNmy6/tj7+2kquo7fx//H4iYINaqHHSvIbPyzWpWIFisbprhtdVKx4HDSJI8Of369CFNmrTUqVeXfw/s49GD+wD2Sg1V0eWftAo/1cFgW0uo22PRfI70GByur3kdGZJQuvSTmxU3vVpDG18suLkloEG7DrTs2ouABwHU/rQWWbJkpXffPjx7+oQJA3sR+PixVpURrlUROlZq2BS9WsPmIAelOptrOz4MhMH2h0OBggWYNXs2oCmAzPrpJ/PYu75nji4WgUAgiCsiUSH44BgxfDgtmzWjf5++pgHsp7VqUap0qXiOTCAQCD5c3NzcqNegAWCvloiK1StXoaoqZT4qQ6bMmSJt8+jRI9av0xINFT+pRIGCBWIVR8vWrUmqr3hftHCBU3y1amumfn/t2ROtT46//3oAsmTJQpGiRWN1XcH7g6Och5mEUGHHutUAPHz4kIAHATT/ojuyxeJQcaGiqpr84ZpF8wC0FbK6L0XNJi20dvqqU81/wmKf0NLlmyy6xrhstWKRZVNn3Gp1czHP1vwrdNko7MmImCqSBB8WZ44d4buBvWldqQz1i+enbtE8tK1SlqlfDeL8yeNx6issNNTcjsnnxi2BO+37DKR+28/JmV+r4r1y7ixDO7VlaKe2PHv6FIDff/7R3PciyPmzMfjlS5bNmYVv03rUK5aPhiUL0LBUQYZ0bMsOvzUxTkoe/ms3I3t2pnGZIjQokZ+GJQvQtf6nLJk5nWdPn8TptQNsXbPCjHXzKtcJ/gunTjCuvy/NyhbTrleqIP3bNGXrmpXRxnr+5HG+G9CLZmWL06BEfuoVy6uft+KNTLxev3SR00cPA1ClTgOnn1vXLCc8LCzKc188D2LVwrl0b+RDgxL5aVAiP00+KkrvFg1Y99siguPgJSewE1ky2PSq0H2DZIeKN0Omz2LVJP2MxEGixInpNmwUoPlVdOveHYAF0ybaE+Cq3QbJMNU2JAkdJ/cl3flIkg2DbRmLxTlhYbW64ebmpvlVWBNgdUuANYG2z/Su0MeakhUqMmTKDyRJpiVSLl26xNejRhL45AnjB/gS+OSxnkhRteSEIX2lOCcrtARF5MmKyBDJig+DosWKUbWaJoO9euVKwvTPofi4Z44qFoFAIIgr4luU4IPj6ZOn5rbFYqFBo4ZMnDwpHiMSCASC/waNmzQBYPPGTTwLDIyynZHIMNpHxt/79hGqT8h17NQp1jEkTpyYFq1aAVpVxdOn9s/8+noiJTQ0lO3btkV6fnBwMDu2aSXs9Rs2iPV1BfFPZKs6HQ1Lt65ZAcC5s2dJ5u1NyQqf6CtaMWeQVFXh+IG/uXPjOmXLlWPsmG8B+KzPQKz65JRmfm2setUSFpIsOxyTtMks2WKuwDVNtGUZi2zvx0h0OOp+RzV5Jvgw2bZ2FQPaNmP3Bj8ePwzQKmskmYf377Fl9XL6t2nKkb17Yt1fyjRpTfmxlfN+4eThg9G2r9+mPV0GfUWNRk0BCAp8yrH9+zi2fx/h4dpE0LWL5x32hZvn3rp2he4NazFv6kQunTlFeFgoVrcEhLx8yb8H9jFxcD+++uIzXjwPcrmuqqrM/HYEw7t+zj87t/PyeRAJ3N0JCw3l+qULLJn5PR1rVeHG5dhrY69dupApw77k2P59ZMmZm+oNnMeQZXN+pk+LhuzZ5E9QYKAZ65ljR5gybCDf9umOzeH1Ofbbt2Ujdm9cT1DgU6xuCVAVRT/vSyYO6oeqvq6J9h8ATpUUletoq4+fPHzIP7u2R3re82fPGNKhDb9MGMPV8+cICw3F3cODF0HPuHDyBD+NGck3vl8QFhYa6fmCqIlsMt38rI2kskK2aMkJWZbtFQ169Vzm7Dlp0qELAQ8C+GnmTNq1b8+dG9e5euG8vU/dd8JMUChactzwosBhvJIkyWmcML2MjOS3kTTRqzqsFsP/yGrGZFTwpUqXnq9/mE2ugoXwW7uOmT/8YCYrvuvvy5PHjzTpQ5uD14VNcaqssOnJCyWaygrBh0m16tUB7f73xPET5v74uGeOKhaBQCCICyJRIfjg2PP3Ptb5r2fF6lXsP3iQSVOmkNDTM77DEggEgg+e/AXyky9/PkJCQli/fn2kbQ4fPszVK1fw9PTkUx+fKPs6euSIuV24cOE4xVG4iL39sSNHze0SJUuSPkMGADb6R17K7ljCXq++kH36r/Dk0UOuXbxgPm/ZpadmXooxWaXpbYcGB+On+1gYlRdtfPuRJGkyJGTNg0LSJ60Mw2yrFYtFNislrLphtjGJpFVP2GWhZH2ySdI1wSOaZzsiEhQfNi9fPGfa14NRVZVy1T9lxvJ1rDx4gjVHzzBlyXKy582PLTyc8V/2ibE6wsDq5kaj9p0BePwwgC8/a8HInp1Zu2QBVy+ci3HCMHve/Iyft5Tx85aSOGkyAFp29TX3JUqsGcW/eB7EV1+05+7NG1itbnToN4iFW/9izZHTzF63hU8bNwfg6N97mTion8t1ls+djd/viwEoW60mv/pvY/Xh06w6fIpRM38lVdr0BAU+5etuHWIlZbRszixmjdVWrbfr1Z8ug4c7/X0c3L2DeVMnANCofSfmbdrF2qNnWLBlj/n3/ve2zcyf4SS/pwAAIABJREFU7rw46ezxY8waOwpVVcmWJy/T/1jNmiOnWbb/GGPnLCJ3wcLs9F/L2X+P8qqEhYWybe0qAKrUa2juT5MhI/mLlQRgoy4LFZE/f53FhVMn8EychC8nTGXxzv2sOnSKP/Ye4bPeA5AkiWP797H+9yWvHJ/AGScZKFnWKytkuxyTrCWd7dUW2r5KteuSu1AR/Nauw8tLk81ZOH0SNpsNAMXxb1NFk3xSFECNUFnh+DesPZeMKj6LVt0hG8lwIwlutTglNOxJcm28sVrd6DZ0JA0/60jAgwC+GTGSsuXKEfjkMd/160ng0ycOSQcFRXGQq1LtSQmM8VJyrlqMLFkhkhcfBo5eEFcdDH/j4545qlgEAoEgLohEheCDI2HChOTLn58iRYvi5e0V3+EIBALBfwqjSmLlssjln1b8qUl11Krtg2c0SeL79zRt5+TJk5MkgnlxTGTKlNncvnf/nrktSRJ169UFYNeuXab/hSNGCXvhIkXImu3VzE3bt2lLXR+faB8N6tR9pb4FMRPZZMnezRvM58m8vSlVqbK2ujWC7MauDX6mHM25s2f5uGoN8hYuqldNSKbxtZGkkGSjSsLqoGWur3q1WuyyT25WcxLJkPAwfSkiGGeL5MR/h1NHDpkr+LsMHk6OvPlxc0uAJEnkLVKMETN+BuDZ0ydcPns61v0269SVll164pYgAQD/7NzOrHHf0L2hDy0rlmZcf182r1rGQ4fPP4NESZJQqFQZCpUqg5ubGwCZc+Q091msVkBLNNy7dROAkTN/pUmHL0iZNh2SJJExW3Z6jRpLm559ADiwcxuH/9ptXiMoMJClP30PQMVadRg65QfSZ84KgJtbAkpVrMyIHzQ98nu3bvLvgX3Rvt5FP0xj3tSJyLKM78gxtPiiu9PxsNAQZo0bDUD7PgPpNGAIaTJoE16p0qWnrW9feo0YA4Df74udKkAWzZgCQKbsORg/7zdyFSiEJEkk9ExE0TJlGT//NwqWKPVak677t28l8MljLFYrlWrVcTpWpa42uXf4r108uHPb5dzj/2jeIhVq1uITn3p4p9S8mpIkS0bzzt3MSpljMbyHAlcifva67HdIIJuf/RaHigar5kekVVdYsFqs9Bg+mqTJvZg+dRply5Xj2dMnmj+MBLIkoZpjjmJO8iuK6uBj4RiJql1TMpITRpLc4iIF5ehdYU2QQPupS1MZvhWy1UrFWnUYOGEaSZMnN/3EAp88ZmiH1lw4dcIuSWVUT9jszzV5KPu26a0RRWWFGMs+DNKlS2duOypPvKt75tjEIhAIBHFBJCoEAoFAIBCY1GvQAKvVypEjR7hy+bLTseDgYPz1SovoZJ8AgnSd9FSpU8c5htQO5zwLdNbVNVZ8hYaEsnP7Dpf4zBL21zDRvnjxImdOn4n+cebMK/cviCWmP4Vqyj4BtO7WC4vFqrexNw8KfMrmlfZVzWkzZqJW89YRJDjshtcWi4Msh9V42BMTFn3ySLbYV7pKsuRsnq2vkgVckhVikufDJ3ESe5L17+1bXI6nSpeeyYuXMX7eUlKmSRvrfmVZpq1vXxZu/Ys2PXqbk+sAgY8fsWeTP9OGD+azauWZNKQ/t67FfWXqtjVaBUDZajUpXrZ8pG2adviC1Om1FbdbHP7G9m3dZJput+3ZJ1LPlex589H4885UrFWHoGj0z3+ZMIbfZs3A6paAoVN+oFaTFi5t/tqyiTs3ruGVIiWNPusYaT81GjUla+48hLx8yc71awHNN+Lo39pkbeP2nU1JLUfcPTxo6+taMRIXNuqyTyXLVyKZl7fTsQo1fbBa3VBVlS2rXRP8ifSYThz8x/QUcaRtz76Mn7eUll16vlaMgihwkIAyPr9NTyJTDkpPQlstJEiQgP7jJgOYiYC1i+drVUMOn+mqoup+EEZVgmJ6JWk/dAkofYySsCdMnEy+rVaHxInVNPi2Wu3m2lajqk+PM0OWbHw56XtyFyri9FKnDBvIhVMn9ESE7lNh03wrbDZNAkpVFFeD7UiSFUIS6sMhuZd94Wa4zVka713cM8c2FoFAIIgt1vgOQCAQCAQCwfuDt7c3latWYcumzaxcsYL+AweaxzZu2EBQUBCZMmWiVOnS0faTWJcfeXD/fpxjuO9wTpKkSZyO5cmbl9x58nD+3Dn8/ddTp569ssEoYZdlmdp1nFe9xoWx47/Dyyv6ij0xCf1mcTLQxu5Rgapy7eIFU/YpmXcKSn1SOVKJjZXz5zj12fnLr7BaXW91ZVkzO3X0o9CMs50rKbSEhGz6VRhJDUmWHCadIpd8Evw3yJG/AKnTpef+ndv8NGYkf2/bTOlKVShSpixZc+VGkiTyFS3+yv0n805Bq269aNWtF0GBgZw5dpgz/x7l2P59nP33KIqisH3dav7avIGvv/+Z4uUqxKrfly+e8+Cutrq/XPVPo2znlsCdMpWqsO63RVx3kFa7fknbzp4nHxmyRL3KtmP/wVEeUxSFGaO+YsOy3wAoWb4iZavVjLTtlXNnAciQNZuTxFtEMmXLwdXz5zi4eyc+zVpx4/JF81j5GlG/zkIlS+OVMhWPAx5E2SYq7t2+xTE9GVLVQfbJIEmy5JSsUIn9O7ayeeUyWnTp6ZTYKVetJkf27uH29at0rl2VynXqU6TMxxQsUZrESZPinSo13qnintAXOOP4GayqqvNnsiSBoiBLMoqsIKsyCoo94a2fg27AnTpdej7rPZAF0ycCWsXCDr81+DRrZW+LJv2kqHp/ioos6xUWqoKsOowLRlWH7sytoqJaVFRJj02/NjajQkSTmpJkGUWxmQkOVVFRJAVJlkiW3IvuX33D5pV/4v+HXTZs8tABDPhuCrkKFkJWQEVC0aWrbJINWZeh0qTqNEFEdHksIw6X90/wXvPk8WNzO2mEZO27uGeObSwCgUAQW0SiQiAQCAQCgRONmzRhy6bNrFqxkr79+5uTLit0OajGTZvE+CU2dRpt4uXJkyc8CwyMk/zTjRvXze00qdO4HK/foD4Tx08wv2QZElRGCXv5CuVJmSpVrK8XkYqVKpE2bexXRwveHqoE+3dsNZ+37t4bWbY6GeqqqsrD+/c4us9uaPx5v0H6SmbVlOKQJH1Vqz4pY8iAGCtVrXrFhKMnhZmksOqST7I2seOYpHCclBSTO/8t3NwSMObXhYzr58vlc2dMw2qApF7eFPuoHJ/41KX0J1Ve+3efOGlSSlWsTKmKlWnn24+H9+/x26wf8P9zKaEhIUwY1Jf5m3fjEQtftptX7NVwGbNGL+eRQT9+69oVFEVBlmXu6J/BRrXFq7B93SpCQ0KwuiUgPCyU/Tu2cmDHNspUrurS9vplLTlx8vBBejaJecLMSDjcvn4N0OSwPBMnie4U0mXK/EqJis0rl5kT03OnTmChLjXlSKA+OXf/zm2O/b3XKaFUq2lLHgc84M9fZxH45DFrFs9nzeL5SJJEzgIFKVn+E2q3aG1KQgleHynCZLuqahJMkqoiI+uaEpJW+aDIYLGiqiArCuFoiYSPq1Tj1OF/OPTXLgA2LvuNip/WJkny5PYLqegG2yoWSauwkCUFZFmvspBQNSsjl/hQ0XyOZAXQ/Y7Qqq0UmwxISIqCrEgokoyiyNgUG5JNQlK0RIPVKlOrWUsy58hp+r8ATBrcz0xWSKqEqspaxYQsoSggYUPGgiopqKoFFAVFRntvFMWpSlDw/vPggf1zLWXKlC7H3/Y9c1xiEQgEgtggpJ8EAoFAIBA48UnlyninSMHdu3dN6YNbN2/y9z5tgq5ho0Yx9lG0WDFz+8SJE3G6/onjx83tIsWKuhyvW68eACEhIezYrpWthwSHmCXs9Ro0iNP1BPFLdNISqqqySZddyZwjJ+WqGyuyHSagJIlfxn9rnlO+hg/5i5YwDa/tOuZ202stQaHLb8iynowwPCncTE1wi2zRTU9ls8LCSfdcTOT858mQJRs/rPBj7K8LadiuA1lz5wE0iaZdG9YxyvcLBrRt5uSbEB2Xzp7mxMEDXL90Mdp2KVKnoefXo82qhcAnj/ln945ozzEwZJtAkz6KDnePhACEh4VhCw8DMH1eYpMUiYrQkBDSZ87KrDUbyJ4nHwDfjxoWqfxRqB5vkmTJyVWgUIwPL31SPywsFIAE7tG/Rq2Ne5xfg6IoTnJOd29c5+aVyy6PwCf2VcQblv/u0k+rbr2Yv3k33YaN5OMq1UmUJAmqqnLh5Al+mzWDz2tUZIffmjjHJ4iZyCT5NAkou1eRZrJt+Bdpn/uSRaZ93y9JmtxeXbli3myzmk7DXvlnVPgZvg+apJKjgbU9HjMWR/8KXYbKMNq2WqxmhZ99rLI4JdENg/CCJUozbu5S0mfJal5n0uB+XDx10pR10nwqVNNc23xu7ledDLeF9NOHw4H9+83tgoUKuRx/l/fMMcUiEAgEsUFUVAgEAoFAIHDCarXSoGED5v46hxXLl1O+QgVWrVwJwMdly5IhY8YY+yhbrhxubm6EhYUx59dfKVuuXKyu/fz5c35fqkmFFC1WlOSOqxd10mfIQMlSpTh08CAb1vtTu04ddu3UVop5eHhQvUaNOLxawXuJPjly7cI5njx8CECHfoOdjhsTKJfOnOL29asApMuUhXptPtNWp+rSG6ouEi7pS1YtFouWtLDIZgJCthgTRnrVhDGRpZtm6+UYpnSHFIlmv+C/TdGPylH0I+1z7Omjhxw78DebVy3j6L6/OHPsCD+NGUX/sRNj7GfxD9M4sHMbuQsWZtrvq2JsX61BY+ZM/g6wVxDEhKNc061rV8mcI1eUbQ3/izQZMuKWwF3fzsTJwwd59CB66T5beLguTSNj1Y29DTJlz8n4eUtIniIlfb8dT+8WDXkc8IBZ40Yx8DvnqoTMOXJxbP8+8hcrYZp0x4b0mbMAWoVFWGiIGX9k3L/tanQdE4f37ibg7h0AfEeOIXXa9FG23bjiD/Zu2cj+HVt5+ughybxTOB1PniIldVu2pW7LtthsNi6dPsXhvbtZMf9XXgQ9Y/KwgeQpXMQ0LRe8HkZVheO2JGsVAzK6BBQWzVcCsKAiSYpzJ+4J+HLiNL7q/BkAh//aTf02n7v40UTm6yCpkllx4VSh4JjgVlVddglUoxIDSduWJKy6eTdISLKiVVPYNC8MSbJpiRA9yZDMy4shk39gwfSJHNqjVYFMHNSXjgOG8HGV6kiqRUtKIAOK9p4oEgpaFYeqqFpVhfGeEYmEluC9Q1VV/Nf7A5Ala1bSpHGtQn5X98yxiUUgEAhig/iWJRAIBAKBwAXDLHvzxk0EPg10kn2KDd7e3vjUrg1oOrhnTp+O1Xm/L/2Np/qK2zbt2kXZzjAI3LljBy9fvmT9ej8AqtesQaJEiWJ1LcH7iaNPxYEd2wBtIjNPoSJOqzsNne1fJowx93X/apRmgC3rehsSujyT3SxbNg1MjQoKi2lmarU6PzdWshqJDCN5YVzfcRJHTOj89zh7/Bi7Nvhx7sS/TvuTeaegUq06jJm9gI+rapM8Rxykx6LDkFq6dPY0wS9exNj+kYNnT6Ik0csbGXilTGm2PXXkULRtjeMZs2a3x6ivzL505lS0MQ7t3I76xfMzd8p4l2OFSpYmeQpN+iNHvgI07dgFgB1+a5zk3ECrlgLNHDu6Fdxn/z3KDr81nD56GMBpUv/Ygb+jPO/OjevcuRG7JI8jm1b8CUDGbNmp1aQFJcpXjPJhmIDbwsPZulZLQAW/eMGuDX7s2uBH8MuXZr8Wi4XchQrTsmtPJszXEvOKzca/0bwGwethSvQZSQMks5LB+GmRjeo5Cdmi+RalTpfByYvl53HfuHz2G1UUqm6irSoKKqDoSQY1wtBgr+yQnbbNyg7JSKLL2rhk0cYro5rC2C/rlR/aOCVjtVrp2H8IHfoNMq81Z9I41i5ZoFV5KIpeNeFsoK3o+1AxEzdGwiWmzw9B/PLbkqWcP3cOgBatWkbZ7l3cM8c2FoFAIIgJkagQCAQCgUDgQp68eSlQoAAhISGM+Ho4N27cIFGiRNT8NGrD0oj0G9Df/ALU29eXR48eRdv+8OHDTJk0CYDCRYqY5eqRUau2D1arleDgYDZu2GCWsNevL2SfPlQcDbRVVcUWFsbvs2cC0HHAELONI4f37DZlV7oMGUGS5MlNiSeL7j2hTfDo1RIWwyhbk3uyOMk92SU2TNNsIzlhyH3ok1OGEbfgv82Jg/sZP7A3348cGmWbPIWKAPDy+fNY9Vm+Ri1Am9CePGxgjNIqezb7m9t5C7tK4QFO0jIGZT7RvCDWLV3I/TuRVxPs37GVM8eOAPBx1erm/kKlygDw/NkzNurSaxG5c/2amTAoXalytK8BoFXXnmTKriUkZowcZspLAXxUpTruCRNy58Y1dm/wi/R8m83GdwN7M3FwP25e1Tw4chUoRNZcmhTX7z//iE03DY7Iinm/xFnC5snDAA7s1BKl1eo3jrF9vqLFSZdJq/Aw5OrcEiRg+tdDGD+wd5SJrCw5c+GeUJPfehmLxJUg9kT8jDY+t80EgUOywu5XZE9YG88/qlKdUhW1/+O3rl3h5JGD9ko7+9UAhzFK/6noyYCoZJRMOUFZtktPWR2SEhYZ2WpPpFutVqxu2sNidTMTFharFVk/r0zlqoz5dRFJvTTZqrVLFrBmyXxAsidUFLsElBGb4/aZY0fo1bQug9qLCef3lTWrV/PNyJEAZMqUiVatW0fZ9m3fM8clFoFAIIgJkagQCAQCgUAQKY2bNQVg3Zq1ANSuU4eE+oRKbMiQMSOjx4xBkiQuX7pM3Vo+bPD3JywszKld4NNAZs38ibYtWxESEoK3tzeTpkzGoq9cjwwvLy8qVqoEwHdjx/HixQu8vLwoX7FClOfElju373Dr5s0YHw/ux92YVRB7zp/UvEqy5MzlOkErSYSGBLN87iwAPqldj4IlS9nlmywW86dstdpXy1qM1aj6xI5sVE/I9gqLCJUUkq5dLonkxP8dhUp9BMCVc2eZN3UioSEhTsfv3LjO5pXLAChYolSs+sxbuCgVavoAsHfLRkb26Mz5E8dd2j17+pQlM6fz+88/AlCiXEVyFXDW/PZMnBjQKj+ePnZOBLfo0hN3Dw/CQkMZ0qENF0+fdDq+e+N6Jg0ZAGhVHlXr2b2HChQvaSYr5kz+jq1rVjpNst68cpkxfXtgCw8na648FCxROsbX7ZbAnb7fjkeSJB4/DOAnB/Nf75SpaPRZJwCmjxjKtrXOklgvngcxbfgg7t++ReKkSc1kjyRJtPXtC8CZY0cY3asLQYGB5nlhYaHMnzYR/z+XxhhfRLauWYktPBxJkqhSp36szqlaT5v0u3nlMqeOHMJitVKgeEkAZn83mivnzjq1V1WVZXNnE6JXWxhtBW+OyCrfHJMVRhWDVi2njxkO44QxFnQcMMSc+F/0/RRsNsWUAjTRfSq0SgpAddzvuu3in2H4Zkgysl4JaPooWSxY9cSERa+wsFgtWlLFYtWS87LF9GZKlTYdY35ZSL6ixQFYu3g+axbPMxcDKA7+GVqlhbZ95tgRejdvwOAOrbl64Tytuvm+0d+HIPY8evjI6Z7z+vXrHD1ylOV/LqNNy5b079OX8PBwEidJwtTvp0dbGfG698xvMhaBQCCICeFRIRAIBAKBIFLq1qvHuG/HmImF2Mo+OVKvQX0UVWHY4CHcu3cP3+49SJ48OTly5iRp0qQEBARw7uxZQkM1U9QMGTPwy9y5ZM+RI+a+69dn+7ZtPAwIALREitX6+rc2TWNhFg6ah8byVTFrzAuiJrpVzn9t3QhA54HDzH2OJqabVi7j6ePH5C1SjMaff6FNGskSFmStX9lRD1y1V0dYZHNiR0tU2FfSIjmYrMqSXkkRvYG2SF78d8lbuCgN23Vg1cK5LJszC/8/l5AjXwESeibiUcB9Lp0+haIoJPRMxOcOcisx0Xf0eJ49fcKx/fs4uHsHB3fvIGXadKTNkBHPxIl5/DCAK2fPEq6bW+cuWJgB30126SdLrjzcunaVNYvns2bxfAB+/+sQSZN7kTFrNvqPncz4L3tz58Y1ejWrT4YsWUmdISPXL17g4f17AHilSMlX02a6mE0PGDuJL9u35N6tm0wZNpBfJowhZ4GCBD5+zNUL57CFh+OeMCFDJs9w8aeI6f1cuWAOO9evpUJNHz6uolVyNOnQmSN7d3PuxL9MHjqAn7/7hux58wNw8fQpXgQ9w2K1MmzqTDwTJTb7/LhKdarWa8S2tSv5Z9cOWpQvQdbcefFI6MmFU8cJCw0lbabMeHgk5OqFc7H+HRlVEUU/KkvKtOlidU7lOg1Y/ON0ADYu/4MCxUvSfdhI+rZuwv07t+nRuDZZc+Uhdfr0hIeHc/nsadODp2q9RmZ1juDt41ghJ8kympWRon/Gy8iylnQw2lhxY8jkHxjSoTWBTx5z+K9dfFS5mlmZYc9K2FHNf2Unr4qI3g+mh4YkaefofhqSqoCi+VjIaNUZssUCNlBksAA29JWninYpRVWQ9KoIj4Se9Bszke3rVvPbrBmsWTQPwJQpU1XN/FtS4czxY8yZNJbrFy8A0LJLDxq060DCRIlZ+tOMN/fGC2LNmNGjGTN6dLRtChYsyIQpk8mdO3eM/b3OPfObjkUgEAiiQyQqBAKBQCAQRIqXlxdVqlZl08aNZMmShRIlX221Z4OGDSlZshSTJ01ky6bNPHnyhMOHnHWPU6VKRdPmzenWo3usqzaqVq+Gp6cnL3S5jHoNhOzTf4m2PfpQ9KNy5C1SzJR00SaR4OG9u6xdPJ9kXt50GjgEq9WqS1doGtsSgCQ7GGDbExARV9JK+mpaI0lhSD4hRZT2EPw/0mngUFKnz8DqRfO4d+smx//Zbx5L4O5O+Rq1aPFFDzJmyx5NL854eHry7ewFbFz+O6sWzuXW1SsE3L1jGjcbZM+bn7ot21KlXgPc3BK49NOx/2BeBD3j/MkTvAh65nK8fI1PSZ1+GfOmTOD4wf3cunaVW9euAposUYWaPrTvM9DFHBggVbr0TF26gvnTJ7HDbw3Pnj7h6L6/zOPlqtekY/8hpM2YKdavG6Ctbz/279jG7etX+WHUVxQsUYokyZKT0DMR4+Ys5reff8T/zyUEBQY6vdeFS39E+94DyFukmEuffb8dT64CBflj9kwePwzg8lm7J1Kxj8vhO2KMWT0SG04ePmi+T7GRfTJIlykzBYqX5NSRQ/y12Z+uQ74mXeYsTJi/lCUzv2fv1k1cvXDOKWGSJWdufJq3onZzIZXyNnFMBhjbqqSPDqo2DkiqVsWp4piAVszz02TIRKcvh/HrhDHMmTSO4uUq4O6RUB9TnK+nqvo4ZChBSZj1F5Elt2VZtpt/WyyoqoqsgCpLmgeGBBjm2pKEpCiokoIkK5qhvSKjKooerqRt61Sr35gsOXPz05gRrFk0jyRJk1GjsVYxe/b4MeZPmcD1yxcBaN65G/XbtidhosTa2BlHyTTB20OWZZInT07KVKkoWaokVapU5ZMqMcvuGbzJe+bXjUUgEAiiQ1LjKtgpEAgEglcip26g6X/yUjxH8t/Fp6C2Cv/i1SvxHIkgKl6+fMnRI0e4e/cuz549I0WKFGTKlIlChQvbzS4F/zmi+vxzvA01dbwVu9GnoqooNhs23QTUZgtHVRRCQoL54+cfKVauIjny5nc+z8GM27EKwm6cKrvIesi6LJSTuapegYFjH5FMMImKiv8PFEXh7s3rPLhzh9CQYLxTpSZ9lqwk9Hx9iYsHd25z9+YN7t66QVhoKKnTZyBtxsxk1P9u3gRPHgZw4/IlXgQFkdTLi2y58+Lh6Rmrc4NfvuTy2dM8e/qUFKlTkyFrtjfyuqPCFh7OpbOneRwQQOKkSUmfOSteKVPGeJ6iKFw5d4aAe/dw93AnU/acpEid5q3FGVeePX3K3ZvXefTgAZ6JE5MyTVrSZcoc32H9X+E4Pjj6IimKoiUEFG3MURQFm82Gqmo/DSNqRVGZNXYU/+zaRv02n1O/TXt9jMAuH6WPKU7PLZqkExBphV7EKZmInk2qoqDo8Rlm2IoZq01vr8XnPBbaqxADnzxh9nff0Lh9J1QJFkybxI3L2pjcpGMX6rZsR6LEic3EiyGlWL94PsD13toY18U9t0Dw9smZNVukf2s5s2YTcwtvETG3ED+IigqBQCAQCATvjIQJE1K2XLn4DkPwARD88gUJPDz0qgi0igdJJhwFq1sCGrXvTAJ3D3OSRpEAxUE3XEUzPMU+IWQYlUqGtJPjhJKZlMDJPDuyJIVITvz/Icsy6TNnJX3mrG+871Tp0pMqXXrTF+JtkDxFSpKniHmyPzI8EiYkf7ESbziiqLFYreQuWDjO58myTI58BciRr8BbiOr1SZIsGUmSFYq5oeCt4/gZblZQqKBKmuySrO9XFbuHhCKBJKl0GfIV544fxWLRKzGMvkwZqMiJKPkUVTwRDoCiaPJPqooiK0iqRa/YULSKEEnSE/sSoIAsoSj2JIfeEcm9vWnQrgPzp03ixhVtYrPx552p3aINnokSOyVNxBgnEAgEgvhCJCoEAoFAIBAIBO8VxgrOlYdOAtpkkKpgyjO1rfwxAPO37NHkMBQFCRlVUlz6kvRKHS0hIWkG2YZfhYPBtmyxAKq5ijQ6XwqBQCAQfHgYsk/Gtoksg6IgI6PICiAjo6KiV0HoCQgFG1a3BEz9faVWfecgESjLzsltA6O6IS7jiEtsqoqkqkiqnpSQQJIs6MqGIMtIioIsKZpPhaQnKtAqL86fPM7C6fYKiobtO+LTrDWeiRI5JVocInCSqxIIBAKB4F0hEhUCgUAgEAgEgvcWbWLJmIuRnTSztZWvCgoSkiqh6OphxqSSNomEXk0hOyUpJEk2kxSSrPlZyIgEhUAgEPy/EGmyQh9LJFVGknWpKMk+pqiqikXW0hjOSQ+JZ0+fkNwrhb0ij1cfR1zOc6g/R+yRAAAgAElEQVSusKAZZ2u1H7qXhKTHqUhmkuLs8WPMmzKBG7oHRaP2nfBp1gr3hAn1cdA1Rm1bk40SKuECgUAgeNeIRIVAIBAIBAKBIF5wXN1qPo84YaInGpAxqyoMZFnCmKoBzRTVceLITDZIkmacLclYdJ8Kw7cCw78C+2pYHJIUQvJJIBAI/jtENu6YGBV4iiahpKoSMpr/iWyxgE2ThzL8I25eucjBPbs4d/wYpw4fNLspW60meQsXpUCJUmTNlee14wVdkslI1quqVvMhARZVyysokmawLUmc+fcocyaN5folLUHRuMMX+DRrhUfChE79StgrQiTzH/24KZ8oEAgEAsG7QyQqBAKBQCAQCATvDU6JASRNM1ySAU3OwtF0XZYtGJrcmrxGxL40Q1AV3ehU0iSejCSFVl2hJSkMiaiokhQCgUAg+G9jSjnJMigqEiqqZJcflC0WFEVBCQ9j0Y/T2LTiD/Pcj6vWIFlyL25eu8K+rZvYt3UTALWbt+bzfl8iW+WoLhu7uLD7R6jaE62qUFFQZc1b6fTRY/wyYQzXLl4AoGnHrvg0b42HhwcqzgOkhHNSXiAQCASC9wGRqBAIBAKBQCAQxDsRV7ka+2RVQpFUQNbmjrD7UGiJBxlF1fZFer6ka4ybvhPaeUaVhelJEY15ttGXQCAQCD58HCf+HZ8DpgSURbagKgpYVFRFQpIUFEXh5uXLfNu7G08fPaRgidJ88eUwUqVLb3ooGWPL9YsX+X7kUNb/sYS9Wzfx/Z9rSO6dIspEeFRjTMQqQfO5RY9Pljl77Ag/jR3FtYvnAWjeuTt1W7XFPWFCVMUuURVpJYkkIRmVi4YMlBjuBAKBQBBPiESFQCAQCAQCgeC9ILJkhTaJok0cGckKA9lq1U1GZVOKw/k8RyknxwSFjJNxtmSvqIiYpBAJCoFAIPj/QtKTFegVC5pnhYXgly8YoycpfEeOoXz1Wg4nae5IkqxJKmXJlYtJi/5k08o/+XXiWHo1q8+8jTuxJkgQt1iikKpSVZUz/x7lpzEjuXrhHAAtu/SgXtv2uLt7ABKKoiDJqumnIakRfS+cxzxjbNSqGMXYJxAIBIJ3j0hUCAQCgUAgEAjijUiTEw7HAFBBkmS9msJR+kk32tYnXxx7MfS2HXW47ZJPEhIOptlRJCkEAoFA8N8loqSSgZMfBJpnhSKpzBr7DU8ePaT3N+OoUMPHxVBbG2sA9IS4Beo0b40sScyeMIY5U8bTZfDwOI8zEStAzhw7wo/ffs3V81qColW3XjRo97meoABVUVCN5LyKLo2oYo6SxmCpx2pP6mtjrUTklYUCgUAgELxtRKJCIBAIBAKBQPDe4DQxoq9QBW1exV5ZYW9rTAyp2CsqTGmNiJNGqOY5jtUWLtcVCAQCwf8tRgLd0bPi3NHD/LV5A4VLf0SlWnW0JDk4JACcqxKQNN8IJIlPm7Rg86pl+P22iJqNm5Etd95Xiuv00cNOCYrW3XvTsF0H3HWTbLOyUJa12FBRJc1sW1LBSPS7Vmhor0FGq6SIOD4KBAKBQPCukNSolrAJBAKB4I2SM2s2APxPXornSP67+BTMAcDFq1fiORKBQOCI8fknEAgEAoHgwyPivbUxrot7boHg7ZMza7ZI/9ZyZs0m5hbeImJuIX4QFRUCgUAgEAgEgndCdF+mHNfO1C6UEwC/4xfskhUOZqD1i+cDYPWhU6iSq4m2gSRJ2ipSBwkLR9Nss00kq0ZFhYVAIBD8/+E4ntglk6BtlbIALNiyRzumV/e52D7oYw7gVJkgSRJ1i+Sm6EdlGfPLQnv7aMaaU0cOOVVQtOnRm0afdcLD09Ml1ojxmscc9pn7I/g5RYwjYswCgUAgELwrRKJCIBAIBAKBQPDeYk6eOEpxGMd0eQtDH0qNIP2EfsyxDynCpEzESSKRoBAIBAKBgSRJvHz+nCcPA6j4aW37GKF7GxExUS4RZWK8Yq067N7gF+M1Y0pQRBerFpJ9rFSN/XrCIjpJJyGHKBAIBIL4RiQqBAKBQCAQCATxTkSzUGOfq5a2wzkRJooinViJarVoZP2JiRmBQCAQ6BhjQuCTxwCUqlTFedzRJ/5dxqkoEuKZsmUH4N6tm6TJkNFlzLGFhzO86+cc278PAK8UKZm5yp9k3imijM8xQW8kIiImLFRVNT2foqtAjPj8fRgTz587x9UrV3n4MIBUqVOTNWs2MmXOhLu7e3yHJhAIBIK3gBzfAQgEAoFA8L4yeeJE8uTI6fTYtGFjrM79ashQl3PPnD79liOOmW9GjjLjmT1r1ju5puN7kTdnLv49diza9mtXrzHbN27Q8J3EKHh/iGqyJLJJE3O/LGuTR8bqVf25JMsu50XW1/syISMQCASC+CWy8SC5nig4f+Jf53b6uOM45hDFeAVw88plANJkyBjptS1WK6NnzWPg+Kl4pUjJ44cBdG/ow471a7GFh8c6Xsdjjj8d20c3tsY3YWFh/DJ7NpUrVMSn5qd079qV4cO+omvnL/i0enWKFS7M2G+/5WFAQHyH+s64e/eu03eKLzp2ivGc6lWqmu13bt/xDqJ8feLje4pAIHi/EIkKgUAgEAiiQFEUbDab02PtmjUxnhcWFsYGf3+Xc98HVIfXFNWqujeN4/sYHh7OV0OHRvt+qKjv3fsmiF8cJ1KiSzBE9VyWZfMhqigEAoFAEBc8PD3xSpGSEwcPRJv8jiqhbrBrgx9FPyrrst8Ri9VK5dr1WLhtLwPHTwVg4qC+tKtaLtqERVTEJikRcYyNz+TFrZs3qedTm/Fjx3Hjxo1I24SGhDL31zl8UqEiq1etescRxh+O98bbt21j44YN0bZXHNqrvJt7/tclPr6nCASC9wsh/SQQCAQCQRzYsX07zwIDSZI0aZRt9u75i6dPn77DqGJPkqRJSZs2LQCJEiWOlxjOnD7Dgnnz6dCpY7xcXxB/+BTMEaf2hql2VNQpnOt1whEIBAKBINY8fhjw2uPOsf37Yhzborr2xEF9mTio72td/33m9u3bNG/SlLt375r7Kn5SiSpVqpI6TRru37vH0SNHWLd2LYqi8PLlSwb07UfyZMn5pErleIw8fhg9chTlK1QgceL4uZ8XCASCt4FIVAgEAoFAEAdCQ0PZtHETTZo1jbKN37p17zCiuNFvQH/6Degf32EwbcoUPvWpRfr06eM7FME7xP/kpVi1MxIaRvuIq+qMSZ71Jy7GOQZRQSEQCASCuPLPrh2M7NGJSrXq8OWEaXE+f1jndhzbv4+JC/+gQPGScT7fFh7O7k3+/DphDI8fBuCVIiWdvhxGxZo+WKxRT+u87qr0V0mqvAqKojCwXz8zSZE0aVJ+nDWLj8t+7NSuTbu2dOzcmTYtWxIYGAjAsCFD2PnXHtzc3N5JrO8L9+7dY+rkKQwf8XV8hyIQCARvDCH9JBAIBAJBLEidOrW5HZ38U0hwCFs2bwYgZaqUWKP58hgZzwIDeRgQgKIorxboG0RVVR4+fMiLFy/eeN8vXrxg9MiRb6Sv4OBgHtx/8MoyUcHBwTwMCIjyy3xYWBgBDx7E+XfyLDCQJ0+evFJMAmfiW4pCIBAIBP/flK5UmaIflWXXBj8O7t4Zp3N3rl/Lsf37qFSr7islKeDVJaHedz8Kg00bN3Jg/wHz+YyZP7okKQzyF8jP+EkTzef37t1j+9Zt0fYfFhbG/fv3X+ue1rjfDI+j/NbbZNGCBZw8eTK+wwDe3v00aImsgAcPCAkOifO54eHhPLj/gNDQ0DifC5rk1vv2excI/suIRIVAIBAIBLGg9EdlSJMmDQB/79vH/fv3I223c8cOnj9/DkDdevWQLTEPtSdPnqS3ry/FChemWOEilClZivy589C6RQvWrl7jcsP/y+zZtGvdhnat2/DD999H2e/UyVPMdoaO7cIFC8x9fmsjr/w4/u+/dOvShYJ581GmREkK5y9AhbLlmDRhAs+ePYvx9URHzU8/xcPDA4Atm7ewdcuWV+pn965d+HbvQdFChSmYNx8fly5Nvly5qVW9Br/Mnk1QUJDLOb19fWnXug0d2rcHYPOmzdT+tJb2OkuWolihwoz6egQvX74E4N9jx2jbqjX5c+fho1KlKZAnL00bNeLA/v1RxnXv3j1GDB9O6RIlKVa4CCWLFqNoocIM7D+AK5cvv9JrFbw53tcJGoFAIBC8/wzSKymmfz041smKg7t3MnFwP7xSpKT3qLGvHcOb8LCIylA7PpMa836dY26XKFmScuXLR9u+WvXqZM6c2Xx+8OA/Lm1CgkP4dfYv1K9dh3y5clO2dBkK5y9AuTIfMWL4cG7fvh1p30MHDTbvlUOCQ9jg70/92nWc7jebNWrMmtWrnc4LDg7m83afmece//ffSPsHGDRwoNnu8KFD0b7WyGjYqBGgTeB/NWRonCb/7927Z167t69vpG0ePXpktunetavTsXdxP23wMCCAoYMGU7RgIe3cvHmpVrkKP86YQXBwcLTn+q1bR/MmTcmXKzcfly5N/tx5qFe7NksXL4n0/Zo18yfzNV+5fJmHAQEMGjiQIgUK8nHp0iz7448Y4xUIBK+PSFQIBAKBQBALLLKFuvXrA1qlgb+fX6TtHGWfGjRsFGO/P/04kwZ16rJ+nR/PAu1JgPDwcA7sP0C/Pn3o2L6908R79uzZ2bd3L/v27mXur3MICwtz6Tc0NJQF8+aZ7fLlzw/AlUuXzX23bt10Oe+Xn3+mcYOGbNm0mZAQ+6qlO7dvM2vmT9SqXoMLFy7E+LqiIlOmTPTu28d8PmrEyDivbhs6aDAdPmvPBn9/ghwSJ4qicOHCBcaPHUe71m0IfBrodN7hg4fYt3cv+//+m9+WLKF7ly6cO3vWPB4UFMSihQvp3qUr27dto3mTpvy9b5+ZKAoLC+PokaO0admKE8ePu8T1976/qVm1GksWLebRw4f2fp89Y9WKFdSp5fNey4J9KMRkYvo+TLgIBAKB4L9HMu8UTFz4B48fBjCyRycmfNk3ysRA8IsXTPiyDyN7dMIrRUqGTv0RD0/PNxbLmzbdjk8eP37MkSNHzOcdOsbsYSZJEhu2bOb46VMcP32KgYMGOR2/ceMGdWv78N3YsZw6dcrp2L1791iyaDE1q1Yzq6AdOXr0qHmvPH/eXHy793DqQ1VVjhw5Qv8+fend09dcae/h4YHVajXPXbF8eaSxX7t2jRXLlrNv716OHT1q3qPHhf5fDiRVqlQAnDxxgsWLFsX63ODgYDPGwwcjT5KEhoaabQ4ecE4Cve37aYNbt25R16c2f/7xh9N3hatXrjB18hQa1q3Hg/sPIo29R9du9PHtxeFDh5wWfJ0+dZqvv/qKNi1buSxqunD+vPmar1+/QYtmzVmxbHmMCRGBQPBmEYkKgUAgEAhiSYOGDcztNatd5Z+eP3/O9m1a6XmOnDkoULBAtP398fvvTJ5oL10vW64cw4YPZ8KkiTRt1szU2t29azcD+/Uz21WsVAkvLy8AAgMD2bd3n0vff+/727wBL1a8GFmyZInx9W3fto3x475DVVWsViut27ZhyrRpDB85gsJFigBw9+5d2rVq/VqSRp937EjuPHkALQHy/dTYaz2vXb2GPx1WNDVo2JBJU6cw7fvv6d6zJ+nSpQO0qpBJEydE2kdoSCijRowkW/bsjPhmFNO+/5669euZx/fs3k33Ll3x9PSk34ABzJj5I/0GDCBJ0iSA9gV10oSJTn3ev3+fLp06me951WrV+HbcWCZMmohP7doAhISE0L9PXw7+47rqTyAQCAQCwftPgeIl+W33P7oM1DrqFctLj8a1+fm70ez0X8fP342mR+PaNC5TmF0b/KhUqy5zNux4ZcmnmPgvJCyOHD7s9Lxk6VKxOs/d3R1PT088PT1xd3c397948YIOn7Xn8iWtktXLy4v2HT5n6vTp9O3fj7z58gHw8uVLfLv3iLbyYfLESciyTNNmzfhuwgRGjR5NpcqfmMfX+/kxb469GqRJU7uHnb/f+kjlgvz91pvbNWvVwvMVElhJkyZl2NfDzedTJk7i3r17ce7ndXgb99OOLF28hPv371OhYkWGj/iaSVOn0Kx5cywWCwAXLlxg8KAvXc6bPHEimzZuBMDb2xvf3r35/scf6Nu/vynl+8+BA/h27xHltX+cMcOshE6XPj0FCxUiUSJhWi4QvAuEmbZAIBAIBLEkb7585Mqdmwvnz3Pi+HGuXrlC1mzZzOPbtmw1qxBiqqZ49uwZ48bYJQC6dOvqtBqsUZMm1K5bhy6dOhMSEsKWzVvYtXMXlT6phJubG3Xq1mXRwoUAbPT3p9InlZz637Jpk7ldv0HDGF9bWFgYY78dA4DVamXpH39QvERx83jrNm3o1bMnmzdu4sGDB0ybPIWRo7+Jsd/IsFqtjB47huaNmwAwb+5cGjRqaH5xjI6VK1aY2z179aJPv75Ox+vUq4tPjZoAHPznYJT9ZMiYkTV+68wvh3Xq1eX+vXumPnJ4eDiLf/uN/AXsq9xy5sxplr+fdVg5BjBpwgRztdegoUPo/MUX5rFGTZpQpGhRxo0Zg81m4+uvhrNh8yYEAoFAIBB8eCTzTsHYXxdxcPcOtq9bw/F//mbtkgWwZAEAXilSUqlWXeq0bPPWEhQRMRIWFWv6mKbbEwf15dcJY2Jluh2f3HeYYHd3dydFihSv1d+cX36xTzKnS8eipUuc7tc7df6Cnt27s2P7dsLDwxk1YiQrVq+Ksr9f5s51us9u3bYNUydP4ccZMwCYPetnWrZuTeLEialSrSre3t48evSIx48fs3fPX06JDdCSGwaNGjd+5ddZp25dVixbzp7duwkKCuLbUd8wY+aPr9zfq/Cm76cj0r1nD/oNGGA+b9CwITVq1qRbly6EhYWxa8dOjhw+Yn5nuXrlCgvna3+HmTJlYvmqlaRImdI8v0WrljRt2Ijr16+zZ/duNvj7U8vHx+W6Rw4fJn2GDHz/wwyKFiv2Km+NQCB4RURFhUAgEAgEcaBhI/uk/7q1a52OOcr61HNYURQZW7dsMWWLsmbLRv+BA13alK9QgeYtW5rPVyxbZm7Xd6ju2LJ5s9OKLUVR2KJ7P1itVnzq1I42FiP2q1euANCmXVunJIXRz8hvvjFXMa1audLUnn0VSpQoQfMWLQDNpO6roUOjNN9zxKdObQYPHcrgoUNp3aaNy/H06dOb2y9ePI+yn27du7usYCtVuoy5Xbz4/9q78/CqqnN/4G+YhcsggooKBBKsQqgMarGtCoIjKAIqbXFCEQp6bwetiBUpor21/uxF0GrVi/a51ep1oIgi4NxewQFHECGIAgJWlLkqBDG/P0JOTshJSASyQT+f5+F59jln7X3WORFZO9/1rtWl1E1VRMQxP/h+6nj1p5+mgokVy5fHow8XBSjtO7SPIZdcUub9LhpycbQ79NCIKCotn/Nq+SEKALDnO+q4HjHypvFx3wsvx6OvzI17ZrwQj74yN+574eUYedP4agsp0u2NFRbp+581a96sgpaVUzwmi4j41ciRpUKKiIi69erGb3/3u6hTp05EFO2h8N6i9zJe67Q+vctMBoqI+Nkvfh5t2raNiKKlq6ZMLtqvonbt2qXG6I9NKV2B/f7ixbHg3XcjomimfrdjulX145Xym3HXRZ26RZ/jyWnT4oXnnt+p61XVrhxPb69Fixbx7z/7WZnnu5/Qo1TAc++kSanjO26/PbUk7tWjrykVUkRE7LfffnFFWhXG/X+5r9zPdvuf/iSkgAQIKgCgCor3qYiIeGxKSVCxfv36+Mff/x4REUcdfXQcfMghFV4nf2F+6vicgedEjRqZ/0ke+KOBqeNF+SXndOrcOXXjtW7dunhp9uzUa2+8/nqs/vTTiChaJqpp06Y7/Fzz09be/e53j4i1a9eW+VO7du3Iyc2NiKJlrubPn7/D61bkylFXpfr25htvxgP337/Dc84ZODCGDL0khgy9JJrvX7Q2b0FBQSxatCgeuP/+GDL4okq992Hty1ZvNG7cOHXcMm2DxmINGzYs9XMqvtl/d9sNZ0RE5y5dYt26dWW+u3Xr1sWRR5X8wuKVly3/BADfFPXq148DDj5kl+5DsTP2psCiYcOGqeNPP/l0p671xRdfxIcffhgREQ0aNCh3sk7z/ZtH9xN6pB4vWpSfsV3vPn0yPl+0HFTJMk+L3ysJOtKXf3pq5sxSexxMe6Jk2ad+/fvt9P5ZrVu3jksvK9kQe8zo0dW6p8KuHE9v7+RTT0ktg7u9c9Luj95L++7T72cOO/zwjPczHfLyUm1emzMn48bax/fovsMlfIHdY8+s/QOAPVSLFi2i2zHd4qXZL8UH778f8+bNi7y8vJg5fUZqBk/6TKrypN/QFM/IyiS7TZvIysqKwsLCWLJkSXz55ZdRa1vp/pn9zozxfyi6+XzyiWnxw2OPjYiImWnLPp1xZt+yF81gUX7JBtm//PnPK2hZYsWHy6Nr166VaptJ48aNY9Q1v45f/fLyiIj4/Y03xoknnbTD8zas3xCTJz8as/7vxViw4N1YuWJlpaox0qXfFBdLv1es3yDzLxpq1a4VBZsLSj2X/t3d9z9/ifv+5y87fP8Vy8tuZE6JafMW79TrAMDesSRU8237BkQU7ee1evXqSi3/tGzZsvhk1aqIiGjcuEnktsuNxYtLxgetWrdKjZkzycnJSR2nj8vTHVLBxKO2aecvXbY0dfydww6LvI4dY97cufH555/HM08/nQo8nphasuxTv/4VLxNbWZcMGxpT/jY53l/8fixfvjxunTAhrriy7N4Nu8OuHE9vr7Lf/bKlRd/9V199FYvfK/n59zj2uAqvH1E02emTTz6JAw44oNTzh1diOVpg91BRAQBVlL7nw9RtJd3Fyz7Vrl0741qn20uf7VSndp1y29WqVSu13NKWLVtKLfHUt19JP2bOmJF67akZMyOiaCZZrxNP3GFfIiI+/6xkmaTGjRtHs+bNdvinvJuPqujXv3+q7H3jho1xw/XXV9j+maefjh906xbjfjM2nnn66VixfEUceOCB0e2YbnHueefFuBsqPn93SF9iqn79+pX67ho3aVLt/QQAvp325AqLLttNennt1TmVOm/MNaNj4Flnx8Czzo4/33tPRERsThtf165gfB0RqaWfIqLc5Uzr1Kmb8fmIKLXk0cYNG0u9ll5VMXVbBXZ+fn4sWlQ0uaVT504VTlSqijp16sS4G25IPb77zrsiPz9zhcjepKLvvl69eqnjTZs2RUFBQWzZsiUKCkrCj8qMx5s1b5axauPggw/etR8GqDQVFQBQRaecekqMuXZ0FGwuiKlTHoshlwyN2bNmRUREj54nlCp5Lk9OTk7MevHFiIhYXsHs+o9WfpQKIA455JBSA/OWLVtG1yOPjNfmzIm1a9fGKy+/HPvtt18sW7YsIopKptPbVyS7bZt4/fXXIyLiD+PHl9n4b3e67vrro/cpp8aWLVti6pTHolatzGXeGzdsiF/+7Oepm8nzL7wwfjJoUOS2y021eX9x9c+0b5O29vGg886LkaOuqvY+AADsyJ5YYdG0adM4olOneOvNNyMi4p5Jk+KkU06u8JyCgoJ4Y9u4NSLisMOKZsCnz7SvaHwdEbFs2Yep4+KlTbe3/MMPIyc3J+NrK5avSB232m6JozP69o3f3nB9FGwuiBeefz7Wr18f0x4vWfap/4CzKuxbVX2vW7foN2BATH7kkfjyyy9j9NW/zrik0fbKa7NpJ/ah21WKl/DK5KOPPkodt2jRIhU6HXTwQamfy3N//3vss88+X+u9k64ygm8zFRUAUEUNGzWKnj17RUTEqlWrYsy1o1MD/TPTqi0qkn5D9OS0aeW2m/7kkyXntCt7E5W+ufe0J6aVWvbpzH6V60tERJs2JbO65s2bW2672bNmx1MzZ8ZTM2eWmrW0M9rm5MSw4cNTjyc/8kjGdrNnvxSfbav86NK1a1z7mzGlQoqI0hsyVpfs9O9ubvnf3cIFC1Lf3ccff1wdXQMAKGNPq7C4cPDg1PGrr7ySmgBUnrvvvCv+9a9/RUREVlZW9DqpqIJ43333Te1/tmb16nj1lcx7gm3etDleeO651OPccoKK59PabO/ZZ59JHbdqXTqoaNS4UZx0clHYsmXLlpj+5JMx7YmiZZ/q1KkTvU/PvPfFzhj166tTk6VemzOn3F/0N2rUKHW8du3ajMunVhQSVJcXnn++3KVdn3sm83effj/zzrx5Gc/dsmVLajy+o//OgOonqACAryF9H4qZ04vCgYaNGla6EuH4Ht1TG8m9NHt2PJs24C72z3/+MybdfXfqcXE4ku603n1Ss4hmTp8eT04rCjaaN28e3Y45pnIfJiKOPe7Y1PG9k+6JNWvWlGmTv3BhXHDuuTF86LCYeMstpUrmd9bwESOidevWFbb54ovPU8flzZCaMb0kqKnithVfW4cOHWLfffeNiIjZs2bFS7NfKtPmiy++iKFDhsTwocPiPy69rMI1kwEAqsOOAovqclqf3tGlS5fU438fcWnMefXVjG1nzpgZf7z11tTjfgP6l9pj4IRePVPHN9/0/zJuLn3H7benxroHHnhgHN6+fcb3evDBBzJW67715pvxzFNPpx6f2rvspt3pyz/dNvHWeH/x+0X969mzUtXXVdW0adMYefWoHbbbd999U+PoLVu2xNy33y7T5qEH/3eX96+q8hcuzDh5ac2aNXHPf09KPe7d5/TUcfF+fRERt/zX+Ni6dWuZ8x/86wMxfOiwGD50WMb7LyBZggoA+BqO7949mmy3z0Dv3n2ibt3y11NN17Jly/jJoEGpxyOG/TTuvOOOyM/Pj48//jgenzo1zhlwVqzatklgTm5ODDirbJl4o8aNoscJJ0RE0cA9f+HCiCjaRLs4CKmMvI4do2evoiBk7dq10e+MM2LGk9Nj1apVsWbNmpj2xBMx+PwLUr4mBpYAAAudSURBVJUjF150UaWvXRl169WNsdePq7BNhw55qeNZL74Yt9/2x/j444/js88+i/nvzI+x146JO++4I9Vm9aefxqpVq1KbnO8udevVjeGXXpp6PGTw4PjzvffGkg8+iI0bNsSrr7wSFww6N1WKfsaZfSu1SSQAQHUoL7CotvevWTNuvmV8NGveLCIi1q1bFz8+Z2AMHzo0HnzggXj2mWfiz/fcE5f+dHiMGDYsFT60OOiguHLkyFLXGnHZZdGgQYOIiJjz6qtx/qBz4/lnn4s1a9bEm2+8EWOvHRMTb7kl1f6XV1yecZ+CiIiCzQVxdv8B8ejDD8fKFSti6dKl8df77ovzB52bGhOfePJJ0a5duzLnfv8HP4gWBx0UERErV5QsE9VvwK7ZRDuTs885J7oeeeQO2x3RqVPqeNTIq+KtN9+MjRs3xvx35sc1o66OaU88UcHZ1Wfkr66MCePHR/7ChfHpJ5/EzOkz4kdnn51a1qtZ82Yx4OyS+6OBP/5RtGjRIiKKJg9deN758dLsl2LD+g2xcuXKuOtPf4rrr7suIooqWwade271fyigQqbzAcDXULt27TitT++4/y/3pZ5Lr7KojFG//nUsWbIk/u8f/4gvv/wyfv+7G+P3v7uxTLsDDjggbrv9jqhbL3MIcmb/fjFj+vRSz/Wt5BJU6f7z9zfGuT/+SeQvXBgrlq+IS9OWY0o3ZOjQ6D9gQJWvvyM/PPbY6HPG6fH4Y1Mzvp6TmxPH9+geLzxXVAp+8003xc033VSqzT777BOFhYWxadOm2Lx5c3z/6O/F+IkTos/pp2e85q4y+OKLYu7ct2PqlMdi06ZNMe43YyNT7HL0974XY8dVHMgAACRh+z0sqjOsaNmyZTzw0ENx8YWDY+mSJVFYWBhPzXwqnpr5VLnt75z039GsefNSz7dq1SrGT5wQlw0fEZs3b47XX3sthpQzweaiIRdH/wwTgYr17NUrnnn66bjyil9lfL1p06YxclTmKoYaNWpE/wED4raJE0u1P75793Lfb2dlZWXFuN/eEGec1ju1x10mv7ji8hi4bZ+MhQsWxIDt7hv69e8fkx99dLf1szLO6Ns3HpsyJSaMvyUmjL+lzOtZWVkx9rpxpSaJNWzYMCb+8bYYfMEFsXHDxpg9a1bG5Z1q1qwZt9w6MbLT9pkD9gwqKgDga+qbtgfEQQcfHEcedVSVzq9br27cfc+kGDnqqtivWbMyr9epUyfOOufs+NvUqWX2YkjXvUePUtUdubm50b5D5hL2ijRt2jQefPihuPCiwRmXVsrJzYmbx/9XXFWJsvKv65rRo6Nho4YZX8vKyorxEyZEvwEDylSLZGVlRc9evWLyY4/FoPOqf3ZUVlZW/GH8+Bhz3djYf//9y7zepEmT+MXll8fd90yq9AbnAABJKA4sqlt2dnZMmz49fnH55XHggQdmbNOgQYMYMnRoTHn88YyVDBERPU44IR752+Q47vjjIisrq8zrbdq2jfETJ8TV11xTYX9+OmJEjB03LrXvRbpux3SL/330kcjOzi73/PTZ/hFFVbW7e/nPQw89NC6+ZEiFbbp27Rp33HVnqSWzIoruPS4ZNixGjxmzO7tYKaf3PSP+88YbM373rVu3jkl/vjdOPvWUMq916tw5Jk+ZEr1OPDFjdfkPjz02HnjooTjxpJN2S7+BnZNVWN7uNADsUrnZRTM2ps0ru84pu8ZpeTkREfHekg8S7knVffXVVzF//vxYuXxFFBQURLPmzeOITkeUuxfD7rZ58+Z4+623YtWqVVG/fv3Izs6O1tnZVVpOandatWpVLMrPj/Xr10d2dptom9O2VACw+L3FsWhRfmRnZ0dObm65Jf27Q2FhYbw7/91Y/uGH8VXhV9G6deto2zan3IqYbwP//wOAvU95Y+vif9d355i7sLAw3pk3L5YsWRKrV6+OBvUbRKvWraJzly5VGtetWbMm3pk3L9auWRsN/q1BtG3bNtq0bVtu+1NPOjkW5edHRMTDkx+NTp07x9atW+Ptt96OFSuWR7169eLQ73wnWrVqVe41ii1dujR6Ht899XjK449Hh7wOle777lZQUBBLly6NpUuWRFZWVnTq3HmPW55069atMW/u3FixbfmsVq1bR15e3g7OKrJu3bqY+/bbsW7tumjWvHm0zWlbJpzZG+Rmt8n4dy03u42x9W60N/9uYW9m6ScA2APUqFEj8vLyKj3w3t3q1q0bRx19dNLdKNf++++fsXKhWE5uTuTk5lRjj0pkZWVF+w7tv1ZVCwAAReOpvI4dI69jx526TtOmTePY447bqWvUrFkzOnfpHJ27dK7SeX9NWyI2r2PHPSqkiCiqoGjXrl25lSl7gpo1a8YRnTqV2lejspo0abLTP3ugegkqAAAAAGAnLVywIBo1bhwL3n037r+vJKg4/8ILEuwVwN5BUAEAAAAAO2nEsJ/G0qVLSz3XoUOHOLNfv3LOAKDYnrHQNAAAAAB8g+Tl5cXtd925x+zzBrAnU1EBAAAAwLfegw89FFu/2hoREQ0bNqzy+deOHRsfrVwRWTVqxOGHHx6Ht29fpc2/Ab7NBBUAsJ3PP/88vtt+z9rsjm+m95Z8kHQXAAASk5vdJukuQKUYt8Pup/YMALZTv379pLsAAAAA8K2hogIAMjBjBgAAdi9jbgCKqagAAAAAAAASI6gAAAAAAAASI6gAAAAAAAASY48KAAAAAKpdbnabpLsAlWI/Fdj9VFQAAAAAAACJUVEBAAAAQLUzSx2AYioqAAAAAACAxAgqAAAAAACAxAgqAAAAAACAxAgqAAAAAACAxAgqAAAAAACAxAgqAAAAAACAxAgqAAAAAACAxAgqAAAAAACAxAgqAAAAAACAxAgqAAAAAACAxAgqAAAAAACAxAgqAAAAAACAxAgqAAAAAACAxAgqAAAAAACAxAgqAAAAAACAxAgqAAAAAACAxAgqAAAAAACAxAgqAAAAAACAxAgqAAAAAACAxAgqAAAAAACAxAgqAAAAAACAxAgqAAAAAACAxAgqAAAAAACAxAgqAAAAAACAxAgqAAAAAACAxAgqAAAAAACAxNRKugMAAAAA7F1ys9sk3QUAvkFUVAAAAAAAAIlRUQEAAABApby35IOkuwDAN5CKCgAAAAAAIDGCCgAAAAAAIDGCCgAAAAAAIDH2qADgGyc3u03SXQAAgG8EY2sAqoOKCgAAAAAAIDEqKgD4xpg2b3HSXQAAgG8EY2sAqpOKCgAAAAAAIDGCCgAAAAAAIDGCCgAAAAAAIDGCCgAAAAAAIDGCCgAAAAAAIDGCCgAAAAAAIDGCCgAAAAAAIDGCCgAAAAAAIDGCCgAAAAAAIDGCCgAAAAAAIDGCCgAAAAAAIDGCCgAAAAAAIDGCCgAAAAAAIDGCCgAAAAAAIDGCCgAAAAAAIDGCCgAAAAAAIDGCCgAAAAAAIDGCCgAAAAAAIDGCCgAAAAAAIDGCCgAAAAAAIDGCCgAAAAAAIDGCCgAAAAAAIDGCCgAAAAAAIDGCCgAAAAAAIDGCCgAAAAAAIDGCCgAAAAAAIDGCCgAAAAAAIDGCCgAAAAAAIDGCCgAAAAAAIDGCCgAAAAAAIDGCCgAAAAAAIDGCCgAAAAAAIDG1ku4AwLfNaXk5SXcBAAAAAPYYKioAAAAAAIDEZBUWFhYm3QkAAAAAAODbSUUFAAAAAACQGEEFAAAAAACQGEEFAAAAAACQGEEFAAAAAACQGEEFAAAAAACQGEEFAAAAAACQGEEFAAAAAACQGEEFAAAAAACQGEEFAAAAAACQGEEFAAAAAACQGEEFAAAAAACQGEEFAAAAAACQGEEFAAAAAACQGEEFAAAAAACQGEEFAAAAAACQGEEFAAAAAACQGEEFAAAAAACQGEEFAAAAAACQGEEFAAAAAACQGEEFAAAAAACQGEEFAAAAAACQGEEFAAAAAACQGEEFAAAAAACQmP8PMjHSl72r/eMAAAAASUVORK5CYII=;" vertex="1" parent="1">
          <mxGeometry x="90" y="1730" width="520" height="114" as="geometry" />
        </mxCell>
      </root>
    </mxGraphModel>
  </diagram>
</mxfile>
